<?xml version="1.0" encoding="utf-8"?>
<svg xmlns="http://www.w3.org/2000/svg" xmlns:xlink="http://www.w3.org/1999/xlink" width="700" height="500" viewBox="0 0 2800 2000">
<defs>
  <clipPath id="clip590">
    <rect x="0" y="0" width="2800" height="2000"/>
  </clipPath>
</defs>
<path clip-path="url(#clip590)" d="M0 2000 L2800 2000 L2800 0 L0 0  Z" fill="#ffffff" fill-rule="evenodd" fill-opacity="1"/>
<defs>
  <clipPath id="clip591">
    <rect x="560" y="0" width="1961" height="1961"/>
  </clipPath>
</defs>
<path clip-path="url(#clip590)" d="M291.255 1734.58 L2674.02 1734.58 L2674.02 125.984 L291.255 125.984  Z" fill="#ffffff" fill-rule="evenodd" fill-opacity="1"/>
<defs>
  <clipPath id="clip592">
    <rect x="291" y="125" width="2384" height="1610"/>
  </clipPath>
</defs>
<polyline clip-path="url(#clip592)" style="stroke:#000000; stroke-linecap:round; stroke-linejoin:round; stroke-width:2; stroke-opacity:0.1; fill:none" points="707.293,1734.58 707.293,125.984 "/>
<polyline clip-path="url(#clip592)" style="stroke:#000000; stroke-linecap:round; stroke-linejoin:round; stroke-width:2; stroke-opacity:0.1; fill:none" points="1148.6,1734.58 1148.6,125.984 "/>
<polyline clip-path="url(#clip592)" style="stroke:#000000; stroke-linecap:round; stroke-linejoin:round; stroke-width:2; stroke-opacity:0.1; fill:none" points="1589.91,1734.58 1589.91,125.984 "/>
<polyline clip-path="url(#clip592)" style="stroke:#000000; stroke-linecap:round; stroke-linejoin:round; stroke-width:2; stroke-opacity:0.1; fill:none" points="2031.22,1734.58 2031.22,125.984 "/>
<polyline clip-path="url(#clip592)" style="stroke:#000000; stroke-linecap:round; stroke-linejoin:round; stroke-width:2; stroke-opacity:0.1; fill:none" points="2472.53,1734.58 2472.53,125.984 "/>
<polyline clip-path="url(#clip590)" style="stroke:#000000; stroke-linecap:round; stroke-linejoin:round; stroke-width:4; stroke-opacity:1; fill:none" points="291.255,1734.58 2674.02,1734.58 "/>
<polyline clip-path="url(#clip590)" style="stroke:#000000; stroke-linecap:round; stroke-linejoin:round; stroke-width:4; stroke-opacity:1; fill:none" points="707.293,1734.58 707.293,1715.68 "/>
<polyline clip-path="url(#clip590)" style="stroke:#000000; stroke-linecap:round; stroke-linejoin:round; stroke-width:4; stroke-opacity:1; fill:none" points="1148.6,1734.58 1148.6,1715.68 "/>
<polyline clip-path="url(#clip590)" style="stroke:#000000; stroke-linecap:round; stroke-linejoin:round; stroke-width:4; stroke-opacity:1; fill:none" points="1589.91,1734.58 1589.91,1715.68 "/>
<polyline clip-path="url(#clip590)" style="stroke:#000000; stroke-linecap:round; stroke-linejoin:round; stroke-width:4; stroke-opacity:1; fill:none" points="2031.22,1734.58 2031.22,1715.68 "/>
<polyline clip-path="url(#clip590)" style="stroke:#000000; stroke-linecap:round; stroke-linejoin:round; stroke-width:4; stroke-opacity:1; fill:none" points="2472.53,1734.58 2472.53,1715.68 "/>
<path clip-path="url(#clip590)" d="M684.677 1768.7 Q681.066 1768.7 679.237 1772.26 Q677.432 1775.8 677.432 1782.93 Q677.432 1790.04 679.237 1793.6 Q681.066 1797.14 684.677 1797.14 Q688.311 1797.14 690.117 1793.6 Q691.946 1790.04 691.946 1782.93 Q691.946 1775.8 690.117 1772.26 Q688.311 1768.7 684.677 1768.7 M684.677 1764.99 Q690.487 1764.99 693.543 1769.6 Q696.622 1774.18 696.622 1782.93 Q696.622 1791.66 693.543 1796.26 Q690.487 1800.85 684.677 1800.85 Q678.867 1800.85 675.788 1796.26 Q672.733 1791.66 672.733 1782.93 Q672.733 1774.18 675.788 1769.6 Q678.867 1764.99 684.677 1764.99 Z" fill="#000000" fill-rule="nonzero" fill-opacity="1" /><path clip-path="url(#clip590)" d="M704.839 1794.3 L709.723 1794.3 L709.723 1800.18 L704.839 1800.18 L704.839 1794.3 Z" fill="#000000" fill-rule="nonzero" fill-opacity="1" /><path clip-path="url(#clip590)" d="M729.908 1768.7 Q726.297 1768.7 724.469 1772.26 Q722.663 1775.8 722.663 1782.93 Q722.663 1790.04 724.469 1793.6 Q726.297 1797.14 729.908 1797.14 Q733.543 1797.14 735.348 1793.6 Q737.177 1790.04 737.177 1782.93 Q737.177 1775.8 735.348 1772.26 Q733.543 1768.7 729.908 1768.7 M729.908 1764.99 Q735.719 1764.99 738.774 1769.6 Q741.853 1774.18 741.853 1782.93 Q741.853 1791.66 738.774 1796.26 Q735.719 1800.85 729.908 1800.85 Q724.098 1800.85 721.02 1796.26 Q717.964 1791.66 717.964 1782.93 Q717.964 1774.18 721.02 1769.6 Q724.098 1764.99 729.908 1764.99 Z" fill="#000000" fill-rule="nonzero" fill-opacity="1" /><path clip-path="url(#clip590)" d="M1120.34 1796.24 L1136.66 1796.24 L1136.66 1800.18 L1114.71 1800.18 L1114.71 1796.24 Q1117.38 1793.49 1121.96 1788.86 Q1126.57 1784.2 1127.75 1782.86 Q1129.99 1780.34 1130.87 1778.6 Q1131.77 1776.84 1131.77 1775.15 Q1131.77 1772.4 1129.83 1770.66 Q1127.91 1768.93 1124.81 1768.93 Q1122.61 1768.93 1120.15 1769.69 Q1117.72 1770.45 1114.95 1772.01 L1114.95 1767.28 Q1117.77 1766.15 1120.22 1765.57 Q1122.68 1764.99 1124.71 1764.99 Q1130.08 1764.99 1133.28 1767.68 Q1136.47 1770.36 1136.47 1774.85 Q1136.47 1776.98 1135.66 1778.9 Q1134.88 1780.8 1132.77 1783.39 Q1132.19 1784.07 1129.09 1787.28 Q1125.99 1790.48 1120.34 1796.24 Z" fill="#000000" fill-rule="nonzero" fill-opacity="1" /><path clip-path="url(#clip590)" d="M1146.47 1794.3 L1151.36 1794.3 L1151.36 1800.18 L1146.47 1800.18 L1146.47 1794.3 Z" fill="#000000" fill-rule="nonzero" fill-opacity="1" /><path clip-path="url(#clip590)" d="M1161.59 1765.62 L1179.94 1765.62 L1179.94 1769.55 L1165.87 1769.55 L1165.87 1778.02 Q1166.89 1777.68 1167.91 1777.51 Q1168.93 1777.33 1169.95 1777.33 Q1175.73 1777.33 1179.11 1780.5 Q1182.49 1783.67 1182.49 1789.09 Q1182.49 1794.67 1179.02 1797.77 Q1175.55 1800.85 1169.23 1800.85 Q1167.05 1800.85 1164.78 1800.48 Q1162.54 1800.11 1160.13 1799.37 L1160.13 1794.67 Q1162.21 1795.8 1164.44 1796.36 Q1166.66 1796.91 1169.13 1796.91 Q1173.14 1796.91 1175.48 1794.81 Q1177.82 1792.7 1177.82 1789.09 Q1177.82 1785.48 1175.48 1783.37 Q1173.14 1781.26 1169.13 1781.26 Q1167.26 1781.26 1165.38 1781.68 Q1163.53 1782.1 1161.59 1782.98 L1161.59 1765.62 Z" fill="#000000" fill-rule="nonzero" fill-opacity="1" /><path clip-path="url(#clip590)" d="M1557.08 1765.62 L1575.43 1765.62 L1575.43 1769.55 L1561.36 1769.55 L1561.36 1778.02 Q1562.38 1777.68 1563.4 1777.51 Q1564.41 1777.33 1565.43 1777.33 Q1571.22 1777.33 1574.6 1780.5 Q1577.98 1783.67 1577.98 1789.09 Q1577.98 1794.67 1574.51 1797.77 Q1571.04 1800.85 1564.72 1800.85 Q1562.54 1800.85 1560.27 1800.48 Q1558.03 1800.11 1555.62 1799.37 L1555.62 1794.67 Q1557.7 1795.8 1559.92 1796.36 Q1562.15 1796.91 1564.62 1796.91 Q1568.63 1796.91 1570.97 1794.81 Q1573.3 1792.7 1573.3 1789.09 Q1573.3 1785.48 1570.97 1783.37 Q1568.63 1781.26 1564.62 1781.26 Q1562.75 1781.26 1560.87 1781.68 Q1559.02 1782.1 1557.08 1782.98 L1557.08 1765.62 Z" fill="#000000" fill-rule="nonzero" fill-opacity="1" /><path clip-path="url(#clip590)" d="M1587.19 1794.3 L1592.08 1794.3 L1592.08 1800.18 L1587.19 1800.18 L1587.19 1794.3 Z" fill="#000000" fill-rule="nonzero" fill-opacity="1" /><path clip-path="url(#clip590)" d="M1612.26 1768.7 Q1608.65 1768.7 1606.82 1772.26 Q1605.02 1775.8 1605.02 1782.93 Q1605.02 1790.04 1606.82 1793.6 Q1608.65 1797.14 1612.26 1797.14 Q1615.9 1797.14 1617.7 1793.6 Q1619.53 1790.04 1619.53 1782.93 Q1619.53 1775.8 1617.7 1772.26 Q1615.9 1768.7 1612.26 1768.7 M1612.26 1764.99 Q1618.07 1764.99 1621.13 1769.6 Q1624.21 1774.18 1624.21 1782.93 Q1624.21 1791.66 1621.13 1796.26 Q1618.07 1800.85 1612.26 1800.85 Q1606.45 1800.85 1603.37 1796.26 Q1600.32 1791.66 1600.32 1782.93 Q1600.32 1774.18 1603.37 1769.6 Q1606.45 1764.99 1612.26 1764.99 Z" fill="#000000" fill-rule="nonzero" fill-opacity="1" /><path clip-path="url(#clip590)" d="M1997.54 1765.62 L2019.76 1765.62 L2019.76 1767.61 L2007.22 1800.18 L2002.33 1800.18 L2014.14 1769.55 L1997.54 1769.55 L1997.54 1765.62 Z" fill="#000000" fill-rule="nonzero" fill-opacity="1" /><path clip-path="url(#clip590)" d="M2028.88 1794.3 L2033.77 1794.3 L2033.77 1800.18 L2028.88 1800.18 L2028.88 1794.3 Z" fill="#000000" fill-rule="nonzero" fill-opacity="1" /><path clip-path="url(#clip590)" d="M2044 1765.62 L2062.36 1765.62 L2062.36 1769.55 L2048.28 1769.55 L2048.28 1778.02 Q2049.3 1777.68 2050.32 1777.51 Q2051.34 1777.33 2052.36 1777.33 Q2058.14 1777.33 2061.52 1780.5 Q2064.9 1783.67 2064.9 1789.09 Q2064.9 1794.67 2061.43 1797.77 Q2057.96 1800.85 2051.64 1800.85 Q2049.46 1800.85 2047.19 1800.48 Q2044.95 1800.11 2042.54 1799.37 L2042.54 1794.67 Q2044.62 1795.8 2046.85 1796.36 Q2049.07 1796.91 2051.55 1796.91 Q2055.55 1796.91 2057.89 1794.81 Q2060.23 1792.7 2060.23 1789.09 Q2060.23 1785.48 2057.89 1783.37 Q2055.55 1781.26 2051.55 1781.26 Q2049.67 1781.26 2047.8 1781.68 Q2045.94 1782.1 2044 1782.98 L2044 1765.62 Z" fill="#000000" fill-rule="nonzero" fill-opacity="1" /><path clip-path="url(#clip590)" d="M2424.6 1796.24 L2432.24 1796.24 L2432.24 1769.88 L2423.93 1771.54 L2423.93 1767.28 L2432.2 1765.62 L2436.87 1765.62 L2436.87 1796.24 L2444.51 1796.24 L2444.51 1800.18 L2424.6 1800.18 L2424.6 1796.24 Z" fill="#000000" fill-rule="nonzero" fill-opacity="1" /><path clip-path="url(#clip590)" d="M2463.96 1768.7 Q2460.34 1768.7 2458.52 1772.26 Q2456.71 1775.8 2456.71 1782.93 Q2456.71 1790.04 2458.52 1793.6 Q2460.34 1797.14 2463.96 1797.14 Q2467.59 1797.14 2469.4 1793.6 Q2471.22 1790.04 2471.22 1782.93 Q2471.22 1775.8 2469.4 1772.26 Q2467.59 1768.7 2463.96 1768.7 M2463.96 1764.99 Q2469.77 1764.99 2472.82 1769.6 Q2475.9 1774.18 2475.9 1782.93 Q2475.9 1791.66 2472.82 1796.26 Q2469.77 1800.85 2463.96 1800.85 Q2458.15 1800.85 2455.07 1796.26 Q2452.01 1791.66 2452.01 1782.93 Q2452.01 1774.18 2455.07 1769.6 Q2458.15 1764.99 2463.96 1764.99 Z" fill="#000000" fill-rule="nonzero" fill-opacity="1" /><path clip-path="url(#clip590)" d="M2484.12 1794.3 L2489 1794.3 L2489 1800.18 L2484.12 1800.18 L2484.12 1794.3 Z" fill="#000000" fill-rule="nonzero" fill-opacity="1" /><path clip-path="url(#clip590)" d="M2509.19 1768.7 Q2505.58 1768.7 2503.75 1772.26 Q2501.94 1775.8 2501.94 1782.93 Q2501.94 1790.04 2503.75 1793.6 Q2505.58 1797.14 2509.19 1797.14 Q2512.82 1797.14 2514.63 1793.6 Q2516.46 1790.04 2516.46 1782.93 Q2516.46 1775.8 2514.63 1772.26 Q2512.82 1768.7 2509.19 1768.7 M2509.19 1764.99 Q2515 1764.99 2518.05 1769.6 Q2521.13 1774.18 2521.13 1782.93 Q2521.13 1791.66 2518.05 1796.26 Q2515 1800.85 2509.19 1800.85 Q2503.38 1800.85 2500.3 1796.26 Q2497.24 1791.66 2497.24 1782.93 Q2497.24 1774.18 2500.3 1769.6 Q2503.38 1764.99 2509.19 1764.99 Z" fill="#000000" fill-rule="nonzero" fill-opacity="1" /><path clip-path="url(#clip590)" d="M1075.55 1837.92 L1102.86 1837.92 L1102.86 1843.33 L1081.98 1843.33 L1081.98 1857.34 L1100.82 1857.34 L1100.82 1862.75 L1081.98 1862.75 L1081.98 1885.44 L1075.55 1885.44 L1075.55 1837.92 Z" fill="#000000" fill-rule="nonzero" fill-opacity="1" /><path clip-path="url(#clip590)" d="M1112.79 1835.92 L1118.64 1835.92 L1118.64 1885.44 L1112.79 1885.44 L1112.79 1835.92 Z" fill="#000000" fill-rule="nonzero" fill-opacity="1" /><path clip-path="url(#clip590)" d="M1144.71 1853.9 Q1140 1853.9 1137.26 1857.59 Q1134.53 1861.25 1134.53 1867.65 Q1134.53 1874.05 1137.23 1877.74 Q1139.97 1881.4 1144.71 1881.4 Q1149.39 1881.4 1152.13 1877.71 Q1154.87 1874.01 1154.87 1867.65 Q1154.87 1861.31 1152.13 1857.62 Q1149.39 1853.9 1144.71 1853.9 M1144.71 1848.93 Q1152.35 1848.93 1156.71 1853.9 Q1161.07 1858.86 1161.07 1867.65 Q1161.07 1876.4 1156.71 1881.4 Q1152.35 1886.36 1144.71 1886.36 Q1137.04 1886.36 1132.68 1881.4 Q1128.35 1876.4 1128.35 1867.65 Q1128.35 1858.86 1132.68 1853.9 Q1137.04 1848.93 1144.71 1848.93 Z" fill="#000000" fill-rule="nonzero" fill-opacity="1" /><path clip-path="url(#clip590)" d="M1184.59 1853.9 Q1179.88 1853.9 1177.15 1857.59 Q1174.41 1861.25 1174.41 1867.65 Q1174.41 1874.05 1177.11 1877.74 Q1179.85 1881.4 1184.59 1881.4 Q1189.27 1881.4 1192.01 1877.71 Q1194.75 1874.01 1194.75 1867.65 Q1194.75 1861.31 1192.01 1857.62 Q1189.27 1853.9 1184.59 1853.9 M1184.59 1848.93 Q1192.23 1848.93 1196.59 1853.9 Q1200.95 1858.86 1200.95 1867.65 Q1200.95 1876.4 1196.59 1881.4 Q1192.23 1886.36 1184.59 1886.36 Q1176.92 1886.36 1172.56 1881.4 Q1168.23 1876.4 1168.23 1867.65 Q1168.23 1858.86 1172.56 1853.9 Q1176.92 1848.93 1184.59 1848.93 Z" fill="#000000" fill-rule="nonzero" fill-opacity="1" /><path clip-path="url(#clip590)" d="M1234.12 1855.2 L1234.12 1835.92 L1239.97 1835.92 L1239.97 1885.44 L1234.12 1885.44 L1234.12 1880.09 Q1232.27 1883.28 1229.44 1884.84 Q1226.64 1886.36 1222.69 1886.36 Q1216.23 1886.36 1212.16 1881.21 Q1208.11 1876.05 1208.11 1867.65 Q1208.11 1859.25 1212.16 1854.09 Q1216.23 1848.93 1222.69 1848.93 Q1226.64 1848.93 1229.44 1850.49 Q1232.27 1852.02 1234.12 1855.2 M1214.16 1867.65 Q1214.16 1874.11 1216.8 1877.8 Q1219.48 1881.46 1224.12 1881.46 Q1228.77 1881.46 1231.44 1877.8 Q1234.12 1874.11 1234.12 1867.65 Q1234.12 1861.19 1231.44 1857.53 Q1228.77 1853.84 1224.12 1853.84 Q1219.48 1853.84 1216.8 1857.53 Q1214.16 1861.19 1214.16 1867.65 Z" fill="#000000" fill-rule="nonzero" fill-opacity="1" /><path clip-path="url(#clip590)" d="M1279.44 1843.2 L1279.44 1880.16 L1287.21 1880.16 Q1297.04 1880.16 1301.59 1875.7 Q1306.18 1871.25 1306.18 1861.63 Q1306.18 1852.08 1301.59 1847.66 Q1297.04 1843.2 1287.21 1843.2 L1279.44 1843.2 M1273.01 1837.92 L1286.22 1837.92 Q1300.04 1837.92 1306.5 1843.68 Q1312.96 1849.41 1312.96 1861.63 Q1312.96 1873.92 1306.46 1879.68 Q1299.97 1885.44 1286.22 1885.44 L1273.01 1885.44 L1273.01 1837.92 Z" fill="#000000" fill-rule="nonzero" fill-opacity="1" /><path clip-path="url(#clip590)" d="M1353.44 1866.15 L1353.44 1869.02 L1326.52 1869.02 Q1326.9 1875.06 1330.15 1878.25 Q1333.42 1881.4 1339.25 1881.4 Q1342.62 1881.4 1345.77 1880.57 Q1348.96 1879.74 1352.07 1878.09 L1352.07 1883.63 Q1348.92 1884.96 1345.61 1885.66 Q1342.3 1886.36 1338.9 1886.36 Q1330.37 1886.36 1325.37 1881.4 Q1320.41 1876.43 1320.41 1867.97 Q1320.41 1859.21 1325.12 1854.09 Q1329.86 1848.93 1337.88 1848.93 Q1345.07 1848.93 1349.24 1853.58 Q1353.44 1858.2 1353.44 1866.15 M1347.59 1864.43 Q1347.52 1859.63 1344.88 1856.76 Q1342.27 1853.9 1337.94 1853.9 Q1333.04 1853.9 1330.08 1856.67 Q1327.15 1859.44 1326.71 1864.47 L1347.59 1864.43 Z" fill="#000000" fill-rule="nonzero" fill-opacity="1" /><path clip-path="url(#clip590)" d="M1368.72 1880.09 L1368.72 1899 L1362.83 1899 L1362.83 1849.79 L1368.72 1849.79 L1368.72 1855.2 Q1370.57 1852.02 1373.37 1850.49 Q1376.2 1848.93 1380.12 1848.93 Q1386.61 1848.93 1390.65 1854.09 Q1394.73 1859.25 1394.73 1867.65 Q1394.73 1876.05 1390.65 1881.21 Q1386.61 1886.36 1380.12 1886.36 Q1376.2 1886.36 1373.37 1884.84 Q1370.57 1883.28 1368.72 1880.09 M1388.65 1867.65 Q1388.65 1861.19 1385.97 1857.53 Q1383.33 1853.84 1378.68 1853.84 Q1374.04 1853.84 1371.36 1857.53 Q1368.72 1861.19 1368.72 1867.65 Q1368.72 1874.11 1371.36 1877.8 Q1374.04 1881.46 1378.68 1881.46 Q1383.33 1881.46 1385.97 1877.8 Q1388.65 1874.11 1388.65 1867.65 Z" fill="#000000" fill-rule="nonzero" fill-opacity="1" /><path clip-path="url(#clip590)" d="M1410.23 1839.67 L1410.23 1849.79 L1422.29 1849.79 L1422.29 1854.34 L1410.23 1854.34 L1410.23 1873.7 Q1410.23 1878.06 1411.4 1879.3 Q1412.61 1880.54 1416.27 1880.54 L1422.29 1880.54 L1422.29 1885.44 L1416.27 1885.44 Q1409.49 1885.44 1406.92 1882.93 Q1404.34 1880.38 1404.34 1873.7 L1404.34 1854.34 L1400.04 1854.34 L1400.04 1849.79 L1404.34 1849.79 L1404.34 1839.67 L1410.23 1839.67 Z" fill="#000000" fill-rule="nonzero" fill-opacity="1" /><path clip-path="url(#clip590)" d="M1459.62 1863.92 L1459.62 1885.44 L1453.77 1885.44 L1453.77 1864.12 Q1453.77 1859.05 1451.79 1856.54 Q1449.82 1854.03 1445.87 1854.03 Q1441.13 1854.03 1438.39 1857.05 Q1435.66 1860.07 1435.66 1865.29 L1435.66 1885.44 L1429.77 1885.44 L1429.77 1835.92 L1435.66 1835.92 L1435.66 1855.33 Q1437.76 1852.12 1440.59 1850.52 Q1443.45 1848.93 1447.18 1848.93 Q1453.32 1848.93 1456.47 1852.75 Q1459.62 1856.54 1459.62 1863.92 Z" fill="#000000" fill-rule="nonzero" fill-opacity="1" /><path clip-path="url(#clip590)" d="M1508.23 1867.52 Q1501.13 1867.52 1498.39 1869.14 Q1495.65 1870.77 1495.65 1874.68 Q1495.65 1877.8 1497.69 1879.65 Q1499.76 1881.46 1503.29 1881.46 Q1508.16 1881.46 1511.09 1878.02 Q1514.05 1874.56 1514.05 1868.83 L1514.05 1867.52 L1508.23 1867.52 M1519.91 1865.1 L1519.91 1885.44 L1514.05 1885.44 L1514.05 1880.03 Q1512.05 1883.28 1509.05 1884.84 Q1506.06 1886.36 1501.73 1886.36 Q1496.26 1886.36 1493.01 1883.31 Q1489.8 1880.22 1489.8 1875.06 Q1489.8 1869.05 1493.81 1865.99 Q1497.85 1862.94 1505.84 1862.94 L1514.05 1862.94 L1514.05 1862.37 Q1514.05 1858.32 1511.38 1856.13 Q1508.73 1853.9 1503.93 1853.9 Q1500.87 1853.9 1497.98 1854.63 Q1495.08 1855.36 1492.41 1856.83 L1492.41 1851.42 Q1495.62 1850.17 1498.65 1849.57 Q1501.67 1848.93 1504.53 1848.93 Q1512.27 1848.93 1516.09 1852.94 Q1519.91 1856.95 1519.91 1865.1 Z" fill="#000000" fill-rule="nonzero" fill-opacity="1" /><path clip-path="url(#clip590)" d="M1537.76 1839.67 L1537.76 1849.79 L1549.83 1849.79 L1549.83 1854.34 L1537.76 1854.34 L1537.76 1873.7 Q1537.76 1878.06 1538.94 1879.3 Q1540.15 1880.54 1543.81 1880.54 L1549.83 1880.54 L1549.83 1885.44 L1543.81 1885.44 Q1537.03 1885.44 1534.45 1882.93 Q1531.87 1880.38 1531.87 1873.7 L1531.87 1854.34 L1527.58 1854.34 L1527.58 1849.79 L1531.87 1849.79 L1531.87 1839.67 L1537.76 1839.67 Z" fill="#000000" fill-rule="nonzero" fill-opacity="1" /><path clip-path="url(#clip590)" d="M1578.5 1837.92 L1584.93 1837.92 L1584.93 1857.4 L1608.29 1857.4 L1608.29 1837.92 L1614.72 1837.92 L1614.72 1885.44 L1608.29 1885.44 L1608.29 1862.81 L1584.93 1862.81 L1584.93 1885.44 L1578.5 1885.44 L1578.5 1837.92 Z" fill="#000000" fill-rule="nonzero" fill-opacity="1" /><path clip-path="url(#clip590)" d="M1641.08 1853.9 Q1636.37 1853.9 1633.63 1857.59 Q1630.89 1861.25 1630.89 1867.65 Q1630.89 1874.05 1633.6 1877.74 Q1636.34 1881.4 1641.08 1881.4 Q1645.76 1881.4 1648.49 1877.71 Q1651.23 1874.01 1651.23 1867.65 Q1651.23 1861.31 1648.49 1857.62 Q1645.76 1853.9 1641.08 1853.9 M1641.08 1848.93 Q1648.72 1848.93 1653.08 1853.9 Q1657.44 1858.86 1657.44 1867.65 Q1657.44 1876.4 1653.08 1881.4 Q1648.72 1886.36 1641.08 1886.36 Q1633.41 1886.36 1629.05 1881.4 Q1624.72 1876.4 1624.72 1867.65 Q1624.72 1858.86 1629.05 1853.9 Q1633.41 1848.93 1641.08 1848.93 Z" fill="#000000" fill-rule="nonzero" fill-opacity="1" /><path clip-path="url(#clip590)" d="M1666.54 1871.37 L1666.54 1849.79 L1672.4 1849.79 L1672.4 1871.15 Q1672.4 1876.21 1674.37 1878.76 Q1676.34 1881.27 1680.29 1881.27 Q1685.03 1881.27 1687.77 1878.25 Q1690.54 1875.22 1690.54 1870 L1690.54 1849.79 L1696.4 1849.79 L1696.4 1885.44 L1690.54 1885.44 L1690.54 1879.97 Q1688.41 1883.21 1685.57 1884.8 Q1682.77 1886.36 1679.05 1886.36 Q1672.91 1886.36 1669.72 1882.54 Q1666.54 1878.73 1666.54 1871.37 M1681.28 1848.93 L1681.28 1848.93 Z" fill="#000000" fill-rule="nonzero" fill-opacity="1" /><path clip-path="url(#clip590)" d="M1731.18 1850.84 L1731.18 1856.38 Q1728.7 1855.11 1726.03 1854.47 Q1723.35 1853.84 1720.49 1853.84 Q1716.13 1853.84 1713.93 1855.17 Q1711.77 1856.51 1711.77 1859.18 Q1711.77 1861.22 1713.33 1862.4 Q1714.89 1863.54 1719.6 1864.59 L1721.6 1865.04 Q1727.84 1866.38 1730.45 1868.83 Q1733.09 1871.25 1733.09 1875.61 Q1733.09 1880.57 1729.15 1883.47 Q1725.23 1886.36 1718.36 1886.36 Q1715.49 1886.36 1712.37 1885.79 Q1709.29 1885.25 1705.85 1884.14 L1705.85 1878.09 Q1709.1 1879.78 1712.25 1880.63 Q1715.4 1881.46 1718.49 1881.46 Q1722.62 1881.46 1724.85 1880.06 Q1727.08 1878.63 1727.08 1876.05 Q1727.08 1873.66 1725.46 1872.39 Q1723.86 1871.12 1718.42 1869.94 L1716.38 1869.46 Q1710.94 1868.32 1708.52 1865.96 Q1706.1 1863.57 1706.1 1859.44 Q1706.1 1854.41 1709.67 1851.67 Q1713.23 1848.93 1719.79 1848.93 Q1723.04 1848.93 1725.9 1849.41 Q1728.77 1849.89 1731.18 1850.84 Z" fill="#000000" fill-rule="nonzero" fill-opacity="1" /><path clip-path="url(#clip590)" d="M1772.91 1866.15 L1772.91 1869.02 L1745.98 1869.02 Q1746.37 1875.06 1749.61 1878.25 Q1752.89 1881.4 1758.72 1881.4 Q1762.09 1881.4 1765.24 1880.57 Q1768.42 1879.74 1771.54 1878.09 L1771.54 1883.63 Q1768.39 1884.96 1765.08 1885.66 Q1761.77 1886.36 1758.37 1886.36 Q1749.84 1886.36 1744.84 1881.4 Q1739.87 1876.43 1739.87 1867.97 Q1739.87 1859.21 1744.58 1854.09 Q1749.33 1848.93 1757.35 1848.93 Q1764.54 1848.93 1768.71 1853.58 Q1772.91 1858.2 1772.91 1866.15 M1767.06 1864.43 Q1766.99 1859.63 1764.35 1856.76 Q1761.74 1853.9 1757.41 1853.9 Q1752.51 1853.9 1749.55 1856.67 Q1746.62 1859.44 1746.18 1864.47 L1767.06 1864.43 Z" fill="#000000" fill-rule="nonzero" fill-opacity="1" /><path clip-path="url(#clip590)" d="M1817.31 1835.98 Q1813.05 1843.3 1810.98 1850.46 Q1808.91 1857.62 1808.91 1864.98 Q1808.91 1872.33 1810.98 1879.55 Q1813.08 1886.75 1817.31 1894.03 L1812.22 1894.03 Q1807.45 1886.55 1805.06 1879.33 Q1802.7 1872.1 1802.7 1864.98 Q1802.7 1857.88 1805.06 1850.68 Q1807.41 1843.49 1812.22 1835.98 L1817.31 1835.98 Z" fill="#000000" fill-rule="nonzero" fill-opacity="1" /><path clip-path="url(#clip590)" d="M1846.72 1835.92 L1846.72 1840.79 L1841.12 1840.79 Q1837.97 1840.79 1836.73 1842.06 Q1835.52 1843.33 1835.52 1846.64 L1835.52 1849.79 L1845.16 1849.79 L1845.16 1854.34 L1835.52 1854.34 L1835.52 1885.44 L1829.63 1885.44 L1829.63 1854.34 L1824.03 1854.34 L1824.03 1849.79 L1829.63 1849.79 L1829.63 1847.31 Q1829.63 1841.36 1832.4 1838.65 Q1835.17 1835.92 1841.18 1835.92 L1846.72 1835.92 Z" fill="#000000" fill-rule="nonzero" fill-opacity="1" /><path clip-path="url(#clip590)" d="M1856.27 1839.67 L1856.27 1849.79 L1868.33 1849.79 L1868.33 1854.34 L1856.27 1854.34 L1856.27 1873.7 Q1856.27 1878.06 1857.45 1879.3 Q1858.66 1880.54 1862.32 1880.54 L1868.33 1880.54 L1868.33 1885.44 L1862.32 1885.44 Q1855.54 1885.44 1852.96 1882.93 Q1850.38 1880.38 1850.38 1873.7 L1850.38 1854.34 L1846.09 1854.34 L1846.09 1849.79 L1850.38 1849.79 L1850.38 1839.67 L1856.27 1839.67 Z" fill="#000000" fill-rule="nonzero" fill-opacity="1" /><path clip-path="url(#clip590)" d="M1875.11 1835.98 L1880.21 1835.98 Q1884.98 1843.49 1887.34 1850.68 Q1889.72 1857.88 1889.72 1864.98 Q1889.72 1872.1 1887.34 1879.33 Q1884.98 1886.55 1880.21 1894.03 L1875.11 1894.03 Q1879.35 1886.75 1881.42 1879.55 Q1883.52 1872.33 1883.52 1864.98 Q1883.52 1857.62 1881.42 1850.46 Q1879.35 1843.3 1875.11 1835.98 Z" fill="#000000" fill-rule="nonzero" fill-opacity="1" /><polyline clip-path="url(#clip592)" style="stroke:#000000; stroke-linecap:round; stroke-linejoin:round; stroke-width:2; stroke-opacity:0.1; fill:none" points="291.255,1689.05 2674.02,1689.05 "/>
<polyline clip-path="url(#clip592)" style="stroke:#000000; stroke-linecap:round; stroke-linejoin:round; stroke-width:2; stroke-opacity:0.1; fill:none" points="291.255,1361.13 2674.02,1361.13 "/>
<polyline clip-path="url(#clip592)" style="stroke:#000000; stroke-linecap:round; stroke-linejoin:round; stroke-width:2; stroke-opacity:0.1; fill:none" points="291.255,1033.22 2674.02,1033.22 "/>
<polyline clip-path="url(#clip592)" style="stroke:#000000; stroke-linecap:round; stroke-linejoin:round; stroke-width:2; stroke-opacity:0.1; fill:none" points="291.255,705.298 2674.02,705.298 "/>
<polyline clip-path="url(#clip592)" style="stroke:#000000; stroke-linecap:round; stroke-linejoin:round; stroke-width:2; stroke-opacity:0.1; fill:none" points="291.255,377.381 2674.02,377.381 "/>
<polyline clip-path="url(#clip590)" style="stroke:#000000; stroke-linecap:round; stroke-linejoin:round; stroke-width:4; stroke-opacity:1; fill:none" points="291.255,1734.58 291.255,125.984 "/>
<polyline clip-path="url(#clip590)" style="stroke:#000000; stroke-linecap:round; stroke-linejoin:round; stroke-width:4; stroke-opacity:1; fill:none" points="291.255,1689.05 310.153,1689.05 "/>
<polyline clip-path="url(#clip590)" style="stroke:#000000; stroke-linecap:round; stroke-linejoin:round; stroke-width:4; stroke-opacity:1; fill:none" points="291.255,1361.13 310.153,1361.13 "/>
<polyline clip-path="url(#clip590)" style="stroke:#000000; stroke-linecap:round; stroke-linejoin:round; stroke-width:4; stroke-opacity:1; fill:none" points="291.255,1033.22 310.153,1033.22 "/>
<polyline clip-path="url(#clip590)" style="stroke:#000000; stroke-linecap:round; stroke-linejoin:round; stroke-width:4; stroke-opacity:1; fill:none" points="291.255,705.298 310.153,705.298 "/>
<polyline clip-path="url(#clip590)" style="stroke:#000000; stroke-linecap:round; stroke-linejoin:round; stroke-width:4; stroke-opacity:1; fill:none" points="291.255,377.381 310.153,377.381 "/>
<path clip-path="url(#clip590)" d="M237.311 1674.85 Q233.7 1674.85 231.871 1678.41 Q230.066 1681.96 230.066 1689.09 Q230.066 1696.19 231.871 1699.76 Q233.7 1703.3 237.311 1703.3 Q240.945 1703.3 242.751 1699.76 Q244.58 1696.19 244.58 1689.09 Q244.58 1681.96 242.751 1678.41 Q240.945 1674.85 237.311 1674.85 M237.311 1671.15 Q243.121 1671.15 246.177 1675.75 Q249.255 1680.34 249.255 1689.09 Q249.255 1697.81 246.177 1702.42 Q243.121 1707 237.311 1707 Q231.501 1707 228.422 1702.42 Q225.367 1697.81 225.367 1689.09 Q225.367 1680.34 228.422 1675.75 Q231.501 1671.15 237.311 1671.15 Z" fill="#000000" fill-rule="nonzero" fill-opacity="1" /><path clip-path="url(#clip590)" d="M197.959 1374.48 L205.598 1374.48 L205.598 1348.11 L197.288 1349.78 L197.288 1345.52 L205.552 1343.85 L210.228 1343.85 L210.228 1374.48 L217.867 1374.48 L217.867 1378.41 L197.959 1378.41 L197.959 1374.48 Z" fill="#000000" fill-rule="nonzero" fill-opacity="1" /><path clip-path="url(#clip590)" d="M237.311 1346.93 Q233.7 1346.93 231.871 1350.5 Q230.066 1354.04 230.066 1361.17 Q230.066 1368.27 231.871 1371.84 Q233.7 1375.38 237.311 1375.38 Q240.945 1375.38 242.751 1371.84 Q244.58 1368.27 244.58 1361.17 Q244.58 1354.04 242.751 1350.5 Q240.945 1346.93 237.311 1346.93 M237.311 1343.23 Q243.121 1343.23 246.177 1347.83 Q249.255 1352.42 249.255 1361.17 Q249.255 1369.89 246.177 1374.5 Q243.121 1379.08 237.311 1379.08 Q231.501 1379.08 228.422 1374.5 Q225.367 1369.89 225.367 1361.17 Q225.367 1352.42 228.422 1347.83 Q231.501 1343.23 237.311 1343.23 Z" fill="#000000" fill-rule="nonzero" fill-opacity="1" /><path clip-path="url(#clip590)" d="M201.177 1046.56 L217.496 1046.56 L217.496 1050.5 L195.552 1050.5 L195.552 1046.56 Q198.214 1043.81 202.797 1039.18 Q207.404 1034.52 208.584 1033.18 Q210.83 1030.66 211.709 1028.92 Q212.612 1027.16 212.612 1025.47 Q212.612 1022.72 210.668 1020.98 Q208.746 1019.25 205.645 1019.25 Q203.445 1019.25 200.992 1020.01 Q198.561 1020.77 195.783 1022.32 L195.783 1017.6 Q198.608 1016.47 201.061 1015.89 Q203.515 1015.31 205.552 1015.31 Q210.922 1015.31 214.117 1018 Q217.311 1020.68 217.311 1025.17 Q217.311 1027.3 216.501 1029.22 Q215.714 1031.12 213.607 1033.71 Q213.029 1034.38 209.927 1037.6 Q206.825 1040.8 201.177 1046.56 Z" fill="#000000" fill-rule="nonzero" fill-opacity="1" /><path clip-path="url(#clip590)" d="M237.311 1019.01 Q233.7 1019.01 231.871 1022.58 Q230.066 1026.12 230.066 1033.25 Q230.066 1040.36 231.871 1043.92 Q233.7 1047.46 237.311 1047.46 Q240.945 1047.46 242.751 1043.92 Q244.58 1040.36 244.58 1033.25 Q244.58 1026.12 242.751 1022.58 Q240.945 1019.01 237.311 1019.01 M237.311 1015.31 Q243.121 1015.31 246.177 1019.92 Q249.255 1024.5 249.255 1033.25 Q249.255 1041.98 246.177 1046.58 Q243.121 1051.17 237.311 1051.17 Q231.501 1051.17 228.422 1046.58 Q225.367 1041.98 225.367 1033.25 Q225.367 1024.5 228.422 1019.92 Q231.501 1015.31 237.311 1015.31 Z" fill="#000000" fill-rule="nonzero" fill-opacity="1" /><path clip-path="url(#clip590)" d="M211.316 703.944 Q214.672 704.662 216.547 706.93 Q218.445 709.199 218.445 712.532 Q218.445 717.648 214.927 720.449 Q211.408 723.249 204.927 723.249 Q202.751 723.249 200.436 722.81 Q198.145 722.393 195.691 721.537 L195.691 717.023 Q197.635 718.157 199.95 718.736 Q202.265 719.314 204.788 719.314 Q209.186 719.314 211.478 717.578 Q213.793 715.842 213.793 712.532 Q213.793 709.476 211.64 707.763 Q209.51 706.027 205.691 706.027 L201.663 706.027 L201.663 702.185 L205.876 702.185 Q209.325 702.185 211.154 700.819 Q212.982 699.43 212.982 696.838 Q212.982 694.176 211.084 692.764 Q209.209 691.328 205.691 691.328 Q203.77 691.328 201.57 691.745 Q199.371 692.162 196.733 693.041 L196.733 688.875 Q199.395 688.134 201.709 687.764 Q204.047 687.393 206.108 687.393 Q211.432 687.393 214.533 689.824 Q217.635 692.231 217.635 696.351 Q217.635 699.222 215.992 701.213 Q214.348 703.18 211.316 703.944 Z" fill="#000000" fill-rule="nonzero" fill-opacity="1" /><path clip-path="url(#clip590)" d="M237.311 691.097 Q233.7 691.097 231.871 694.662 Q230.066 698.203 230.066 705.333 Q230.066 712.439 231.871 716.004 Q233.7 719.546 237.311 719.546 Q240.945 719.546 242.751 716.004 Q244.58 712.439 244.58 705.333 Q244.58 698.203 242.751 694.662 Q240.945 691.097 237.311 691.097 M237.311 687.393 Q243.121 687.393 246.177 692 Q249.255 696.583 249.255 705.333 Q249.255 714.06 246.177 718.666 Q243.121 723.249 237.311 723.249 Q231.501 723.249 228.422 718.666 Q225.367 714.06 225.367 705.333 Q225.367 696.583 228.422 692 Q231.501 687.393 237.311 687.393 Z" fill="#000000" fill-rule="nonzero" fill-opacity="1" /><path clip-path="url(#clip590)" d="M209.996 364.175 L198.191 382.624 L209.996 382.624 L209.996 364.175 M208.77 360.101 L214.649 360.101 L214.649 382.624 L219.58 382.624 L219.58 386.513 L214.649 386.513 L214.649 394.661 L209.996 394.661 L209.996 386.513 L194.395 386.513 L194.395 381.999 L208.77 360.101 Z" fill="#000000" fill-rule="nonzero" fill-opacity="1" /><path clip-path="url(#clip590)" d="M237.311 363.179 Q233.7 363.179 231.871 366.744 Q230.066 370.286 230.066 377.415 Q230.066 384.522 231.871 388.087 Q233.7 391.628 237.311 391.628 Q240.945 391.628 242.751 388.087 Q244.58 384.522 244.58 377.415 Q244.58 370.286 242.751 366.744 Q240.945 363.179 237.311 363.179 M237.311 359.476 Q243.121 359.476 246.177 364.082 Q249.255 368.665 249.255 377.415 Q249.255 386.142 246.177 390.749 Q243.121 395.332 237.311 395.332 Q231.501 395.332 228.422 390.749 Q225.367 386.142 225.367 377.415 Q225.367 368.665 228.422 364.082 Q231.501 359.476 237.311 359.476 Z" fill="#000000" fill-rule="nonzero" fill-opacity="1" /><path clip-path="url(#clip590)" d="M95.9021 1122.14 L132.855 1122.14 L132.855 1114.38 Q132.855 1104.54 128.399 1099.99 Q123.943 1095.41 114.331 1095.41 Q104.782 1095.41 100.358 1099.99 Q95.9021 1104.54 95.9021 1114.38 L95.9021 1122.14 M90.6186 1128.57 L90.6186 1115.36 Q90.6186 1101.55 96.3796 1095.09 Q102.109 1088.63 114.331 1088.63 Q126.617 1088.63 132.378 1095.12 Q138.139 1101.61 138.139 1115.36 L138.139 1128.57 L90.6186 1128.57 Z" fill="#000000" fill-rule="nonzero" fill-opacity="1" /><path clip-path="url(#clip590)" d="M120.219 1062.43 Q120.219 1069.53 121.842 1072.27 Q123.466 1075 127.381 1075 Q130.5 1075 132.346 1072.97 Q134.16 1070.9 134.16 1067.37 Q134.16 1062.5 130.723 1059.57 Q127.253 1056.61 121.524 1056.61 L120.219 1056.61 L120.219 1062.43 M117.8 1050.75 L138.139 1050.75 L138.139 1056.61 L132.728 1056.61 Q135.974 1058.61 137.534 1061.61 Q139.062 1064.6 139.062 1068.93 Q139.062 1074.4 136.006 1077.65 Q132.919 1080.86 127.762 1080.86 Q121.747 1080.86 118.691 1076.85 Q115.636 1072.81 115.636 1064.82 L115.636 1056.61 L115.063 1056.61 Q111.021 1056.61 108.825 1059.28 Q106.597 1061.92 106.597 1066.73 Q106.597 1069.79 107.329 1072.68 Q108.061 1075.58 109.525 1078.25 L104.114 1078.25 Q102.873 1075.04 102.268 1072.01 Q101.631 1068.99 101.631 1066.12 Q101.631 1058.39 105.642 1054.57 Q109.652 1050.75 117.8 1050.75 Z" fill="#000000" fill-rule="nonzero" fill-opacity="1" /><path clip-path="url(#clip590)" d="M109.334 1010.93 Q105.387 1008.74 103.509 1005.68 Q101.631 1002.63 101.631 998.489 Q101.631 992.919 105.546 989.895 Q109.429 986.872 116.623 986.872 L138.139 986.872 L138.139 992.76 L116.813 992.76 Q111.689 992.76 109.206 994.574 Q106.724 996.388 106.724 1000.11 Q106.724 1004.66 109.748 1007.31 Q112.771 1009.95 117.991 1009.95 L138.139 1009.95 L138.139 1015.84 L116.813 1015.84 Q111.657 1015.84 109.206 1017.65 Q106.724 1019.46 106.724 1023.25 Q106.724 1027.74 109.779 1030.38 Q112.803 1033.02 117.991 1033.02 L138.139 1033.02 L138.139 1038.91 L102.491 1038.91 L102.491 1033.02 L108.029 1033.02 Q104.75 1031.02 103.191 1028.22 Q101.631 1025.42 101.631 1021.56 Q101.631 1017.68 103.605 1014.98 Q105.578 1012.24 109.334 1010.93 Z" fill="#000000" fill-rule="nonzero" fill-opacity="1" /><path clip-path="url(#clip590)" d="M120.219 958.99 Q120.219 966.088 121.842 968.825 Q123.466 971.562 127.381 971.562 Q130.5 971.562 132.346 969.525 Q134.16 967.456 134.16 963.923 Q134.16 959.054 130.723 956.125 Q127.253 953.165 121.524 953.165 L120.219 953.165 L120.219 958.99 M117.8 947.309 L138.139 947.309 L138.139 953.165 L132.728 953.165 Q135.974 955.17 137.534 958.162 Q139.062 961.154 139.062 965.483 Q139.062 970.957 136.006 974.204 Q132.919 977.419 127.762 977.419 Q121.747 977.419 118.691 973.408 Q115.636 969.366 115.636 961.377 L115.636 953.165 L115.063 953.165 Q111.021 953.165 108.825 955.839 Q106.597 958.481 106.597 963.287 Q106.597 966.342 107.329 969.239 Q108.061 972.135 109.525 974.809 L104.114 974.809 Q102.873 971.594 102.268 968.57 Q101.631 965.547 101.631 962.682 Q101.631 954.948 105.642 951.128 Q109.652 947.309 117.8 947.309 Z" fill="#000000" fill-rule="nonzero" fill-opacity="1" /><path clip-path="url(#clip590)" d="M119.901 911.788 Q113.535 911.788 110.034 914.43 Q106.533 917.04 106.533 921.782 Q106.533 926.493 110.034 929.135 Q113.535 931.745 119.901 931.745 Q126.235 931.745 129.736 929.135 Q133.237 926.493 133.237 921.782 Q133.237 917.04 129.736 914.43 Q126.235 911.788 119.901 911.788 M133.714 905.932 Q142.817 905.932 147.242 909.974 Q151.698 914.016 151.698 922.355 Q151.698 925.443 151.22 928.18 Q150.775 930.917 149.82 933.495 L144.122 933.495 Q145.523 930.917 146.191 928.403 Q146.86 925.888 146.86 923.278 Q146.86 917.517 143.836 914.653 Q140.844 911.788 134.765 911.788 L131.868 911.788 Q135.019 913.602 136.579 916.435 Q138.139 919.268 138.139 923.215 Q138.139 929.771 133.142 933.782 Q128.144 937.792 119.901 937.792 Q111.625 937.792 106.628 933.782 Q101.631 929.771 101.631 923.215 Q101.631 919.268 103.191 916.435 Q104.75 913.602 107.901 911.788 L102.491 911.788 L102.491 905.932 L133.714 905.932 Z" fill="#000000" fill-rule="nonzero" fill-opacity="1" /><path clip-path="url(#clip590)" d="M118.851 863.377 L121.715 863.377 L121.715 890.304 Q127.762 889.922 130.945 886.675 Q134.096 883.397 134.096 877.572 Q134.096 874.199 133.269 871.048 Q132.441 867.865 130.786 864.746 L136.324 864.746 Q137.661 867.897 138.361 871.207 Q139.062 874.517 139.062 877.923 Q139.062 886.453 134.096 891.45 Q129.131 896.415 120.665 896.415 Q111.912 896.415 106.787 891.704 Q101.631 886.962 101.631 878.941 Q101.631 871.748 106.278 867.578 Q110.893 863.377 118.851 863.377 M117.132 869.233 Q112.326 869.297 109.461 871.939 Q106.597 874.549 106.597 878.877 Q106.597 883.779 109.366 886.739 Q112.135 889.667 117.164 890.113 L117.132 869.233 Z" fill="#000000" fill-rule="nonzero" fill-opacity="1" /><path clip-path="url(#clip590)" d="M88.6771 818.976 Q95.9976 823.241 103.159 825.31 Q110.32 827.379 117.673 827.379 Q125.025 827.379 132.25 825.31 Q139.444 823.209 146.732 818.976 L146.732 824.069 Q139.253 828.843 132.028 831.23 Q124.802 833.585 117.673 833.585 Q110.575 833.585 103.382 831.23 Q96.1886 828.875 88.6771 824.069 L88.6771 818.976 Z" fill="#000000" fill-rule="nonzero" fill-opacity="1" /><path clip-path="url(#clip590)" d="M117.227 766.364 Q117.227 769.133 119.583 770.724 Q121.938 772.284 126.139 772.284 Q130.277 772.284 132.664 770.724 Q135.019 769.133 135.019 766.364 Q135.019 763.658 132.664 762.099 Q130.277 760.507 126.139 760.507 Q121.97 760.507 119.614 762.099 Q117.227 763.658 117.227 766.364 M113.185 766.364 Q113.185 761.335 116.686 758.375 Q120.187 755.415 126.139 755.415 Q132.091 755.415 135.592 758.406 Q139.062 761.367 139.062 766.364 Q139.062 771.456 135.592 774.416 Q132.091 777.376 126.139 777.376 Q120.155 777.376 116.686 774.416 Q113.185 771.424 113.185 766.364 M93.8015 799.211 Q93.8015 801.948 96.1886 803.539 Q98.5439 805.099 102.682 805.099 Q106.883 805.099 109.238 803.539 Q111.594 801.98 111.594 799.211 Q111.594 796.442 109.238 794.882 Q106.883 793.291 102.682 793.291 Q98.5757 793.291 96.1886 794.882 Q93.8015 796.473 93.8015 799.211 M89.7592 770.469 L89.7592 765.377 L139.062 795.105 L139.062 800.197 L89.7592 770.469 M89.7592 799.211 Q89.7592 794.182 93.2604 791.19 Q96.7297 788.198 102.682 788.198 Q108.697 788.198 112.167 791.19 Q115.636 794.15 115.636 799.211 Q115.636 804.271 112.167 807.231 Q108.665 810.16 102.682 810.16 Q96.7615 810.16 93.2604 807.2 Q89.7592 804.24 89.7592 799.211 Z" fill="#000000" fill-rule="nonzero" fill-opacity="1" /><path clip-path="url(#clip590)" d="M88.6771 746.598 L88.6771 741.506 Q96.1886 736.731 103.382 734.376 Q110.575 731.989 117.673 731.989 Q124.802 731.989 132.028 734.376 Q139.253 736.731 146.732 741.506 L146.732 746.598 Q139.444 742.365 132.25 740.296 Q125.025 738.195 117.673 738.195 Q110.32 738.195 103.159 740.296 Q95.9976 742.365 88.6771 746.598 Z" fill="#000000" fill-rule="nonzero" fill-opacity="1" /><circle clip-path="url(#clip592)" cx="626.326" cy="1600.3" r="14.4" fill="#009af9" fill-rule="evenodd" fill-opacity="1" stroke="#000000" stroke-opacity="1" stroke-width="4"/>
<circle clip-path="url(#clip592)" cx="597.804" cy="1626.79" r="14.4" fill="#009af9" fill-rule="evenodd" fill-opacity="1" stroke="#000000" stroke-opacity="1" stroke-width="4"/>
<circle clip-path="url(#clip592)" cx="916.596" cy="963.889" r="14.4" fill="#009af9" fill-rule="evenodd" fill-opacity="1" stroke="#000000" stroke-opacity="1" stroke-width="4"/>
<circle clip-path="url(#clip592)" cx="979.634" cy="893.627" r="14.4" fill="#009af9" fill-rule="evenodd" fill-opacity="1" stroke="#000000" stroke-opacity="1" stroke-width="4"/>
<circle clip-path="url(#clip592)" cx="861.814" cy="1065.82" r="14.4" fill="#009af9" fill-rule="evenodd" fill-opacity="1" stroke="#000000" stroke-opacity="1" stroke-width="4"/>
<circle clip-path="url(#clip592)" cx="742.669" cy="1419.95" r="14.4" fill="#009af9" fill-rule="evenodd" fill-opacity="1" stroke="#000000" stroke-opacity="1" stroke-width="4"/>
<circle clip-path="url(#clip592)" cx="520.773" cy="1689.05" r="14.4" fill="#009af9" fill-rule="evenodd" fill-opacity="1" stroke="#000000" stroke-opacity="1" stroke-width="4"/>
<circle clip-path="url(#clip592)" cx="969.114" cy="905.353" r="14.4" fill="#009af9" fill-rule="evenodd" fill-opacity="1" stroke="#000000" stroke-opacity="1" stroke-width="4"/>
<circle clip-path="url(#clip592)" cx="731.893" cy="1451.97" r="14.4" fill="#009af9" fill-rule="evenodd" fill-opacity="1" stroke="#000000" stroke-opacity="1" stroke-width="4"/>
<circle clip-path="url(#clip592)" cx="961.894" cy="913.4" r="14.4" fill="#009af9" fill-rule="evenodd" fill-opacity="1" stroke="#000000" stroke-opacity="1" stroke-width="4"/>
<circle clip-path="url(#clip592)" cx="981.608" cy="891.427" r="14.4" fill="#009af9" fill-rule="evenodd" fill-opacity="1" stroke="#000000" stroke-opacity="1" stroke-width="4"/>
<circle clip-path="url(#clip592)" cx="731.179" cy="1454.1" r="14.4" fill="#009af9" fill-rule="evenodd" fill-opacity="1" stroke="#000000" stroke-opacity="1" stroke-width="4"/>
<circle clip-path="url(#clip592)" cx="617.705" cy="1608.3" r="14.4" fill="#009af9" fill-rule="evenodd" fill-opacity="1" stroke="#000000" stroke-opacity="1" stroke-width="4"/>
<circle clip-path="url(#clip592)" cx="816.735" cy="1199.8" r="14.4" fill="#009af9" fill-rule="evenodd" fill-opacity="1" stroke="#000000" stroke-opacity="1" stroke-width="4"/>
<circle clip-path="url(#clip592)" cx="1080.33" cy="788.819" r="14.4" fill="#009af9" fill-rule="evenodd" fill-opacity="1" stroke="#000000" stroke-opacity="1" stroke-width="4"/>
<circle clip-path="url(#clip592)" cx="1269" cy="654.595" r="14.4" fill="#009af9" fill-rule="evenodd" fill-opacity="1" stroke="#000000" stroke-opacity="1" stroke-width="4"/>
<circle clip-path="url(#clip592)" cx="510.992" cy="1689.05" r="14.4" fill="#009af9" fill-rule="evenodd" fill-opacity="1" stroke="#000000" stroke-opacity="1" stroke-width="4"/>
<circle clip-path="url(#clip592)" cx="1025.19" cy="842.852" r="14.4" fill="#009af9" fill-rule="evenodd" fill-opacity="1" stroke="#000000" stroke-opacity="1" stroke-width="4"/>
<circle clip-path="url(#clip592)" cx="2606.58" cy="171.51" r="14.4" fill="#009af9" fill-rule="evenodd" fill-opacity="1" stroke="#000000" stroke-opacity="1" stroke-width="4"/>
<circle clip-path="url(#clip592)" cx="2284.65" cy="316.016" r="14.4" fill="#009af9" fill-rule="evenodd" fill-opacity="1" stroke="#000000" stroke-opacity="1" stroke-width="4"/>
<circle clip-path="url(#clip592)" cx="736.199" cy="1439.17" r="14.4" fill="#009af9" fill-rule="evenodd" fill-opacity="1" stroke="#000000" stroke-opacity="1" stroke-width="4"/>
<circle clip-path="url(#clip592)" cx="438.157" cy="1689.05" r="14.4" fill="#009af9" fill-rule="evenodd" fill-opacity="1" stroke="#000000" stroke-opacity="1" stroke-width="4"/>
<circle clip-path="url(#clip592)" cx="792.77" cy="1271.03" r="14.4" fill="#009af9" fill-rule="evenodd" fill-opacity="1" stroke="#000000" stroke-opacity="1" stroke-width="4"/>
<circle clip-path="url(#clip592)" cx="498.067" cy="1689.05" r="14.4" fill="#009af9" fill-rule="evenodd" fill-opacity="1" stroke="#000000" stroke-opacity="1" stroke-width="4"/>
<circle clip-path="url(#clip592)" cx="537.199" cy="1683.08" r="14.4" fill="#009af9" fill-rule="evenodd" fill-opacity="1" stroke="#000000" stroke-opacity="1" stroke-width="4"/>
<circle clip-path="url(#clip592)" cx="656.836" cy="1571.96" r="14.4" fill="#009af9" fill-rule="evenodd" fill-opacity="1" stroke="#000000" stroke-opacity="1" stroke-width="4"/>
<circle clip-path="url(#clip592)" cx="1674.69" cy="444.261" r="14.4" fill="#009af9" fill-rule="evenodd" fill-opacity="1" stroke="#000000" stroke-opacity="1" stroke-width="4"/>
<circle clip-path="url(#clip592)" cx="917.222" cy="963.19" r="14.4" fill="#009af9" fill-rule="evenodd" fill-opacity="1" stroke="#000000" stroke-opacity="1" stroke-width="4"/>
<circle clip-path="url(#clip592)" cx="1506.02" cy="522.509" r="14.4" fill="#009af9" fill-rule="evenodd" fill-opacity="1" stroke="#000000" stroke-opacity="1" stroke-width="4"/>
<circle clip-path="url(#clip592)" cx="633.812" cy="1593.34" r="14.4" fill="#009af9" fill-rule="evenodd" fill-opacity="1" stroke="#000000" stroke-opacity="1" stroke-width="4"/>
<circle clip-path="url(#clip592)" cx="1113.25" cy="764.359" r="14.4" fill="#009af9" fill-rule="evenodd" fill-opacity="1" stroke="#000000" stroke-opacity="1" stroke-width="4"/>
<circle clip-path="url(#clip592)" cx="444.14" cy="1689.05" r="14.4" fill="#009af9" fill-rule="evenodd" fill-opacity="1" stroke="#000000" stroke-opacity="1" stroke-width="4"/>
<circle clip-path="url(#clip592)" cx="372.294" cy="1689.05" r="14.4" fill="#009af9" fill-rule="evenodd" fill-opacity="1" stroke="#000000" stroke-opacity="1" stroke-width="4"/>
<circle clip-path="url(#clip592)" cx="524.611" cy="1689.05" r="14.4" fill="#009af9" fill-rule="evenodd" fill-opacity="1" stroke="#000000" stroke-opacity="1" stroke-width="4"/>
<circle clip-path="url(#clip592)" cx="822.42" cy="1182.91" r="14.4" fill="#009af9" fill-rule="evenodd" fill-opacity="1" stroke="#000000" stroke-opacity="1" stroke-width="4"/>
<circle clip-path="url(#clip592)" cx="1458.83" cy="548.805" r="14.4" fill="#009af9" fill-rule="evenodd" fill-opacity="1" stroke="#000000" stroke-opacity="1" stroke-width="4"/>
<circle clip-path="url(#clip592)" cx="542.587" cy="1678.07" r="14.4" fill="#009af9" fill-rule="evenodd" fill-opacity="1" stroke="#000000" stroke-opacity="1" stroke-width="4"/>
<circle clip-path="url(#clip592)" cx="743.441" cy="1417.65" r="14.4" fill="#009af9" fill-rule="evenodd" fill-opacity="1" stroke="#000000" stroke-opacity="1" stroke-width="4"/>
<circle clip-path="url(#clip592)" cx="547.76" cy="1673.27" r="14.4" fill="#009af9" fill-rule="evenodd" fill-opacity="1" stroke="#000000" stroke-opacity="1" stroke-width="4"/>
<circle clip-path="url(#clip592)" cx="517.798" cy="1689.05" r="14.4" fill="#009af9" fill-rule="evenodd" fill-opacity="1" stroke="#000000" stroke-opacity="1" stroke-width="4"/>
<circle clip-path="url(#clip592)" cx="692.099" cy="1539.2" r="14.4" fill="#009af9" fill-rule="evenodd" fill-opacity="1" stroke="#000000" stroke-opacity="1" stroke-width="4"/>
<circle clip-path="url(#clip592)" cx="1092.49" cy="779.787" r="14.4" fill="#009af9" fill-rule="evenodd" fill-opacity="1" stroke="#000000" stroke-opacity="1" stroke-width="4"/>
<circle clip-path="url(#clip592)" cx="1219.57" cy="685.355" r="14.4" fill="#009af9" fill-rule="evenodd" fill-opacity="1" stroke="#000000" stroke-opacity="1" stroke-width="4"/>
<circle clip-path="url(#clip592)" cx="551.555" cy="1669.74" r="14.4" fill="#009af9" fill-rule="evenodd" fill-opacity="1" stroke="#000000" stroke-opacity="1" stroke-width="4"/>
<circle clip-path="url(#clip592)" cx="1027.91" cy="839.82" r="14.4" fill="#009af9" fill-rule="evenodd" fill-opacity="1" stroke="#000000" stroke-opacity="1" stroke-width="4"/>
<circle clip-path="url(#clip592)" cx="703.452" cy="1528.66" r="14.4" fill="#009af9" fill-rule="evenodd" fill-opacity="1" stroke="#000000" stroke-opacity="1" stroke-width="4"/>
<circle clip-path="url(#clip592)" cx="959.084" cy="916.533" r="14.4" fill="#009af9" fill-rule="evenodd" fill-opacity="1" stroke="#000000" stroke-opacity="1" stroke-width="4"/>
<circle clip-path="url(#clip592)" cx="457.045" cy="1689.05" r="14.4" fill="#009af9" fill-rule="evenodd" fill-opacity="1" stroke="#000000" stroke-opacity="1" stroke-width="4"/>
<circle clip-path="url(#clip592)" cx="945.894" cy="931.234" r="14.4" fill="#009af9" fill-rule="evenodd" fill-opacity="1" stroke="#000000" stroke-opacity="1" stroke-width="4"/>
<circle clip-path="url(#clip592)" cx="755.964" cy="1380.43" r="14.4" fill="#009af9" fill-rule="evenodd" fill-opacity="1" stroke="#000000" stroke-opacity="1" stroke-width="4"/>
<circle clip-path="url(#clip592)" cx="1485.22" cy="534.099" r="14.4" fill="#009af9" fill-rule="evenodd" fill-opacity="1" stroke="#000000" stroke-opacity="1" stroke-width="4"/>
<circle clip-path="url(#clip592)" cx="910.188" cy="971.031" r="14.4" fill="#009af9" fill-rule="evenodd" fill-opacity="1" stroke="#000000" stroke-opacity="1" stroke-width="4"/>
<circle clip-path="url(#clip592)" cx="847.519" cy="1108.31" r="14.4" fill="#009af9" fill-rule="evenodd" fill-opacity="1" stroke="#000000" stroke-opacity="1" stroke-width="4"/>
<circle clip-path="url(#clip592)" cx="910.84" cy="970.305" r="14.4" fill="#009af9" fill-rule="evenodd" fill-opacity="1" stroke="#000000" stroke-opacity="1" stroke-width="4"/>
<circle clip-path="url(#clip592)" cx="857.132" cy="1079.74" r="14.4" fill="#009af9" fill-rule="evenodd" fill-opacity="1" stroke="#000000" stroke-opacity="1" stroke-width="4"/>
<circle clip-path="url(#clip592)" cx="391.249" cy="1689.05" r="14.4" fill="#009af9" fill-rule="evenodd" fill-opacity="1" stroke="#000000" stroke-opacity="1" stroke-width="4"/>
<circle clip-path="url(#clip592)" cx="1247.99" cy="666.309" r="14.4" fill="#009af9" fill-rule="evenodd" fill-opacity="1" stroke="#000000" stroke-opacity="1" stroke-width="4"/>
<circle clip-path="url(#clip592)" cx="602.557" cy="1622.37" r="14.4" fill="#009af9" fill-rule="evenodd" fill-opacity="1" stroke="#000000" stroke-opacity="1" stroke-width="4"/>
<circle clip-path="url(#clip592)" cx="893.536" cy="989.591" r="14.4" fill="#009af9" fill-rule="evenodd" fill-opacity="1" stroke="#000000" stroke-opacity="1" stroke-width="4"/>
<circle clip-path="url(#clip592)" cx="1412.35" cy="574.71" r="14.4" fill="#009af9" fill-rule="evenodd" fill-opacity="1" stroke="#000000" stroke-opacity="1" stroke-width="4"/>
<circle clip-path="url(#clip592)" cx="726.984" cy="1466.56" r="14.4" fill="#009af9" fill-rule="evenodd" fill-opacity="1" stroke="#000000" stroke-opacity="1" stroke-width="4"/>
<circle clip-path="url(#clip592)" cx="1770.31" cy="409.452" r="14.4" fill="#009af9" fill-rule="evenodd" fill-opacity="1" stroke="#000000" stroke-opacity="1" stroke-width="4"/>
<circle clip-path="url(#clip592)" cx="799.627" cy="1250.65" r="14.4" fill="#009af9" fill-rule="evenodd" fill-opacity="1" stroke="#000000" stroke-opacity="1" stroke-width="4"/>
<circle clip-path="url(#clip592)" cx="421.351" cy="1689.05" r="14.4" fill="#009af9" fill-rule="evenodd" fill-opacity="1" stroke="#000000" stroke-opacity="1" stroke-width="4"/>
<circle clip-path="url(#clip592)" cx="811.174" cy="1216.33" r="14.4" fill="#009af9" fill-rule="evenodd" fill-opacity="1" stroke="#000000" stroke-opacity="1" stroke-width="4"/>
<circle clip-path="url(#clip592)" cx="456.754" cy="1689.05" r="14.4" fill="#009af9" fill-rule="evenodd" fill-opacity="1" stroke="#000000" stroke-opacity="1" stroke-width="4"/>
<circle clip-path="url(#clip592)" cx="630.692" cy="1596.24" r="14.4" fill="#009af9" fill-rule="evenodd" fill-opacity="1" stroke="#000000" stroke-opacity="1" stroke-width="4"/>
<circle clip-path="url(#clip592)" cx="795.546" cy="1262.78" r="14.4" fill="#009af9" fill-rule="evenodd" fill-opacity="1" stroke="#000000" stroke-opacity="1" stroke-width="4"/>
<circle clip-path="url(#clip592)" cx="679.228" cy="1551.16" r="14.4" fill="#009af9" fill-rule="evenodd" fill-opacity="1" stroke="#000000" stroke-opacity="1" stroke-width="4"/>
<circle clip-path="url(#clip592)" cx="1453.27" cy="551.907" r="14.4" fill="#009af9" fill-rule="evenodd" fill-opacity="1" stroke="#000000" stroke-opacity="1" stroke-width="4"/>
<circle clip-path="url(#clip592)" cx="1545.48" cy="500.517" r="14.4" fill="#009af9" fill-rule="evenodd" fill-opacity="1" stroke="#000000" stroke-opacity="1" stroke-width="4"/>
<circle clip-path="url(#clip592)" cx="525.743" cy="1689.05" r="14.4" fill="#009af9" fill-rule="evenodd" fill-opacity="1" stroke="#000000" stroke-opacity="1" stroke-width="4"/>
<circle clip-path="url(#clip592)" cx="727.397" cy="1465.34" r="14.4" fill="#009af9" fill-rule="evenodd" fill-opacity="1" stroke="#000000" stroke-opacity="1" stroke-width="4"/>
<circle clip-path="url(#clip592)" cx="985.445" cy="887.151" r="14.4" fill="#009af9" fill-rule="evenodd" fill-opacity="1" stroke="#000000" stroke-opacity="1" stroke-width="4"/>
<circle clip-path="url(#clip592)" cx="529.474" cy="1689.05" r="14.4" fill="#009af9" fill-rule="evenodd" fill-opacity="1" stroke="#000000" stroke-opacity="1" stroke-width="4"/>
<circle clip-path="url(#clip592)" cx="564.097" cy="1658.09" r="14.4" fill="#009af9" fill-rule="evenodd" fill-opacity="1" stroke="#000000" stroke-opacity="1" stroke-width="4"/>
<circle clip-path="url(#clip592)" cx="868.545" cy="1045.82" r="14.4" fill="#009af9" fill-rule="evenodd" fill-opacity="1" stroke="#000000" stroke-opacity="1" stroke-width="4"/>
<circle clip-path="url(#clip592)" cx="693.766" cy="1537.66" r="14.4" fill="#009af9" fill-rule="evenodd" fill-opacity="1" stroke="#000000" stroke-opacity="1" stroke-width="4"/>
<circle clip-path="url(#clip592)" cx="1047.55" cy="817.926" r="14.4" fill="#009af9" fill-rule="evenodd" fill-opacity="1" stroke="#000000" stroke-opacity="1" stroke-width="4"/>
<circle clip-path="url(#clip592)" cx="549.77" cy="1671.4" r="14.4" fill="#009af9" fill-rule="evenodd" fill-opacity="1" stroke="#000000" stroke-opacity="1" stroke-width="4"/>
<circle clip-path="url(#clip592)" cx="919.331" cy="960.84" r="14.4" fill="#009af9" fill-rule="evenodd" fill-opacity="1" stroke="#000000" stroke-opacity="1" stroke-width="4"/>
<circle clip-path="url(#clip592)" cx="635.762" cy="1591.53" r="14.4" fill="#009af9" fill-rule="evenodd" fill-opacity="1" stroke="#000000" stroke-opacity="1" stroke-width="4"/>
<circle clip-path="url(#clip592)" cx="396.886" cy="1689.05" r="14.4" fill="#009af9" fill-rule="evenodd" fill-opacity="1" stroke="#000000" stroke-opacity="1" stroke-width="4"/>
<circle clip-path="url(#clip592)" cx="1236.92" cy="672.476" r="14.4" fill="#009af9" fill-rule="evenodd" fill-opacity="1" stroke="#000000" stroke-opacity="1" stroke-width="4"/>
<circle clip-path="url(#clip592)" cx="1172.44" cy="720.374" r="14.4" fill="#009af9" fill-rule="evenodd" fill-opacity="1" stroke="#000000" stroke-opacity="1" stroke-width="4"/>
<circle clip-path="url(#clip592)" cx="744.793" cy="1413.63" r="14.4" fill="#009af9" fill-rule="evenodd" fill-opacity="1" stroke="#000000" stroke-opacity="1" stroke-width="4"/>
<circle clip-path="url(#clip592)" cx="688.736" cy="1542.33" r="14.4" fill="#009af9" fill-rule="evenodd" fill-opacity="1" stroke="#000000" stroke-opacity="1" stroke-width="4"/>
<circle clip-path="url(#clip592)" cx="539.218" cy="1681.2" r="14.4" fill="#009af9" fill-rule="evenodd" fill-opacity="1" stroke="#000000" stroke-opacity="1" stroke-width="4"/>
<circle clip-path="url(#clip592)" cx="764.957" cy="1353.7" r="14.4" fill="#009af9" fill-rule="evenodd" fill-opacity="1" stroke="#000000" stroke-opacity="1" stroke-width="4"/>
<circle clip-path="url(#clip592)" cx="791.844" cy="1273.79" r="14.4" fill="#009af9" fill-rule="evenodd" fill-opacity="1" stroke="#000000" stroke-opacity="1" stroke-width="4"/>
<circle clip-path="url(#clip592)" cx="546.609" cy="1674.34" r="14.4" fill="#009af9" fill-rule="evenodd" fill-opacity="1" stroke="#000000" stroke-opacity="1" stroke-width="4"/>
<circle clip-path="url(#clip592)" cx="2024.15" cy="377.381" r="14.4" fill="#009af9" fill-rule="evenodd" fill-opacity="1" stroke="#000000" stroke-opacity="1" stroke-width="4"/>
<circle clip-path="url(#clip592)" cx="659.647" cy="1569.35" r="14.4" fill="#009af9" fill-rule="evenodd" fill-opacity="1" stroke="#000000" stroke-opacity="1" stroke-width="4"/>
<circle clip-path="url(#clip592)" cx="651.704" cy="1576.72" r="14.4" fill="#009af9" fill-rule="evenodd" fill-opacity="1" stroke="#000000" stroke-opacity="1" stroke-width="4"/>
<circle clip-path="url(#clip592)" cx="920.962" cy="959.022" r="14.4" fill="#009af9" fill-rule="evenodd" fill-opacity="1" stroke="#000000" stroke-opacity="1" stroke-width="4"/>
<circle clip-path="url(#clip592)" cx="465.59" cy="1689.05" r="14.4" fill="#009af9" fill-rule="evenodd" fill-opacity="1" stroke="#000000" stroke-opacity="1" stroke-width="4"/>
<circle clip-path="url(#clip592)" cx="1443.49" cy="557.358" r="14.4" fill="#009af9" fill-rule="evenodd" fill-opacity="1" stroke="#000000" stroke-opacity="1" stroke-width="4"/>
<circle clip-path="url(#clip592)" cx="1453.25" cy="551.919" r="14.4" fill="#009af9" fill-rule="evenodd" fill-opacity="1" stroke="#000000" stroke-opacity="1" stroke-width="4"/>
<circle clip-path="url(#clip592)" cx="358.692" cy="1689.05" r="14.4" fill="#009af9" fill-rule="evenodd" fill-opacity="1" stroke="#000000" stroke-opacity="1" stroke-width="4"/>
<circle clip-path="url(#clip592)" cx="1377.21" cy="594.296" r="14.4" fill="#009af9" fill-rule="evenodd" fill-opacity="1" stroke="#000000" stroke-opacity="1" stroke-width="4"/>
<path clip-path="url(#clip590)" d="M1393.26 1680.96 L2594.59 1680.96 L2594.59 1577.28 L1393.26 1577.28  Z" fill="#ffffff" fill-rule="evenodd" fill-opacity="1"/>
<polyline clip-path="url(#clip590)" style="stroke:#000000; stroke-linecap:round; stroke-linejoin:round; stroke-width:4; stroke-opacity:1; fill:none" points="1393.26,1680.96 2594.59,1680.96 2594.59,1577.28 1393.26,1577.28 1393.26,1680.96 "/>
<circle clip-path="url(#clip590)" cx="1499.16" cy="1629.12" r="20.48" fill="#009af9" fill-rule="evenodd" fill-opacity="1" stroke="#000000" stroke-opacity="1" stroke-width="5.68889"/>
<path clip-path="url(#clip590)" d="M1605.74 1642.46 L1613.38 1642.46 L1613.38 1616.1 L1605.06 1617.76 L1605.06 1613.5 L1613.33 1611.84 L1618 1611.84 L1618 1642.46 L1625.64 1642.46 L1625.64 1646.4 L1605.74 1646.4 L1605.74 1642.46 Z" fill="#000000" fill-rule="nonzero" fill-opacity="1" /><path clip-path="url(#clip590)" d="M1645.09 1614.92 Q1641.48 1614.92 1639.65 1618.48 Q1637.84 1622.02 1637.84 1629.15 Q1637.84 1636.26 1639.65 1639.82 Q1641.48 1643.36 1645.09 1643.36 Q1648.72 1643.36 1650.53 1639.82 Q1652.36 1636.26 1652.36 1629.15 Q1652.36 1622.02 1650.53 1618.48 Q1648.72 1614.92 1645.09 1614.92 M1645.09 1611.21 Q1650.9 1611.21 1653.95 1615.82 Q1657.03 1620.4 1657.03 1629.15 Q1657.03 1637.88 1653.95 1642.49 Q1650.9 1647.07 1645.09 1647.07 Q1639.28 1647.07 1636.2 1642.49 Q1633.14 1637.88 1633.14 1629.15 Q1633.14 1620.4 1636.2 1615.82 Q1639.28 1611.21 1645.09 1611.21 Z" fill="#000000" fill-rule="nonzero" fill-opacity="1" /><path clip-path="url(#clip590)" d="M1675.25 1614.92 Q1671.64 1614.92 1669.81 1618.48 Q1668 1622.02 1668 1629.15 Q1668 1636.26 1669.81 1639.82 Q1671.64 1643.36 1675.25 1643.36 Q1678.88 1643.36 1680.69 1639.82 Q1682.52 1636.26 1682.52 1629.15 Q1682.52 1622.02 1680.69 1618.48 Q1678.88 1614.92 1675.25 1614.92 M1675.25 1611.21 Q1681.06 1611.21 1684.12 1615.82 Q1687.19 1620.4 1687.19 1629.15 Q1687.19 1637.88 1684.12 1642.49 Q1681.06 1647.07 1675.25 1647.07 Q1669.44 1647.07 1666.36 1642.49 Q1663.31 1637.88 1663.31 1629.15 Q1663.31 1620.4 1666.36 1615.82 Q1669.44 1611.21 1675.25 1611.21 Z" fill="#000000" fill-rule="nonzero" fill-opacity="1" /><path clip-path="url(#clip590)" d="M1714.74 1615.68 L1714.74 1628.67 L1720.62 1628.67 Q1723.88 1628.67 1725.67 1626.98 Q1727.45 1625.29 1727.45 1622.16 Q1727.45 1619.06 1725.67 1617.37 Q1723.88 1615.68 1720.62 1615.68 L1714.74 1615.68 M1710.06 1611.84 L1720.62 1611.84 Q1726.43 1611.84 1729.39 1614.48 Q1732.38 1617.09 1732.38 1622.16 Q1732.38 1627.28 1729.39 1629.89 Q1726.43 1632.51 1720.62 1632.51 L1714.74 1632.51 L1714.74 1646.4 L1710.06 1646.4 L1710.06 1611.84 Z" fill="#000000" fill-rule="nonzero" fill-opacity="1" /><path clip-path="url(#clip590)" d="M1746.82 1623.46 Q1743.4 1623.46 1741.41 1626.14 Q1739.42 1628.8 1739.42 1633.46 Q1739.42 1638.11 1741.38 1640.8 Q1743.37 1643.46 1746.82 1643.46 Q1750.23 1643.46 1752.22 1640.77 Q1754.21 1638.09 1754.21 1633.46 Q1754.21 1628.85 1752.22 1626.17 Q1750.23 1623.46 1746.82 1623.46 M1746.82 1619.85 Q1752.38 1619.85 1755.55 1623.46 Q1758.72 1627.07 1758.72 1633.46 Q1758.72 1639.82 1755.55 1643.46 Q1752.38 1647.07 1746.82 1647.07 Q1741.24 1647.07 1738.07 1643.46 Q1734.93 1639.82 1734.93 1633.46 Q1734.93 1627.07 1738.07 1623.46 Q1741.24 1619.85 1746.82 1619.85 Z" fill="#000000" fill-rule="nonzero" fill-opacity="1" /><path clip-path="url(#clip590)" d="M1765.78 1620.47 L1770.04 1620.47 L1770.04 1646.4 L1765.78 1646.4 L1765.78 1620.47 M1765.78 1610.38 L1770.04 1610.38 L1770.04 1615.77 L1765.78 1615.77 L1765.78 1610.38 Z" fill="#000000" fill-rule="nonzero" fill-opacity="1" /><path clip-path="url(#clip590)" d="M1800.5 1630.75 L1800.5 1646.4 L1796.24 1646.4 L1796.24 1630.89 Q1796.24 1627.21 1794.81 1625.38 Q1793.37 1623.55 1790.5 1623.55 Q1787.05 1623.55 1785.06 1625.75 Q1783.07 1627.95 1783.07 1631.74 L1783.07 1646.4 L1778.79 1646.4 L1778.79 1620.47 L1783.07 1620.47 L1783.07 1624.5 Q1784.6 1622.16 1786.66 1621 Q1788.74 1619.85 1791.45 1619.85 Q1795.92 1619.85 1798.21 1622.62 Q1800.5 1625.38 1800.5 1630.75 Z" fill="#000000" fill-rule="nonzero" fill-opacity="1" /><path clip-path="url(#clip590)" d="M1813.21 1613.11 L1813.21 1620.47 L1821.99 1620.47 L1821.99 1623.78 L1813.21 1623.78 L1813.21 1637.86 Q1813.21 1641.03 1814.07 1641.93 Q1814.95 1642.83 1817.61 1642.83 L1821.99 1642.83 L1821.99 1646.4 L1817.61 1646.4 Q1812.68 1646.4 1810.8 1644.57 Q1808.93 1642.72 1808.93 1637.86 L1808.93 1623.78 L1805.8 1623.78 L1805.8 1620.47 L1808.93 1620.47 L1808.93 1613.11 L1813.21 1613.11 Z" fill="#000000" fill-rule="nonzero" fill-opacity="1" /><path clip-path="url(#clip590)" d="M1844.11 1621.24 L1844.11 1625.26 Q1842.31 1624.34 1840.36 1623.87 Q1838.42 1623.41 1836.34 1623.41 Q1833.17 1623.41 1831.57 1624.38 Q1829.99 1625.36 1829.99 1627.3 Q1829.99 1628.78 1831.13 1629.64 Q1832.26 1630.47 1835.69 1631.24 L1837.15 1631.56 Q1841.68 1632.53 1843.58 1634.31 Q1845.5 1636.07 1845.5 1639.24 Q1845.5 1642.86 1842.63 1644.96 Q1839.79 1647.07 1834.79 1647.07 Q1832.7 1647.07 1830.43 1646.65 Q1828.19 1646.26 1825.69 1645.45 L1825.69 1641.05 Q1828.05 1642.28 1830.34 1642.9 Q1832.63 1643.5 1834.88 1643.5 Q1837.89 1643.5 1839.51 1642.49 Q1841.13 1641.44 1841.13 1639.57 Q1841.13 1637.83 1839.95 1636.91 Q1838.79 1635.98 1834.83 1635.12 L1833.35 1634.78 Q1829.39 1633.94 1827.63 1632.23 Q1825.87 1630.49 1825.87 1627.49 Q1825.87 1623.83 1828.47 1621.84 Q1831.06 1619.85 1835.83 1619.85 Q1838.19 1619.85 1840.27 1620.19 Q1842.36 1620.54 1844.11 1621.24 Z" fill="#000000" fill-rule="nonzero" fill-opacity="1" /><path clip-path="url(#clip590)" d="M1883.88 1621.24 L1883.88 1625.26 Q1882.08 1624.34 1880.13 1623.87 Q1878.19 1623.41 1876.11 1623.41 Q1872.93 1623.41 1871.34 1624.38 Q1869.76 1625.36 1869.76 1627.3 Q1869.76 1628.78 1870.9 1629.64 Q1872.03 1630.47 1875.46 1631.24 L1876.92 1631.56 Q1881.45 1632.53 1883.35 1634.31 Q1885.27 1636.07 1885.27 1639.24 Q1885.27 1642.86 1882.4 1644.96 Q1879.55 1647.07 1874.55 1647.07 Q1872.47 1647.07 1870.2 1646.65 Q1867.96 1646.26 1865.46 1645.45 L1865.46 1641.05 Q1867.82 1642.28 1870.11 1642.9 Q1872.4 1643.5 1874.65 1643.5 Q1877.66 1643.5 1879.28 1642.49 Q1880.9 1641.44 1880.9 1639.57 Q1880.9 1637.83 1879.72 1636.91 Q1878.56 1635.98 1874.6 1635.12 L1873.12 1634.78 Q1869.16 1633.94 1867.4 1632.23 Q1865.64 1630.49 1865.64 1627.49 Q1865.64 1623.83 1868.23 1621.84 Q1870.83 1619.85 1875.6 1619.85 Q1877.96 1619.85 1880.04 1620.19 Q1882.12 1620.54 1883.88 1621.24 Z" fill="#000000" fill-rule="nonzero" fill-opacity="1" /><path clip-path="url(#clip590)" d="M1903.84 1633.36 Q1898.67 1633.36 1896.68 1634.55 Q1894.69 1635.73 1894.69 1638.57 Q1894.69 1640.84 1896.17 1642.18 Q1897.68 1643.5 1900.25 1643.5 Q1903.79 1643.5 1905.92 1641 Q1908.07 1638.48 1908.07 1634.31 L1908.07 1633.36 L1903.84 1633.36 M1912.33 1631.61 L1912.33 1646.4 L1908.07 1646.4 L1908.07 1642.46 Q1906.61 1644.82 1904.44 1645.96 Q1902.26 1647.07 1899.11 1647.07 Q1895.13 1647.07 1892.77 1644.85 Q1890.43 1642.6 1890.43 1638.85 Q1890.43 1634.48 1893.35 1632.25 Q1896.29 1630.03 1902.1 1630.03 L1908.07 1630.03 L1908.07 1629.61 Q1908.07 1626.67 1906.13 1625.08 Q1904.21 1623.46 1900.71 1623.46 Q1898.49 1623.46 1896.38 1623.99 Q1894.28 1624.52 1892.33 1625.59 L1892.33 1621.65 Q1894.67 1620.75 1896.87 1620.31 Q1899.07 1619.85 1901.15 1619.85 Q1906.78 1619.85 1909.55 1622.76 Q1912.33 1625.68 1912.33 1631.61 Z" fill="#000000" fill-rule="nonzero" fill-opacity="1" /><path clip-path="url(#clip590)" d="M1941.29 1625.45 Q1942.89 1622.58 1945.11 1621.21 Q1947.33 1619.85 1950.34 1619.85 Q1954.39 1619.85 1956.59 1622.69 Q1958.79 1625.52 1958.79 1630.75 L1958.79 1646.4 L1954.51 1646.4 L1954.51 1630.89 Q1954.51 1627.16 1953.19 1625.36 Q1951.87 1623.55 1949.16 1623.55 Q1945.85 1623.55 1943.93 1625.75 Q1942.01 1627.95 1942.01 1631.74 L1942.01 1646.4 L1937.73 1646.4 L1937.73 1630.89 Q1937.73 1627.14 1936.41 1625.36 Q1935.09 1623.55 1932.33 1623.55 Q1929.07 1623.55 1927.15 1625.77 Q1925.23 1627.97 1925.23 1631.74 L1925.23 1646.4 L1920.94 1646.4 L1920.94 1620.47 L1925.23 1620.47 L1925.23 1624.5 Q1926.68 1622.11 1928.72 1620.98 Q1930.76 1619.85 1933.56 1619.85 Q1936.38 1619.85 1938.35 1621.28 Q1940.34 1622.72 1941.29 1625.45 Z" fill="#000000" fill-rule="nonzero" fill-opacity="1" /><path clip-path="url(#clip590)" d="M1971.41 1642.51 L1971.41 1656.26 L1967.12 1656.26 L1967.12 1620.47 L1971.41 1620.47 L1971.41 1624.41 Q1972.75 1622.09 1974.79 1620.98 Q1976.85 1619.85 1979.69 1619.85 Q1984.41 1619.85 1987.35 1623.6 Q1990.32 1627.35 1990.32 1633.46 Q1990.32 1639.57 1987.35 1643.32 Q1984.41 1647.07 1979.69 1647.07 Q1976.85 1647.07 1974.79 1645.96 Q1972.75 1644.82 1971.41 1642.51 M1985.9 1633.46 Q1985.9 1628.76 1983.95 1626.1 Q1982.03 1623.41 1978.65 1623.41 Q1975.27 1623.41 1973.33 1626.1 Q1971.41 1628.76 1971.41 1633.46 Q1971.41 1638.16 1973.33 1640.84 Q1975.27 1643.5 1978.65 1643.5 Q1982.03 1643.5 1983.95 1640.84 Q1985.9 1638.16 1985.9 1633.46 Z" fill="#000000" fill-rule="nonzero" fill-opacity="1" /><path clip-path="url(#clip590)" d="M1997.38 1610.38 L2001.64 1610.38 L2001.64 1646.4 L1997.38 1646.4 L1997.38 1610.38 Z" fill="#000000" fill-rule="nonzero" fill-opacity="1" /><path clip-path="url(#clip590)" d="M2032.72 1632.37 L2032.72 1634.45 L2013.14 1634.45 Q2013.42 1638.85 2015.78 1641.17 Q2018.16 1643.46 2022.4 1643.46 Q2024.85 1643.46 2027.15 1642.86 Q2029.46 1642.25 2031.73 1641.05 L2031.73 1645.08 Q2029.44 1646.05 2027.03 1646.56 Q2024.62 1647.07 2022.15 1647.07 Q2015.94 1647.07 2012.31 1643.46 Q2008.7 1639.85 2008.7 1633.69 Q2008.7 1627.32 2012.12 1623.6 Q2015.57 1619.85 2021.41 1619.85 Q2026.64 1619.85 2029.67 1623.23 Q2032.72 1626.58 2032.72 1632.37 M2028.47 1631.12 Q2028.42 1627.62 2026.5 1625.54 Q2024.6 1623.46 2021.45 1623.46 Q2017.89 1623.46 2015.73 1625.47 Q2013.6 1627.49 2013.28 1631.14 L2028.47 1631.12 Z" fill="#000000" fill-rule="nonzero" fill-opacity="1" /><path clip-path="url(#clip590)" d="M2056.78 1624.41 L2056.78 1610.38 L2061.03 1610.38 L2061.03 1646.4 L2056.78 1646.4 L2056.78 1642.51 Q2055.43 1644.82 2053.37 1645.96 Q2051.34 1647.07 2048.47 1647.07 Q2043.77 1647.07 2040.8 1643.32 Q2037.86 1639.57 2037.86 1633.46 Q2037.86 1627.35 2040.8 1623.6 Q2043.77 1619.85 2048.47 1619.85 Q2051.34 1619.85 2053.37 1620.98 Q2055.43 1622.09 2056.78 1624.41 M2042.26 1633.46 Q2042.26 1638.16 2044.18 1640.84 Q2046.13 1643.5 2049.51 1643.5 Q2052.89 1643.5 2054.83 1640.84 Q2056.78 1638.16 2056.78 1633.46 Q2056.78 1628.76 2054.83 1626.1 Q2052.89 1623.41 2049.51 1623.41 Q2046.13 1623.41 2044.18 1626.1 Q2042.26 1628.76 2042.26 1633.46 Z" fill="#000000" fill-rule="nonzero" fill-opacity="1" /><path clip-path="url(#clip590)" d="M2098 1610.38 L2098 1613.92 L2093.93 1613.92 Q2091.64 1613.92 2090.73 1614.85 Q2089.85 1615.77 2089.85 1618.18 L2089.85 1620.47 L2096.87 1620.47 L2096.87 1623.78 L2089.85 1623.78 L2089.85 1646.4 L2085.57 1646.4 L2085.57 1623.78 L2081.5 1623.78 L2081.5 1620.47 L2085.57 1620.47 L2085.57 1618.67 Q2085.57 1614.34 2087.59 1612.37 Q2089.6 1610.38 2093.97 1610.38 L2098 1610.38 Z" fill="#000000" fill-rule="nonzero" fill-opacity="1" /><path clip-path="url(#clip590)" d="M2111.61 1623.46 Q2108.19 1623.46 2106.2 1626.14 Q2104.21 1628.8 2104.21 1633.46 Q2104.21 1638.11 2106.17 1640.8 Q2108.16 1643.46 2111.61 1643.46 Q2115.02 1643.46 2117.01 1640.77 Q2119 1638.09 2119 1633.46 Q2119 1628.85 2117.01 1626.17 Q2115.02 1623.46 2111.61 1623.46 M2111.61 1619.85 Q2117.17 1619.85 2120.34 1623.46 Q2123.51 1627.07 2123.51 1633.46 Q2123.51 1639.82 2120.34 1643.46 Q2117.17 1647.07 2111.61 1647.07 Q2106.03 1647.07 2102.86 1643.46 Q2099.72 1639.82 2099.72 1633.46 Q2099.72 1627.07 2102.86 1623.46 Q2106.03 1619.85 2111.61 1619.85 Z" fill="#000000" fill-rule="nonzero" fill-opacity="1" /><path clip-path="url(#clip590)" d="M2145.59 1624.45 Q2144.88 1624.04 2144.02 1623.85 Q2143.19 1623.64 2142.17 1623.64 Q2138.56 1623.64 2136.61 1626 Q2134.69 1628.34 2134.69 1632.74 L2134.69 1646.4 L2130.41 1646.4 L2130.41 1620.47 L2134.69 1620.47 L2134.69 1624.5 Q2136.03 1622.14 2138.19 1621 Q2140.34 1619.85 2143.42 1619.85 Q2143.86 1619.85 2144.39 1619.92 Q2144.92 1619.96 2145.57 1620.08 L2145.59 1624.45 Z" fill="#000000" fill-rule="nonzero" fill-opacity="1" /><path clip-path="url(#clip590)" d="M2175.18 1623.46 Q2171.75 1623.46 2169.76 1626.14 Q2167.77 1628.8 2167.77 1633.46 Q2167.77 1638.11 2169.74 1640.8 Q2171.73 1643.46 2175.18 1643.46 Q2178.58 1643.46 2180.57 1640.77 Q2182.56 1638.09 2182.56 1633.46 Q2182.56 1628.85 2180.57 1626.17 Q2178.58 1623.46 2175.18 1623.46 M2175.18 1619.85 Q2180.73 1619.85 2183.9 1623.46 Q2187.08 1627.07 2187.08 1633.46 Q2187.08 1639.82 2183.9 1643.46 Q2180.73 1647.07 2175.18 1647.07 Q2169.6 1647.07 2166.43 1643.46 Q2163.28 1639.82 2163.28 1633.46 Q2163.28 1627.07 2166.43 1623.46 Q2169.6 1619.85 2175.18 1619.85 Z" fill="#000000" fill-rule="nonzero" fill-opacity="1" /><path clip-path="url(#clip590)" d="M2193.7 1636.17 L2193.7 1620.47 L2197.96 1620.47 L2197.96 1636 Q2197.96 1639.68 2199.39 1641.54 Q2200.83 1643.36 2203.7 1643.36 Q2207.15 1643.36 2209.14 1641.17 Q2211.15 1638.97 2211.15 1635.17 L2211.15 1620.47 L2215.41 1620.47 L2215.41 1646.4 L2211.15 1646.4 L2211.15 1642.42 Q2209.6 1644.78 2207.54 1645.93 Q2205.5 1647.07 2202.79 1647.07 Q2198.33 1647.07 2196.01 1644.29 Q2193.7 1641.51 2193.7 1636.17 M2204.41 1619.85 L2204.41 1619.85 Z" fill="#000000" fill-rule="nonzero" fill-opacity="1" /><path clip-path="url(#clip590)" d="M2239.21 1624.45 Q2238.49 1624.04 2237.63 1623.85 Q2236.8 1623.64 2235.78 1623.64 Q2232.17 1623.64 2230.22 1626 Q2228.3 1628.34 2228.3 1632.74 L2228.3 1646.4 L2224.02 1646.4 L2224.02 1620.47 L2228.3 1620.47 L2228.3 1624.5 Q2229.64 1622.14 2231.8 1621 Q2233.95 1619.85 2237.03 1619.85 Q2237.47 1619.85 2238 1619.92 Q2238.53 1619.96 2239.18 1620.08 L2239.21 1624.45 Z" fill="#000000" fill-rule="nonzero" fill-opacity="1" /><path clip-path="url(#clip590)" d="M2258.93 1611.84 L2265.89 1611.84 L2274.71 1635.36 L2283.58 1611.84 L2290.55 1611.84 L2290.55 1646.4 L2285.99 1646.4 L2285.99 1616.05 L2277.08 1639.75 L2272.38 1639.75 L2263.46 1616.05 L2263.46 1646.4 L2258.93 1646.4 L2258.93 1611.84 Z" fill="#000000" fill-rule="nonzero" fill-opacity="1" /><path clip-path="url(#clip590)" d="M2325.71 1614.5 L2325.71 1619.43 Q2323.35 1617.23 2320.66 1616.14 Q2318 1615.05 2314.99 1615.05 Q2309.07 1615.05 2305.92 1618.69 Q2302.77 1622.3 2302.77 1629.15 Q2302.77 1635.98 2305.92 1639.61 Q2309.07 1643.23 2314.99 1643.23 Q2318 1643.23 2320.66 1642.14 Q2323.35 1641.05 2325.71 1638.85 L2325.71 1643.74 Q2323.26 1645.4 2320.5 1646.24 Q2317.77 1647.07 2314.71 1647.07 Q2306.87 1647.07 2302.35 1642.28 Q2297.84 1637.46 2297.84 1629.15 Q2297.84 1620.82 2302.35 1616.03 Q2306.87 1611.21 2314.71 1611.21 Q2317.82 1611.21 2320.55 1612.05 Q2323.3 1612.86 2325.71 1614.5 Z" fill="#000000" fill-rule="nonzero" fill-opacity="1" /><path clip-path="url(#clip590)" d="M2359.6 1633.36 Q2354.44 1633.36 2352.45 1634.55 Q2350.45 1635.73 2350.45 1638.57 Q2350.45 1640.84 2351.94 1642.18 Q2353.44 1643.5 2356.01 1643.5 Q2359.55 1643.5 2361.68 1641 Q2363.83 1638.48 2363.83 1634.31 L2363.83 1633.36 L2359.6 1633.36 M2368.09 1631.61 L2368.09 1646.4 L2363.83 1646.4 L2363.83 1642.46 Q2362.38 1644.82 2360.2 1645.96 Q2358.02 1647.07 2354.88 1647.07 Q2350.89 1647.07 2348.53 1644.85 Q2346.2 1642.6 2346.2 1638.85 Q2346.2 1634.48 2349.11 1632.25 Q2352.05 1630.03 2357.86 1630.03 L2363.83 1630.03 L2363.83 1629.61 Q2363.83 1626.67 2361.89 1625.08 Q2359.97 1623.46 2356.47 1623.46 Q2354.25 1623.46 2352.14 1623.99 Q2350.04 1624.52 2348.09 1625.59 L2348.09 1621.65 Q2350.43 1620.75 2352.63 1620.31 Q2354.83 1619.85 2356.91 1619.85 Q2362.54 1619.85 2365.32 1622.76 Q2368.09 1625.68 2368.09 1631.61 Z" fill="#000000" fill-rule="nonzero" fill-opacity="1" /><path clip-path="url(#clip590)" d="M2376.87 1610.38 L2381.13 1610.38 L2381.13 1646.4 L2376.87 1646.4 L2376.87 1610.38 Z" fill="#000000" fill-rule="nonzero" fill-opacity="1" /><path clip-path="url(#clip590)" d="M2407.1 1633.13 Q2407.1 1628.5 2405.18 1625.96 Q2403.28 1623.41 2399.83 1623.41 Q2396.4 1623.41 2394.48 1625.96 Q2392.58 1628.5 2392.58 1633.13 Q2392.58 1637.74 2394.48 1640.29 Q2396.4 1642.83 2399.83 1642.83 Q2403.28 1642.83 2405.18 1640.29 Q2407.1 1637.74 2407.1 1633.13 M2411.36 1643.18 Q2411.36 1649.8 2408.42 1653.02 Q2405.48 1656.26 2399.41 1656.26 Q2397.17 1656.26 2395.18 1655.91 Q2393.19 1655.59 2391.31 1654.89 L2391.31 1650.75 Q2393.19 1651.77 2395.01 1652.25 Q2396.84 1652.74 2398.74 1652.74 Q2402.93 1652.74 2405.01 1650.54 Q2407.1 1648.36 2407.1 1643.94 L2407.1 1641.84 Q2405.78 1644.13 2403.72 1645.26 Q2401.66 1646.4 2398.79 1646.4 Q2394.02 1646.4 2391.1 1642.76 Q2388.19 1639.13 2388.19 1633.13 Q2388.19 1627.11 2391.1 1623.48 Q2394.02 1619.85 2398.79 1619.85 Q2401.66 1619.85 2403.72 1620.98 Q2405.78 1622.11 2407.1 1624.41 L2407.1 1620.47 L2411.36 1620.47 L2411.36 1643.18 Z" fill="#000000" fill-rule="nonzero" fill-opacity="1" /><path clip-path="url(#clip590)" d="M2430.18 1623.46 Q2426.75 1623.46 2424.76 1626.14 Q2422.77 1628.8 2422.77 1633.46 Q2422.77 1638.11 2424.74 1640.8 Q2426.73 1643.46 2430.18 1643.46 Q2433.58 1643.46 2435.57 1640.77 Q2437.56 1638.09 2437.56 1633.46 Q2437.56 1628.85 2435.57 1626.17 Q2433.58 1623.46 2430.18 1623.46 M2430.18 1619.85 Q2435.73 1619.85 2438.9 1623.46 Q2442.07 1627.07 2442.07 1633.46 Q2442.07 1639.82 2438.9 1643.46 Q2435.73 1647.07 2430.18 1647.07 Q2424.6 1647.07 2421.43 1643.46 Q2418.28 1639.82 2418.28 1633.46 Q2418.28 1627.07 2421.43 1623.46 Q2424.6 1619.85 2430.18 1619.85 Z" fill="#000000" fill-rule="nonzero" fill-opacity="1" /><path clip-path="url(#clip590)" d="M2464.16 1624.45 Q2463.44 1624.04 2462.58 1623.85 Q2461.75 1623.64 2460.73 1623.64 Q2457.12 1623.64 2455.18 1626 Q2453.25 1628.34 2453.25 1632.74 L2453.25 1646.4 L2448.97 1646.4 L2448.97 1620.47 L2453.25 1620.47 L2453.25 1624.5 Q2454.6 1622.14 2456.75 1621 Q2458.9 1619.85 2461.98 1619.85 Q2462.42 1619.85 2462.95 1619.92 Q2463.49 1619.96 2464.13 1620.08 L2464.16 1624.45 Z" fill="#000000" fill-rule="nonzero" fill-opacity="1" /><path clip-path="url(#clip590)" d="M2468.63 1620.47 L2472.88 1620.47 L2472.88 1646.4 L2468.63 1646.4 L2468.63 1620.47 M2468.63 1610.38 L2472.88 1610.38 L2472.88 1615.77 L2468.63 1615.77 L2468.63 1610.38 Z" fill="#000000" fill-rule="nonzero" fill-opacity="1" /><path clip-path="url(#clip590)" d="M2486.01 1613.11 L2486.01 1620.47 L2494.78 1620.47 L2494.78 1623.78 L2486.01 1623.78 L2486.01 1637.86 Q2486.01 1641.03 2486.87 1641.93 Q2487.75 1642.83 2490.41 1642.83 L2494.78 1642.83 L2494.78 1646.4 L2490.41 1646.4 Q2485.48 1646.4 2483.6 1644.57 Q2481.73 1642.72 2481.73 1637.86 L2481.73 1623.78 L2478.6 1623.78 L2478.6 1620.47 L2481.73 1620.47 L2481.73 1613.11 L2486.01 1613.11 Z" fill="#000000" fill-rule="nonzero" fill-opacity="1" /><path clip-path="url(#clip590)" d="M2521.93 1630.75 L2521.93 1646.4 L2517.68 1646.4 L2517.68 1630.89 Q2517.68 1627.21 2516.24 1625.38 Q2514.81 1623.55 2511.94 1623.55 Q2508.49 1623.55 2506.5 1625.75 Q2504.5 1627.95 2504.5 1631.74 L2504.5 1646.4 L2500.22 1646.4 L2500.22 1610.38 L2504.5 1610.38 L2504.5 1624.5 Q2506.03 1622.16 2508.09 1621 Q2510.18 1619.85 2512.88 1619.85 Q2517.35 1619.85 2519.64 1622.62 Q2521.93 1625.38 2521.93 1630.75 Z" fill="#000000" fill-rule="nonzero" fill-opacity="1" /><path clip-path="url(#clip590)" d="M2550.62 1625.45 Q2552.21 1622.58 2554.43 1621.21 Q2556.66 1619.85 2559.67 1619.85 Q2563.72 1619.85 2565.92 1622.69 Q2568.12 1625.52 2568.12 1630.75 L2568.12 1646.4 L2563.83 1646.4 L2563.83 1630.89 Q2563.83 1627.16 2562.51 1625.36 Q2561.19 1623.55 2558.49 1623.55 Q2555.18 1623.55 2553.25 1625.75 Q2551.33 1627.95 2551.33 1631.74 L2551.33 1646.4 L2547.05 1646.4 L2547.05 1630.89 Q2547.05 1627.14 2545.73 1625.36 Q2544.41 1623.55 2541.66 1623.55 Q2538.39 1623.55 2536.47 1625.77 Q2534.55 1627.97 2534.55 1631.74 L2534.55 1646.4 L2530.27 1646.4 L2530.27 1620.47 L2534.55 1620.47 L2534.55 1624.5 Q2536.01 1622.11 2538.05 1620.98 Q2540.08 1619.85 2542.88 1619.85 Q2545.71 1619.85 2547.68 1621.28 Q2549.67 1622.72 2550.62 1625.45 Z" fill="#000000" fill-rule="nonzero" fill-opacity="1" /></svg>
