<?xml version="1.0" encoding="utf-8"?>
<svg xmlns="http://www.w3.org/2000/svg" xmlns:xlink="http://www.w3.org/1999/xlink" width="528" height="336" viewBox="0 0 2112 1344">
<defs>
  <clipPath id="clip530">
    <rect x="0" y="0" width="2112" height="1344"/>
  </clipPath>
</defs>
<path clip-path="url(#clip530)" d="M0 1344 L2112 1344 L2112 0 L0 0  Z" fill="#ffffff" fill-rule="evenodd" fill-opacity="1"/>
<defs>
  <clipPath id="clip531">
    <rect x="422" y="0" width="1479" height="1344"/>
  </clipPath>
</defs>
<path clip-path="url(#clip530)" d="M323.242 1094.73 L1986.02 1094.73 L1986.02 125.984 L323.242 125.984  Z" fill="#ffffff" fill-rule="evenodd" fill-opacity="1"/>
<defs>
  <clipPath id="clip532">
    <rect x="323" y="125" width="1664" height="970"/>
  </clipPath>
</defs>
<polyline clip-path="url(#clip532)" style="stroke:#000000; stroke-linecap:round; stroke-linejoin:round; stroke-width:2; stroke-opacity:0.1; fill:none" points="551.153,1094.73 551.153,125.984 "/>
<polyline clip-path="url(#clip532)" style="stroke:#000000; stroke-linecap:round; stroke-linejoin:round; stroke-width:2; stroke-opacity:0.1; fill:none" points="919.484,1094.73 919.484,125.984 "/>
<polyline clip-path="url(#clip532)" style="stroke:#000000; stroke-linecap:round; stroke-linejoin:round; stroke-width:2; stroke-opacity:0.1; fill:none" points="1287.82,1094.73 1287.82,125.984 "/>
<polyline clip-path="url(#clip532)" style="stroke:#000000; stroke-linecap:round; stroke-linejoin:round; stroke-width:2; stroke-opacity:0.1; fill:none" points="1656.15,1094.73 1656.15,125.984 "/>
<polyline clip-path="url(#clip530)" style="stroke:#000000; stroke-linecap:round; stroke-linejoin:round; stroke-width:4; stroke-opacity:1; fill:none" points="323.242,1094.73 1986.02,1094.73 "/>
<polyline clip-path="url(#clip530)" style="stroke:#000000; stroke-linecap:round; stroke-linejoin:round; stroke-width:4; stroke-opacity:1; fill:none" points="551.153,1094.73 551.153,1075.83 "/>
<polyline clip-path="url(#clip530)" style="stroke:#000000; stroke-linecap:round; stroke-linejoin:round; stroke-width:4; stroke-opacity:1; fill:none" points="919.484,1094.73 919.484,1075.83 "/>
<polyline clip-path="url(#clip530)" style="stroke:#000000; stroke-linecap:round; stroke-linejoin:round; stroke-width:4; stroke-opacity:1; fill:none" points="1287.82,1094.73 1287.82,1075.83 "/>
<polyline clip-path="url(#clip530)" style="stroke:#000000; stroke-linecap:round; stroke-linejoin:round; stroke-width:4; stroke-opacity:1; fill:none" points="1656.15,1094.73 1656.15,1075.83 "/>
<path clip-path="url(#clip530)" d="M505.215 1138 L534.891 1138 L534.891 1141.93 L505.215 1141.93 L505.215 1138 Z" fill="#000000" fill-rule="nonzero" fill-opacity="1" /><path clip-path="url(#clip530)" d="M545.794 1150.89 L553.433 1150.89 L553.433 1124.53 L545.123 1126.19 L545.123 1121.93 L553.386 1120.27 L558.062 1120.27 L558.062 1150.89 L565.701 1150.89 L565.701 1154.83 L545.794 1154.83 L545.794 1150.89 Z" fill="#000000" fill-rule="nonzero" fill-opacity="1" /><path clip-path="url(#clip530)" d="M585.145 1123.35 Q581.534 1123.35 579.706 1126.91 Q577.9 1130.45 577.9 1137.58 Q577.9 1144.69 579.706 1148.25 Q581.534 1151.79 585.145 1151.79 Q588.78 1151.79 590.585 1148.25 Q592.414 1144.69 592.414 1137.58 Q592.414 1130.45 590.585 1126.91 Q588.78 1123.35 585.145 1123.35 M585.145 1119.64 Q590.956 1119.64 594.011 1124.25 Q597.09 1128.83 597.09 1137.58 Q597.09 1146.31 594.011 1150.91 Q590.956 1155.5 585.145 1155.5 Q579.335 1155.5 576.257 1150.91 Q573.201 1146.31 573.201 1137.58 Q573.201 1128.83 576.257 1124.25 Q579.335 1119.64 585.145 1119.64 Z" fill="#000000" fill-rule="nonzero" fill-opacity="1" /><path clip-path="url(#clip530)" d="M919.484 1123.35 Q915.873 1123.35 914.044 1126.91 Q912.239 1130.45 912.239 1137.58 Q912.239 1144.69 914.044 1148.25 Q915.873 1151.79 919.484 1151.79 Q923.118 1151.79 924.924 1148.25 Q926.753 1144.69 926.753 1137.58 Q926.753 1130.45 924.924 1126.91 Q923.118 1123.35 919.484 1123.35 M919.484 1119.64 Q925.294 1119.64 928.35 1124.25 Q931.429 1128.83 931.429 1137.58 Q931.429 1146.31 928.35 1150.91 Q925.294 1155.5 919.484 1155.5 Q913.674 1155.5 910.595 1150.91 Q907.54 1146.31 907.54 1137.58 Q907.54 1128.83 910.595 1124.25 Q913.674 1119.64 919.484 1119.64 Z" fill="#000000" fill-rule="nonzero" fill-opacity="1" /><path clip-path="url(#clip530)" d="M1262.5 1150.89 L1270.14 1150.89 L1270.14 1124.53 L1261.83 1126.19 L1261.83 1121.93 L1270.1 1120.27 L1274.77 1120.27 L1274.77 1150.89 L1282.41 1150.89 L1282.41 1154.83 L1262.5 1154.83 L1262.5 1150.89 Z" fill="#000000" fill-rule="nonzero" fill-opacity="1" /><path clip-path="url(#clip530)" d="M1301.85 1123.35 Q1298.24 1123.35 1296.42 1126.91 Q1294.61 1130.45 1294.61 1137.58 Q1294.61 1144.69 1296.42 1148.25 Q1298.24 1151.79 1301.85 1151.79 Q1305.49 1151.79 1307.29 1148.25 Q1309.12 1144.69 1309.12 1137.58 Q1309.12 1130.45 1307.29 1126.91 Q1305.49 1123.35 1301.85 1123.35 M1301.85 1119.64 Q1307.67 1119.64 1310.72 1124.25 Q1313.8 1128.83 1313.8 1137.58 Q1313.8 1146.31 1310.72 1150.91 Q1307.67 1155.5 1301.85 1155.5 Q1296.04 1155.5 1292.97 1150.91 Q1289.91 1146.31 1289.91 1137.58 Q1289.91 1128.83 1292.97 1124.25 Q1296.04 1119.64 1301.85 1119.64 Z" fill="#000000" fill-rule="nonzero" fill-opacity="1" /><path clip-path="url(#clip530)" d="M1634.92 1150.89 L1651.24 1150.89 L1651.24 1154.83 L1629.3 1154.83 L1629.3 1150.89 Q1631.96 1148.14 1636.54 1143.51 Q1641.15 1138.85 1642.33 1137.51 Q1644.57 1134.99 1645.45 1133.25 Q1646.36 1131.49 1646.36 1129.8 Q1646.36 1127.05 1644.41 1125.31 Q1642.49 1123.58 1639.39 1123.58 Q1637.19 1123.58 1634.74 1124.34 Q1632.3 1125.1 1629.53 1126.66 L1629.53 1121.93 Q1632.35 1120.8 1634.8 1120.22 Q1637.26 1119.64 1639.3 1119.64 Q1644.67 1119.64 1647.86 1122.33 Q1651.05 1125.01 1651.05 1129.5 Q1651.05 1131.63 1650.24 1133.55 Q1649.46 1135.45 1647.35 1138.04 Q1646.77 1138.72 1643.67 1141.93 Q1640.57 1145.13 1634.92 1150.89 Z" fill="#000000" fill-rule="nonzero" fill-opacity="1" /><path clip-path="url(#clip530)" d="M1671.05 1123.35 Q1667.44 1123.35 1665.61 1126.91 Q1663.81 1130.45 1663.81 1137.58 Q1663.81 1144.69 1665.61 1148.25 Q1667.44 1151.79 1671.05 1151.79 Q1674.69 1151.79 1676.49 1148.25 Q1678.32 1144.69 1678.32 1137.58 Q1678.32 1130.45 1676.49 1126.91 Q1674.69 1123.35 1671.05 1123.35 M1671.05 1119.64 Q1676.86 1119.64 1679.92 1124.25 Q1683 1128.83 1683 1137.58 Q1683 1146.31 1679.92 1150.91 Q1676.86 1155.5 1671.05 1155.5 Q1665.24 1155.5 1662.17 1150.91 Q1659.11 1146.31 1659.11 1137.58 Q1659.11 1128.83 1662.17 1124.25 Q1665.24 1119.64 1671.05 1119.64 Z" fill="#000000" fill-rule="nonzero" fill-opacity="1" /><path clip-path="url(#clip530)" d="M906.303 1187.75 L912.796 1187.75 L922.79 1227.92 L932.752 1187.75 L939.977 1187.75 L949.972 1227.92 L959.934 1187.75 L966.459 1187.75 L954.523 1235.27 L946.439 1235.27 L936.413 1194.02 L926.291 1235.27 L918.207 1235.27 L906.303 1187.75 Z" fill="#000000" fill-rule="nonzero" fill-opacity="1" /><path clip-path="url(#clip530)" d="M986.765 1217.36 Q979.668 1217.36 976.93 1218.98 Q974.193 1220.6 974.193 1224.52 Q974.193 1227.64 976.23 1229.48 Q978.299 1231.3 981.832 1231.3 Q986.702 1231.3 989.63 1227.86 Q992.59 1224.39 992.59 1218.66 L992.59 1217.36 L986.765 1217.36 M998.446 1214.94 L998.446 1235.27 L992.59 1235.27 L992.59 1229.86 Q990.585 1233.11 987.593 1234.67 Q984.601 1236.2 980.272 1236.2 Q974.798 1236.2 971.551 1233.14 Q968.337 1230.05 968.337 1224.9 Q968.337 1218.88 972.347 1215.83 Q976.389 1212.77 984.378 1212.77 L992.59 1212.77 L992.59 1212.2 Q992.59 1208.16 989.916 1205.96 Q987.275 1203.73 982.468 1203.73 Q979.413 1203.73 976.516 1204.46 Q973.62 1205.2 970.947 1206.66 L970.947 1201.25 Q974.161 1200.01 977.185 1199.4 Q980.209 1198.77 983.073 1198.77 Q990.808 1198.77 994.627 1202.78 Q998.446 1206.79 998.446 1214.94 Z" fill="#000000" fill-rule="nonzero" fill-opacity="1" /><path clip-path="url(#clip530)" d="M1016.3 1189.51 L1016.3 1199.63 L1028.37 1199.63 L1028.37 1204.18 L1016.3 1204.18 L1016.3 1223.53 Q1016.3 1227.89 1017.48 1229.13 Q1018.69 1230.37 1022.35 1230.37 L1028.37 1230.37 L1028.37 1235.27 L1022.35 1235.27 Q1015.57 1235.27 1012.99 1232.76 Q1010.41 1230.21 1010.41 1223.53 L1010.41 1204.18 L1006.12 1204.18 L1006.12 1199.63 L1010.41 1199.63 L1010.41 1189.51 L1016.3 1189.51 Z" fill="#000000" fill-rule="nonzero" fill-opacity="1" /><path clip-path="url(#clip530)" d="M1066.56 1215.99 L1066.56 1218.85 L1039.63 1218.85 Q1040.01 1224.9 1043.26 1228.08 Q1046.54 1231.23 1052.36 1231.23 Q1055.74 1231.23 1058.89 1230.4 Q1062.07 1229.58 1065.19 1227.92 L1065.19 1233.46 Q1062.04 1234.8 1058.73 1235.5 Q1055.42 1236.2 1052.01 1236.2 Q1043.48 1236.2 1038.49 1231.23 Q1033.52 1226.27 1033.52 1217.8 Q1033.52 1209.05 1038.23 1203.92 Q1042.97 1198.77 1051 1198.77 Q1058.19 1198.77 1062.36 1203.41 Q1066.56 1208.03 1066.56 1215.99 M1060.7 1214.27 Q1060.64 1209.46 1058 1206.6 Q1055.39 1203.73 1051.06 1203.73 Q1046.16 1203.73 1043.2 1206.5 Q1040.27 1209.27 1039.82 1214.3 L1060.7 1214.27 Z" fill="#000000" fill-rule="nonzero" fill-opacity="1" /><path clip-path="url(#clip530)" d="M1096.83 1205.1 Q1095.84 1204.53 1094.66 1204.27 Q1093.52 1203.99 1092.12 1203.99 Q1087.15 1203.99 1084.48 1207.23 Q1081.84 1210.45 1081.84 1216.5 L1081.84 1235.27 L1075.95 1235.27 L1075.95 1199.63 L1081.84 1199.63 L1081.84 1205.16 Q1083.68 1201.92 1086.64 1200.36 Q1089.6 1198.77 1093.84 1198.77 Q1094.44 1198.77 1095.17 1198.86 Q1095.91 1198.93 1096.8 1199.09 L1096.83 1205.1 Z" fill="#000000" fill-rule="nonzero" fill-opacity="1" /><path clip-path="url(#clip530)" d="M1123.95 1187.75 L1130.38 1187.75 L1130.38 1229.86 L1153.51 1229.86 L1153.51 1235.27 L1123.95 1235.27 L1123.95 1187.75 Z" fill="#000000" fill-rule="nonzero" fill-opacity="1" /><path clip-path="url(#clip530)" d="M1189.35 1215.99 L1189.35 1218.85 L1162.43 1218.85 Q1162.81 1224.9 1166.06 1228.08 Q1169.33 1231.23 1175.16 1231.23 Q1178.53 1231.23 1181.68 1230.4 Q1184.87 1229.58 1187.99 1227.92 L1187.99 1233.46 Q1184.83 1234.8 1181.52 1235.5 Q1178.21 1236.2 1174.81 1236.2 Q1166.28 1236.2 1161.28 1231.23 Q1156.32 1226.27 1156.32 1217.8 Q1156.32 1209.05 1161.03 1203.92 Q1165.77 1198.77 1173.79 1198.77 Q1180.98 1198.77 1185.15 1203.41 Q1189.35 1208.03 1189.35 1215.99 M1183.5 1214.27 Q1183.43 1209.46 1180.79 1206.6 Q1178.18 1203.73 1173.85 1203.73 Q1168.95 1203.73 1165.99 1206.5 Q1163.06 1209.27 1162.62 1214.3 L1183.5 1214.27 Z" fill="#000000" fill-rule="nonzero" fill-opacity="1" /><path clip-path="url(#clip530)" d="M1194.76 1199.63 L1200.97 1199.63 L1212.11 1229.55 L1223.25 1199.63 L1229.46 1199.63 L1216.09 1235.27 L1208.13 1235.27 L1194.76 1199.63 Z" fill="#000000" fill-rule="nonzero" fill-opacity="1" /><path clip-path="url(#clip530)" d="M1268.03 1215.99 L1268.03 1218.85 L1241.11 1218.85 Q1241.49 1224.9 1244.74 1228.08 Q1248.01 1231.23 1253.84 1231.23 Q1257.21 1231.23 1260.36 1230.4 Q1263.55 1229.58 1266.67 1227.92 L1266.67 1233.46 Q1263.51 1234.8 1260.2 1235.5 Q1256.89 1236.2 1253.49 1236.2 Q1244.96 1236.2 1239.96 1231.23 Q1235 1226.27 1235 1217.8 Q1235 1209.05 1239.71 1203.92 Q1244.45 1198.77 1252.47 1198.77 Q1259.66 1198.77 1263.83 1203.41 Q1268.03 1208.03 1268.03 1215.99 M1262.18 1214.27 Q1262.11 1209.46 1259.47 1206.6 Q1256.86 1203.73 1252.53 1203.73 Q1247.63 1203.73 1244.67 1206.5 Q1241.74 1209.27 1241.3 1214.3 L1262.18 1214.27 Z" fill="#000000" fill-rule="nonzero" fill-opacity="1" /><path clip-path="url(#clip530)" d="M1277.65 1185.75 L1283.5 1185.75 L1283.5 1235.27 L1277.65 1235.27 L1277.65 1185.75 Z" fill="#000000" fill-rule="nonzero" fill-opacity="1" /><path clip-path="url(#clip530)" d="M1330.55 1185.81 Q1326.28 1193.13 1324.21 1200.3 Q1322.14 1207.46 1322.14 1214.81 Q1322.14 1222.16 1324.21 1229.39 Q1326.31 1236.58 1330.55 1243.87 L1325.45 1243.87 Q1320.68 1236.39 1318.29 1229.16 Q1315.94 1221.94 1315.94 1214.81 Q1315.94 1207.71 1318.29 1200.52 Q1320.65 1193.32 1325.45 1185.81 L1330.55 1185.81 Z" fill="#000000" fill-rule="nonzero" fill-opacity="1" /><path clip-path="url(#clip530)" d="M1359.95 1185.75 L1359.95 1190.62 L1354.35 1190.62 Q1351.2 1190.62 1349.96 1191.89 Q1348.75 1193.17 1348.75 1196.48 L1348.75 1199.63 L1358.4 1199.63 L1358.4 1204.18 L1348.75 1204.18 L1348.75 1235.27 L1342.86 1235.27 L1342.86 1204.18 L1337.26 1204.18 L1337.26 1199.63 L1342.86 1199.63 L1342.86 1197.14 Q1342.86 1191.19 1345.63 1188.49 Q1348.4 1185.75 1354.42 1185.75 L1359.95 1185.75 Z" fill="#000000" fill-rule="nonzero" fill-opacity="1" /><path clip-path="url(#clip530)" d="M1369.5 1189.51 L1369.5 1199.63 L1381.57 1199.63 L1381.57 1204.18 L1369.5 1204.18 L1369.5 1223.53 Q1369.5 1227.89 1370.68 1229.13 Q1371.89 1230.37 1375.55 1230.37 L1381.57 1230.37 L1381.57 1235.27 L1375.55 1235.27 Q1368.77 1235.27 1366.19 1232.76 Q1363.62 1230.21 1363.62 1223.53 L1363.62 1204.18 L1359.32 1204.18 L1359.32 1199.63 L1363.62 1199.63 L1363.62 1189.51 L1369.5 1189.51 Z" fill="#000000" fill-rule="nonzero" fill-opacity="1" /><path clip-path="url(#clip530)" d="M1388.35 1185.81 L1393.44 1185.81 Q1398.21 1193.32 1400.57 1200.52 Q1402.96 1207.71 1402.96 1214.81 Q1402.96 1221.94 1400.57 1229.16 Q1398.21 1236.39 1393.44 1243.87 L1388.35 1243.87 Q1392.58 1236.58 1394.65 1229.39 Q1396.75 1222.16 1396.75 1214.81 Q1396.75 1207.46 1394.65 1200.3 Q1392.58 1193.13 1388.35 1185.81 Z" fill="#000000" fill-rule="nonzero" fill-opacity="1" /><polyline clip-path="url(#clip532)" style="stroke:#000000; stroke-linecap:round; stroke-linejoin:round; stroke-width:2; stroke-opacity:0.1; fill:none" points="323.242,1067.31 1986.02,1067.31 "/>
<polyline clip-path="url(#clip532)" style="stroke:#000000; stroke-linecap:round; stroke-linejoin:round; stroke-width:2; stroke-opacity:0.1; fill:none" points="323.242,881.891 1986.02,881.891 "/>
<polyline clip-path="url(#clip532)" style="stroke:#000000; stroke-linecap:round; stroke-linejoin:round; stroke-width:2; stroke-opacity:0.1; fill:none" points="323.242,696.469 1986.02,696.469 "/>
<polyline clip-path="url(#clip532)" style="stroke:#000000; stroke-linecap:round; stroke-linejoin:round; stroke-width:2; stroke-opacity:0.1; fill:none" points="323.242,511.046 1986.02,511.046 "/>
<polyline clip-path="url(#clip532)" style="stroke:#000000; stroke-linecap:round; stroke-linejoin:round; stroke-width:2; stroke-opacity:0.1; fill:none" points="323.242,325.624 1986.02,325.624 "/>
<polyline clip-path="url(#clip532)" style="stroke:#000000; stroke-linecap:round; stroke-linejoin:round; stroke-width:2; stroke-opacity:0.1; fill:none" points="323.242,140.202 1986.02,140.202 "/>
<polyline clip-path="url(#clip530)" style="stroke:#000000; stroke-linecap:round; stroke-linejoin:round; stroke-width:4; stroke-opacity:1; fill:none" points="323.242,1094.73 323.242,125.984 "/>
<polyline clip-path="url(#clip530)" style="stroke:#000000; stroke-linecap:round; stroke-linejoin:round; stroke-width:4; stroke-opacity:1; fill:none" points="323.242,1067.31 342.14,1067.31 "/>
<polyline clip-path="url(#clip530)" style="stroke:#000000; stroke-linecap:round; stroke-linejoin:round; stroke-width:4; stroke-opacity:1; fill:none" points="323.242,881.891 342.14,881.891 "/>
<polyline clip-path="url(#clip530)" style="stroke:#000000; stroke-linecap:round; stroke-linejoin:round; stroke-width:4; stroke-opacity:1; fill:none" points="323.242,696.469 342.14,696.469 "/>
<polyline clip-path="url(#clip530)" style="stroke:#000000; stroke-linecap:round; stroke-linejoin:round; stroke-width:4; stroke-opacity:1; fill:none" points="323.242,511.046 342.14,511.046 "/>
<polyline clip-path="url(#clip530)" style="stroke:#000000; stroke-linecap:round; stroke-linejoin:round; stroke-width:4; stroke-opacity:1; fill:none" points="323.242,325.624 342.14,325.624 "/>
<polyline clip-path="url(#clip530)" style="stroke:#000000; stroke-linecap:round; stroke-linejoin:round; stroke-width:4; stroke-opacity:1; fill:none" points="323.242,140.202 342.14,140.202 "/>
<path clip-path="url(#clip530)" d="M204.225 1053.11 Q200.614 1053.11 198.785 1056.68 Q196.979 1060.22 196.979 1067.35 Q196.979 1074.45 198.785 1078.02 Q200.614 1081.56 204.225 1081.56 Q207.859 1081.56 209.664 1078.02 Q211.493 1074.45 211.493 1067.35 Q211.493 1060.22 209.664 1056.68 Q207.859 1053.11 204.225 1053.11 M204.225 1049.41 Q210.035 1049.41 213.09 1054.01 Q216.169 1058.6 216.169 1067.35 Q216.169 1076.07 213.09 1080.68 Q210.035 1085.26 204.225 1085.26 Q198.415 1085.26 195.336 1080.68 Q192.28 1076.07 192.28 1067.35 Q192.28 1058.6 195.336 1054.01 Q198.415 1049.41 204.225 1049.41 Z" fill="#000000" fill-rule="nonzero" fill-opacity="1" /><path clip-path="url(#clip530)" d="M224.387 1078.71 L229.271 1078.71 L229.271 1084.59 L224.387 1084.59 L224.387 1078.71 Z" fill="#000000" fill-rule="nonzero" fill-opacity="1" /><path clip-path="url(#clip530)" d="M249.456 1053.11 Q245.845 1053.11 244.016 1056.68 Q242.211 1060.22 242.211 1067.35 Q242.211 1074.45 244.016 1078.02 Q245.845 1081.56 249.456 1081.56 Q253.09 1081.56 254.896 1078.02 Q256.724 1074.45 256.724 1067.35 Q256.724 1060.22 254.896 1056.68 Q253.09 1053.11 249.456 1053.11 M249.456 1049.41 Q255.266 1049.41 258.322 1054.01 Q261.4 1058.6 261.4 1067.35 Q261.4 1076.07 258.322 1080.68 Q255.266 1085.26 249.456 1085.26 Q243.646 1085.26 240.567 1080.68 Q237.512 1076.07 237.512 1067.35 Q237.512 1058.6 240.567 1054.01 Q243.646 1049.41 249.456 1049.41 Z" fill="#000000" fill-rule="nonzero" fill-opacity="1" /><path clip-path="url(#clip530)" d="M279.618 1053.11 Q276.007 1053.11 274.178 1056.68 Q272.372 1060.22 272.372 1067.35 Q272.372 1074.45 274.178 1078.02 Q276.007 1081.56 279.618 1081.56 Q283.252 1081.56 285.058 1078.02 Q286.886 1074.45 286.886 1067.35 Q286.886 1060.22 285.058 1056.68 Q283.252 1053.11 279.618 1053.11 M279.618 1049.41 Q285.428 1049.41 288.484 1054.01 Q291.562 1058.6 291.562 1067.35 Q291.562 1076.07 288.484 1080.68 Q285.428 1085.26 279.618 1085.26 Q273.808 1085.26 270.729 1080.68 Q267.673 1076.07 267.673 1067.35 Q267.673 1058.6 270.729 1054.01 Q273.808 1049.41 279.618 1049.41 Z" fill="#000000" fill-rule="nonzero" fill-opacity="1" /><path clip-path="url(#clip530)" d="M205.22 867.69 Q201.609 867.69 199.78 871.254 Q197.975 874.796 197.975 881.926 Q197.975 889.032 199.78 892.597 Q201.609 896.139 205.22 896.139 Q208.854 896.139 210.66 892.597 Q212.489 889.032 212.489 881.926 Q212.489 874.796 210.66 871.254 Q208.854 867.69 205.22 867.69 M205.22 863.986 Q211.03 863.986 214.086 868.592 Q217.164 873.176 217.164 881.926 Q217.164 890.652 214.086 895.259 Q211.03 899.842 205.22 899.842 Q199.41 899.842 196.331 895.259 Q193.276 890.652 193.276 881.926 Q193.276 873.176 196.331 868.592 Q199.41 863.986 205.22 863.986 Z" fill="#000000" fill-rule="nonzero" fill-opacity="1" /><path clip-path="url(#clip530)" d="M225.382 893.291 L230.266 893.291 L230.266 899.171 L225.382 899.171 L225.382 893.291 Z" fill="#000000" fill-rule="nonzero" fill-opacity="1" /><path clip-path="url(#clip530)" d="M250.451 867.69 Q246.84 867.69 245.012 871.254 Q243.206 874.796 243.206 881.926 Q243.206 889.032 245.012 892.597 Q246.84 896.139 250.451 896.139 Q254.086 896.139 255.891 892.597 Q257.72 889.032 257.72 881.926 Q257.72 874.796 255.891 871.254 Q254.086 867.69 250.451 867.69 M250.451 863.986 Q256.261 863.986 259.317 868.592 Q262.396 873.176 262.396 881.926 Q262.396 890.652 259.317 895.259 Q256.261 899.842 250.451 899.842 Q244.641 899.842 241.562 895.259 Q238.507 890.652 238.507 881.926 Q238.507 873.176 241.562 868.592 Q244.641 863.986 250.451 863.986 Z" fill="#000000" fill-rule="nonzero" fill-opacity="1" /><path clip-path="url(#clip530)" d="M270.66 864.611 L289.016 864.611 L289.016 868.546 L274.942 868.546 L274.942 877.018 Q275.96 876.671 276.979 876.509 Q277.997 876.324 279.016 876.324 Q284.803 876.324 288.183 879.495 Q291.562 882.666 291.562 888.083 Q291.562 893.662 288.09 896.764 Q284.618 899.842 278.298 899.842 Q276.122 899.842 273.854 899.472 Q271.609 899.102 269.201 898.361 L269.201 893.662 Q271.285 894.796 273.507 895.352 Q275.729 895.907 278.206 895.907 Q282.21 895.907 284.548 893.801 Q286.886 891.694 286.886 888.083 Q286.886 884.472 284.548 882.365 Q282.21 880.259 278.206 880.259 Q276.331 880.259 274.456 880.676 Q272.604 881.092 270.66 881.972 L270.66 864.611 Z" fill="#000000" fill-rule="nonzero" fill-opacity="1" /><path clip-path="url(#clip530)" d="M204.225 682.267 Q200.614 682.267 198.785 685.832 Q196.979 689.374 196.979 696.503 Q196.979 703.61 198.785 707.175 Q200.614 710.716 204.225 710.716 Q207.859 710.716 209.664 707.175 Q211.493 703.61 211.493 696.503 Q211.493 689.374 209.664 685.832 Q207.859 682.267 204.225 682.267 M204.225 678.564 Q210.035 678.564 213.09 683.17 Q216.169 687.753 216.169 696.503 Q216.169 705.23 213.09 709.837 Q210.035 714.42 204.225 714.42 Q198.415 714.42 195.336 709.837 Q192.28 705.23 192.28 696.503 Q192.28 687.753 195.336 683.17 Q198.415 678.564 204.225 678.564 Z" fill="#000000" fill-rule="nonzero" fill-opacity="1" /><path clip-path="url(#clip530)" d="M224.387 707.869 L229.271 707.869 L229.271 713.749 L224.387 713.749 L224.387 707.869 Z" fill="#000000" fill-rule="nonzero" fill-opacity="1" /><path clip-path="url(#clip530)" d="M240.266 709.813 L247.905 709.813 L247.905 683.448 L239.595 685.115 L239.595 680.855 L247.859 679.189 L252.535 679.189 L252.535 709.813 L260.173 709.813 L260.173 713.749 L240.266 713.749 L240.266 709.813 Z" fill="#000000" fill-rule="nonzero" fill-opacity="1" /><path clip-path="url(#clip530)" d="M279.618 682.267 Q276.007 682.267 274.178 685.832 Q272.372 689.374 272.372 696.503 Q272.372 703.61 274.178 707.175 Q276.007 710.716 279.618 710.716 Q283.252 710.716 285.058 707.175 Q286.886 703.61 286.886 696.503 Q286.886 689.374 285.058 685.832 Q283.252 682.267 279.618 682.267 M279.618 678.564 Q285.428 678.564 288.484 683.17 Q291.562 687.753 291.562 696.503 Q291.562 705.23 288.484 709.837 Q285.428 714.42 279.618 714.42 Q273.808 714.42 270.729 709.837 Q267.673 705.23 267.673 696.503 Q267.673 687.753 270.729 683.17 Q273.808 678.564 279.618 678.564 Z" fill="#000000" fill-rule="nonzero" fill-opacity="1" /><path clip-path="url(#clip530)" d="M205.22 496.845 Q201.609 496.845 199.78 500.41 Q197.975 503.952 197.975 511.081 Q197.975 518.188 199.78 521.752 Q201.609 525.294 205.22 525.294 Q208.854 525.294 210.66 521.752 Q212.489 518.188 212.489 511.081 Q212.489 503.952 210.66 500.41 Q208.854 496.845 205.22 496.845 M205.22 493.141 Q211.03 493.141 214.086 497.748 Q217.164 502.331 217.164 511.081 Q217.164 519.808 214.086 524.414 Q211.03 528.998 205.22 528.998 Q199.41 528.998 196.331 524.414 Q193.276 519.808 193.276 511.081 Q193.276 502.331 196.331 497.748 Q199.41 493.141 205.22 493.141 Z" fill="#000000" fill-rule="nonzero" fill-opacity="1" /><path clip-path="url(#clip530)" d="M225.382 522.447 L230.266 522.447 L230.266 528.326 L225.382 528.326 L225.382 522.447 Z" fill="#000000" fill-rule="nonzero" fill-opacity="1" /><path clip-path="url(#clip530)" d="M241.262 524.391 L248.9 524.391 L248.9 498.026 L240.59 499.692 L240.59 495.433 L248.854 493.766 L253.53 493.766 L253.53 524.391 L261.169 524.391 L261.169 528.326 L241.262 528.326 L241.262 524.391 Z" fill="#000000" fill-rule="nonzero" fill-opacity="1" /><path clip-path="url(#clip530)" d="M270.66 493.766 L289.016 493.766 L289.016 497.702 L274.942 497.702 L274.942 506.174 Q275.96 505.826 276.979 505.664 Q277.997 505.479 279.016 505.479 Q284.803 505.479 288.183 508.651 Q291.562 511.822 291.562 517.238 Q291.562 522.817 288.09 525.919 Q284.618 528.998 278.298 528.998 Q276.122 528.998 273.854 528.627 Q271.609 528.257 269.201 527.516 L269.201 522.817 Q271.285 523.951 273.507 524.507 Q275.729 525.062 278.206 525.062 Q282.21 525.062 284.548 522.956 Q286.886 520.85 286.886 517.238 Q286.886 513.627 284.548 511.521 Q282.21 509.414 278.206 509.414 Q276.331 509.414 274.456 509.831 Q272.604 510.248 270.66 511.127 L270.66 493.766 Z" fill="#000000" fill-rule="nonzero" fill-opacity="1" /><path clip-path="url(#clip530)" d="M204.225 311.423 Q200.614 311.423 198.785 314.988 Q196.979 318.529 196.979 325.659 Q196.979 332.765 198.785 336.33 Q200.614 339.872 204.225 339.872 Q207.859 339.872 209.664 336.33 Q211.493 332.765 211.493 325.659 Q211.493 318.529 209.664 314.988 Q207.859 311.423 204.225 311.423 M204.225 307.719 Q210.035 307.719 213.09 312.326 Q216.169 316.909 216.169 325.659 Q216.169 334.386 213.09 338.992 Q210.035 343.575 204.225 343.575 Q198.415 343.575 195.336 338.992 Q192.28 334.386 192.28 325.659 Q192.28 316.909 195.336 312.326 Q198.415 307.719 204.225 307.719 Z" fill="#000000" fill-rule="nonzero" fill-opacity="1" /><path clip-path="url(#clip530)" d="M224.387 337.024 L229.271 337.024 L229.271 342.904 L224.387 342.904 L224.387 337.024 Z" fill="#000000" fill-rule="nonzero" fill-opacity="1" /><path clip-path="url(#clip530)" d="M243.484 338.969 L259.803 338.969 L259.803 342.904 L237.859 342.904 L237.859 338.969 Q240.521 336.214 245.104 331.585 Q249.711 326.932 250.891 325.589 Q253.136 323.066 254.016 321.33 Q254.919 319.571 254.919 317.881 Q254.919 315.126 252.974 313.39 Q251.053 311.654 247.951 311.654 Q245.752 311.654 243.299 312.418 Q240.868 313.182 238.09 314.733 L238.09 310.011 Q240.914 308.876 243.368 308.298 Q245.822 307.719 247.859 307.719 Q253.229 307.719 256.423 310.404 Q259.618 313.089 259.618 317.58 Q259.618 319.71 258.808 321.631 Q258.021 323.529 255.914 326.122 Q255.336 326.793 252.234 330.011 Q249.132 333.205 243.484 338.969 Z" fill="#000000" fill-rule="nonzero" fill-opacity="1" /><path clip-path="url(#clip530)" d="M279.618 311.423 Q276.007 311.423 274.178 314.988 Q272.372 318.529 272.372 325.659 Q272.372 332.765 274.178 336.33 Q276.007 339.872 279.618 339.872 Q283.252 339.872 285.058 336.33 Q286.886 332.765 286.886 325.659 Q286.886 318.529 285.058 314.988 Q283.252 311.423 279.618 311.423 M279.618 307.719 Q285.428 307.719 288.484 312.326 Q291.562 316.909 291.562 325.659 Q291.562 334.386 288.484 338.992 Q285.428 343.575 279.618 343.575 Q273.808 343.575 270.729 338.992 Q267.673 334.386 267.673 325.659 Q267.673 316.909 270.729 312.326 Q273.808 307.719 279.618 307.719 Z" fill="#000000" fill-rule="nonzero" fill-opacity="1" /><path clip-path="url(#clip530)" d="M205.22 126 Q201.609 126 199.78 129.565 Q197.975 133.107 197.975 140.237 Q197.975 147.343 199.78 150.908 Q201.609 154.449 205.22 154.449 Q208.854 154.449 210.66 150.908 Q212.489 147.343 212.489 140.237 Q212.489 133.107 210.66 129.565 Q208.854 126 205.22 126 M205.22 122.297 Q211.03 122.297 214.086 126.903 Q217.164 131.487 217.164 140.237 Q217.164 148.963 214.086 153.57 Q211.03 158.153 205.22 158.153 Q199.41 158.153 196.331 153.57 Q193.276 148.963 193.276 140.237 Q193.276 131.487 196.331 126.903 Q199.41 122.297 205.22 122.297 Z" fill="#000000" fill-rule="nonzero" fill-opacity="1" /><path clip-path="url(#clip530)" d="M225.382 151.602 L230.266 151.602 L230.266 157.482 L225.382 157.482 L225.382 151.602 Z" fill="#000000" fill-rule="nonzero" fill-opacity="1" /><path clip-path="url(#clip530)" d="M244.479 153.547 L260.798 153.547 L260.798 157.482 L238.854 157.482 L238.854 153.547 Q241.516 150.792 246.099 146.162 Q250.706 141.51 251.886 140.167 Q254.132 137.644 255.011 135.908 Q255.914 134.149 255.914 132.459 Q255.914 129.704 253.97 127.968 Q252.049 126.232 248.947 126.232 Q246.748 126.232 244.294 126.996 Q241.863 127.76 239.086 129.311 L239.086 124.588 Q241.91 123.454 244.363 122.875 Q246.817 122.297 248.854 122.297 Q254.224 122.297 257.419 124.982 Q260.613 127.667 260.613 132.158 Q260.613 134.287 259.803 136.209 Q259.016 138.107 256.91 140.699 Q256.331 141.371 253.229 144.588 Q250.127 147.783 244.479 153.547 Z" fill="#000000" fill-rule="nonzero" fill-opacity="1" /><path clip-path="url(#clip530)" d="M270.66 122.922 L289.016 122.922 L289.016 126.857 L274.942 126.857 L274.942 135.329 Q275.96 134.982 276.979 134.82 Q277.997 134.635 279.016 134.635 Q284.803 134.635 288.183 137.806 Q291.562 140.977 291.562 146.394 Q291.562 151.973 288.09 155.074 Q284.618 158.153 278.298 158.153 Q276.122 158.153 273.854 157.783 Q271.609 157.412 269.201 156.672 L269.201 151.973 Q271.285 153.107 273.507 153.662 Q275.729 154.218 278.206 154.218 Q282.21 154.218 284.548 152.111 Q286.886 150.005 286.886 146.394 Q286.886 142.783 284.548 140.676 Q282.21 138.57 278.206 138.57 Q276.331 138.57 274.456 138.987 Q272.604 139.403 270.66 140.283 L270.66 122.922 Z" fill="#000000" fill-rule="nonzero" fill-opacity="1" /><path clip-path="url(#clip530)" d="M104.108 906.315 L121.964 906.315 L121.964 898.231 Q121.964 893.743 119.64 891.292 Q117.317 888.841 113.02 888.841 Q108.755 888.841 106.431 891.292 Q104.108 893.743 104.108 898.231 L104.108 906.315 M98.8243 912.744 L98.8243 898.231 Q98.8243 890.242 102.453 886.168 Q106.049 882.062 113.02 882.062 Q120.054 882.062 123.651 886.168 Q127.247 890.242 127.247 898.231 L127.247 906.315 L146.344 906.315 L146.344 912.744 L98.8243 912.744 Z" fill="#000000" fill-rule="nonzero" fill-opacity="1" /><path clip-path="url(#clip530)" d="M116.171 854.18 Q115.598 855.167 115.343 856.344 Q115.057 857.49 115.057 858.891 Q115.057 863.856 118.303 866.529 Q121.518 869.171 127.565 869.171 L146.344 869.171 L146.344 875.059 L110.696 875.059 L110.696 869.171 L116.235 869.171 Q112.988 867.325 111.428 864.365 Q109.837 861.405 109.837 857.172 Q109.837 856.567 109.932 855.835 Q109.996 855.103 110.155 854.212 L116.171 854.18 Z" fill="#000000" fill-rule="nonzero" fill-opacity="1" /><path clip-path="url(#clip530)" d="M114.802 835.656 Q114.802 840.366 118.494 843.104 Q122.155 845.841 128.552 845.841 Q134.95 845.841 138.642 843.135 Q142.302 840.398 142.302 835.656 Q142.302 830.977 138.61 828.24 Q134.918 825.502 128.552 825.502 Q122.218 825.502 118.526 828.24 Q114.802 830.977 114.802 835.656 M109.837 835.656 Q109.837 828.017 114.802 823.656 Q119.767 819.296 128.552 819.296 Q137.305 819.296 142.302 823.656 Q147.267 828.017 147.267 835.656 Q147.267 843.326 142.302 847.687 Q137.305 852.016 128.552 852.016 Q119.767 852.016 114.802 847.687 Q109.837 843.326 109.837 835.656 Z" fill="#000000" fill-rule="nonzero" fill-opacity="1" /><path clip-path="url(#clip530)" d="M128.552 783.998 Q122.091 783.998 118.431 786.672 Q114.739 789.313 114.739 793.96 Q114.739 798.607 118.431 801.281 Q122.091 803.923 128.552 803.923 Q135.013 803.923 138.705 801.281 Q142.366 798.607 142.366 793.96 Q142.366 789.313 138.705 786.672 Q135.013 783.998 128.552 783.998 M116.107 803.923 Q112.924 802.077 111.397 799.276 Q109.837 796.443 109.837 792.528 Q109.837 786.035 114.993 781.993 Q120.149 777.919 128.552 777.919 Q136.955 777.919 142.111 781.993 Q147.267 786.035 147.267 792.528 Q147.267 796.443 145.74 799.276 Q144.18 802.077 140.997 803.923 L146.344 803.923 L146.344 809.811 L96.8191 809.811 L96.8191 803.923 L116.107 803.923 Z" fill="#000000" fill-rule="nonzero" fill-opacity="1" /><path clip-path="url(#clip530)" d="M128.425 752.01 Q128.425 759.108 130.048 761.845 Q131.671 764.583 135.586 764.583 Q138.705 764.583 140.552 762.546 Q142.366 760.477 142.366 756.944 Q142.366 752.074 138.928 749.146 Q135.459 746.186 129.73 746.186 L128.425 746.186 L128.425 752.01 M126.006 740.329 L146.344 740.329 L146.344 746.186 L140.933 746.186 Q144.18 748.191 145.74 751.183 Q147.267 754.175 147.267 758.503 Q147.267 763.978 144.212 767.224 Q141.124 770.439 135.968 770.439 Q129.953 770.439 126.897 766.429 Q123.842 762.386 123.842 754.397 L123.842 746.186 L123.269 746.186 Q119.226 746.186 117.03 748.859 Q114.802 751.501 114.802 756.307 Q114.802 759.363 115.534 762.259 Q116.266 765.155 117.73 767.829 L112.32 767.829 Q111.078 764.614 110.474 761.591 Q109.837 758.567 109.837 755.702 Q109.837 747.968 113.847 744.149 Q117.858 740.329 126.006 740.329 Z" fill="#000000" fill-rule="nonzero" fill-opacity="1" /><path clip-path="url(#clip530)" d="M128.552 702.676 Q122.091 702.676 118.431 705.35 Q114.739 707.991 114.739 712.638 Q114.739 717.285 118.431 719.959 Q122.091 722.601 128.552 722.601 Q135.013 722.601 138.705 719.959 Q142.366 717.285 142.366 712.638 Q142.366 707.991 138.705 705.35 Q135.013 702.676 128.552 702.676 M116.107 722.601 Q112.924 720.755 111.397 717.954 Q109.837 715.121 109.837 711.206 Q109.837 704.713 114.993 700.671 Q120.149 696.597 128.552 696.597 Q136.955 696.597 142.111 700.671 Q147.267 704.713 147.267 711.206 Q147.267 715.121 145.74 717.954 Q144.18 720.755 140.997 722.601 L146.344 722.601 L146.344 728.489 L96.8191 728.489 L96.8191 722.601 L116.107 722.601 Z" fill="#000000" fill-rule="nonzero" fill-opacity="1" /><path clip-path="url(#clip530)" d="M110.696 686.889 L110.696 681.033 L146.344 681.033 L146.344 686.889 L110.696 686.889 M96.8191 686.889 L96.8191 681.033 L104.235 681.033 L104.235 686.889 L96.8191 686.889 Z" fill="#000000" fill-rule="nonzero" fill-opacity="1" /><path clip-path="url(#clip530)" d="M96.8191 668.779 L96.8191 662.922 L146.344 662.922 L146.344 668.779 L96.8191 668.779 Z" fill="#000000" fill-rule="nonzero" fill-opacity="1" /><path clip-path="url(#clip530)" d="M110.696 650.668 L110.696 644.812 L146.344 644.812 L146.344 650.668 L110.696 650.668 M96.8191 650.668 L96.8191 644.812 L104.235 644.812 L104.235 650.668 L96.8191 650.668 Z" fill="#000000" fill-rule="nonzero" fill-opacity="1" /><path clip-path="url(#clip530)" d="M100.575 626.765 L110.696 626.765 L110.696 614.702 L115.248 614.702 L115.248 626.765 L134.6 626.765 Q138.96 626.765 140.201 625.587 Q141.443 624.378 141.443 620.718 L141.443 614.702 L146.344 614.702 L146.344 620.718 Q146.344 627.497 143.83 630.075 Q141.284 632.653 134.6 632.653 L115.248 632.653 L115.248 636.95 L110.696 636.95 L110.696 632.653 L100.575 632.653 L100.575 626.765 Z" fill="#000000" fill-rule="nonzero" fill-opacity="1" /><path clip-path="url(#clip530)" d="M149.654 592.167 Q156.02 594.65 157.962 597.005 Q159.903 599.361 159.903 603.307 L159.903 607.986 L155.002 607.986 L155.002 604.549 Q155.002 602.13 153.856 600.793 Q152.71 599.456 148.445 597.833 L145.771 596.783 L110.696 611.201 L110.696 604.994 L138.578 593.854 L110.696 582.714 L110.696 576.508 L149.654 592.167 Z" fill="#000000" fill-rule="nonzero" fill-opacity="1" /><path clip-path="url(#clip530)" d="M104.108 541.019 L141.061 541.019 L141.061 533.253 Q141.061 523.418 136.605 518.866 Q132.149 514.283 122.537 514.283 Q112.988 514.283 108.564 518.866 Q104.108 523.418 104.108 533.253 L104.108 541.019 M98.8243 547.448 L98.8243 534.239 Q98.8243 520.426 104.585 513.965 Q110.314 507.504 122.537 507.504 Q134.822 507.504 140.583 513.997 Q146.344 520.49 146.344 534.239 L146.344 547.448 L98.8243 547.448 Z" fill="#000000" fill-rule="nonzero" fill-opacity="1" /><path clip-path="url(#clip530)" d="M127.056 467.018 L129.921 467.018 L129.921 493.945 Q135.968 493.563 139.151 490.316 Q142.302 487.038 142.302 481.213 Q142.302 477.839 141.475 474.688 Q140.647 471.505 138.992 468.386 L144.53 468.386 Q145.867 471.537 146.567 474.847 Q147.267 478.158 147.267 481.563 Q147.267 490.093 142.302 495.09 Q137.337 500.056 128.87 500.056 Q120.118 500.056 114.993 495.345 Q109.837 490.603 109.837 482.582 Q109.837 475.389 114.484 471.219 Q119.099 467.018 127.056 467.018 M125.337 472.874 Q120.531 472.938 117.667 475.579 Q114.802 478.189 114.802 482.518 Q114.802 487.42 117.571 490.38 Q120.34 493.308 125.369 493.754 L125.337 472.874 Z" fill="#000000" fill-rule="nonzero" fill-opacity="1" /><path clip-path="url(#clip530)" d="M124.828 427.773 L146.344 427.773 L146.344 433.629 L125.019 433.629 Q119.958 433.629 117.444 435.603 Q114.93 437.576 114.93 441.523 Q114.93 446.265 117.953 449.003 Q120.977 451.74 126.197 451.74 L146.344 451.74 L146.344 457.628 L110.696 457.628 L110.696 451.74 L116.235 451.74 Q113.02 449.639 111.428 446.807 Q109.837 443.942 109.837 440.218 Q109.837 434.075 113.656 430.924 Q117.444 427.773 124.828 427.773 Z" fill="#000000" fill-rule="nonzero" fill-opacity="1" /><path clip-path="url(#clip530)" d="M111.747 393.366 L117.285 393.366 Q116.012 395.849 115.375 398.523 Q114.739 401.196 114.739 404.061 Q114.739 408.421 116.075 410.617 Q117.412 412.782 120.086 412.782 Q122.123 412.782 123.3 411.222 Q124.446 409.663 125.497 404.952 L125.942 402.947 Q127.279 396.708 129.73 394.098 Q132.149 391.457 136.509 391.457 Q141.475 391.457 144.371 395.403 Q147.267 399.318 147.267 406.193 Q147.267 409.058 146.694 412.177 Q146.153 415.264 145.039 418.702 L138.992 418.702 Q140.679 415.455 141.538 412.304 Q142.366 409.153 142.366 406.066 Q142.366 401.928 140.965 399.7 Q139.533 397.472 136.955 397.472 Q134.568 397.472 133.295 399.096 Q132.021 400.687 130.844 406.13 L130.366 408.167 Q129.221 413.609 126.865 416.028 Q124.478 418.447 120.34 418.447 Q115.311 418.447 112.574 414.882 Q109.837 411.318 109.837 404.761 Q109.837 401.515 110.314 398.65 Q110.792 395.785 111.747 393.366 Z" fill="#000000" fill-rule="nonzero" fill-opacity="1" /><path clip-path="url(#clip530)" d="M110.696 382.131 L110.696 376.274 L146.344 376.274 L146.344 382.131 L110.696 382.131 M96.8191 382.131 L96.8191 376.274 L104.235 376.274 L104.235 382.131 L96.8191 382.131 Z" fill="#000000" fill-rule="nonzero" fill-opacity="1" /><path clip-path="url(#clip530)" d="M100.575 358.228 L110.696 358.228 L110.696 346.165 L115.248 346.165 L115.248 358.228 L134.6 358.228 Q138.96 358.228 140.201 357.05 Q141.443 355.841 141.443 352.18 L141.443 346.165 L146.344 346.165 L146.344 352.18 Q146.344 358.96 143.83 361.538 Q141.284 364.116 134.6 364.116 L115.248 364.116 L115.248 368.413 L110.696 368.413 L110.696 364.116 L100.575 364.116 L100.575 358.228 Z" fill="#000000" fill-rule="nonzero" fill-opacity="1" /><path clip-path="url(#clip530)" d="M149.654 323.63 Q156.02 326.113 157.962 328.468 Q159.903 330.823 159.903 334.77 L159.903 339.449 L155.002 339.449 L155.002 336.011 Q155.002 333.592 153.856 332.256 Q152.71 330.919 148.445 329.296 L145.771 328.245 L110.696 342.664 L110.696 336.457 L138.578 325.317 L110.696 314.177 L110.696 307.97 L149.654 323.63 Z" fill="#000000" fill-rule="nonzero" fill-opacity="1" /><polyline clip-path="url(#clip532)" style="stroke:#009af9; stroke-linecap:round; stroke-linejoin:round; stroke-width:8; stroke-opacity:1; fill:none" points="551.153,1067.31 560.188,1067.31 643.733,1067.31 693.94,1067.31 736.389,1067.31 782.501,1067.31 825.012,1067.31 870.589,1067.31 923.394,1067.31 946.857,1067.31 970.32,1067.31 975.464,1067.28 980.608,1067.15 985.752,1066.75 990.895,1065.63 993.467,1064.56 996.039,1062.96 998.611,1060.66 1001.18,1057.43 1003.75,1053.03 1006.33,1047.19 1008.9,1039.65 1011.47,1030.12 1012.87,1024 1014.27,1017.17 1015.68,1009.6 1017.08,1001.26 1018.48,992.114 1019.88,982.146 1021.28,971.338 1022.69,959.678 1024.09,947.16 1025.49,933.787 1026.89,919.565 1028.3,904.509 1029.7,888.638 1031.1,871.979 1032.5,854.564 1033.9,836.433 1036.71,798.197 1039.51,757.676 1042.32,715.339 1045.12,671.699 1047.92,627.298 1050.73,582.688 1053.53,538.412 1056.34,494.995 1059.16,452.679 1061.98,412.176 1063.39,392.733 1064.8,373.887 1066.21,355.681 1067.62,338.151 1069.03,321.33 1070.44,305.247 1071.85,289.928 1073.26,275.394 1074.67,261.663 1076.08,248.749 1077.49,236.664 1078.9,225.414 1080.31,215.005 1081.72,205.437 1083.13,196.709 1084.54,188.818 1085.95,181.755 1087.36,175.513 1088.77,170.08 1090.18,165.443 1091.59,161.587 1093.01,158.496 1094.42,156.151 1095.83,154.535 1097.24,153.625 1098.65,153.402 1100.06,153.842 1101.47,154.923 1103.03,156.837 1104.59,159.474 1106.15,162.801 1107.7,166.785 1110.82,176.595 1113.94,188.639 1117.06,202.661 1120.18,218.409 1123.3,235.646 1126.42,254.142 1129.54,273.686 1132.65,294.079 1135.77,315.138 1138.89,336.696 1145.13,380.714 1151.37,425.091 1157.3,466.892 1163.24,507.723 1169.17,547.176 1175.1,584.956 1181.04,620.867 1186.97,654.789 1192.91,686.665 1198.84,716.488 1205.01,745.349 1211.19,772.085 1217.36,796.78 1223.53,819.535 1229.7,840.462 1235.87,859.675 1242.04,877.289 1248.21,893.42 1253.4,905.931 1258.6,917.534 1263.79,928.289 1268.99,938.256 1274.18,947.49 1279.38,956.043 1284.57,963.964 1289.76,971.299 1296.11,979.524 1302.45,987.012 1308.79,993.83 1315.13,1000.04 1327.82,1010.85 1340.5,1019.83 1352.12,1026.73 1363.74,1032.56 1375.36,1037.5 1386.97,1041.69 1408.44,1047.86 1429.9,1052.45 1451.64,1055.93 1473.38,1058.54 1522.11,1062.32 1566.27,1064.25 1616.82,1065.52 1663.63,1066.19 1709.78,1066.6 1754.59,1066.84 1800.53,1067 1850.85,1067.11 1923.96,1067.2 1938.96,1067.21 "/>
<polyline clip-path="url(#clip532)" style="stroke:#e26f46; stroke-linecap:round; stroke-linejoin:round; stroke-width:8; stroke-opacity:1; fill:none" points="370.302,1067.31 379.337,1067.31 462.882,1067.31 513.089,1067.31 555.539,1067.31 601.65,1067.31 644.162,1067.31 689.738,1067.31 742.543,1067.31 766.006,1067.31 789.469,1067.31 794.613,1067.28 799.757,1067.15 804.901,1066.75 810.045,1065.63 812.617,1064.56 815.188,1062.96 817.76,1060.66 820.332,1057.43 822.904,1053.03 825.476,1047.19 828.048,1039.65 830.62,1030.12 832.022,1024 833.424,1017.17 834.826,1009.6 836.228,1001.26 837.63,992.114 839.032,982.146 840.434,971.338 841.836,959.678 843.238,947.16 844.64,933.787 846.042,919.565 847.444,904.509 848.846,888.638 850.248,871.979 851.65,854.564 853.052,836.433 855.856,798.197 858.661,757.676 861.465,715.339 864.269,671.699 867.073,627.298 869.877,582.688 872.681,538.412 875.485,494.995 878.306,452.679 881.126,412.176 882.537,392.733 883.947,373.887 885.357,355.681 886.768,338.151 888.178,321.33 889.589,305.247 890.999,289.928 892.409,275.394 893.82,261.663 895.23,248.749 896.64,236.664 898.051,225.414 899.461,215.005 900.871,205.437 902.282,196.709 903.692,188.818 905.103,181.755 906.513,175.513 907.923,170.08 909.334,165.443 910.744,161.587 912.154,158.496 913.565,156.151 914.975,154.535 916.386,153.625 917.796,153.402 919.206,153.842 920.617,154.923 922.176,156.837 923.735,159.474 925.295,162.801 926.854,166.785 929.973,176.595 933.091,188.639 936.21,202.661 939.329,218.409 942.447,235.646 945.566,254.142 948.685,273.686 951.803,294.079 954.922,315.138 958.041,336.696 964.278,380.714 970.515,425.091 976.45,466.892 982.385,507.723 988.319,547.176 994.254,584.956 1000.19,620.867 1006.12,654.789 1012.06,686.665 1017.99,716.488 1024.16,745.349 1030.33,772.085 1036.5,796.78 1042.68,819.535 1048.85,840.462 1055.02,859.675 1061.19,877.289 1067.36,893.42 1072.55,905.931 1077.75,917.534 1082.94,928.289 1088.14,938.256 1093.33,947.49 1098.52,956.043 1103.72,963.964 1108.91,971.299 1115.26,979.524 1121.6,987.012 1127.94,993.83 1134.28,1000.04 1146.96,1010.85 1159.65,1019.83 1171.27,1026.73 1182.89,1032.56 1194.5,1037.5 1206.12,1041.69 1227.59,1047.86 1249.05,1052.45 1270.79,1055.93 1292.53,1058.54 1341.26,1062.32 1385.42,1064.25 1435.97,1065.52 1482.78,1066.19 1528.93,1066.6 1573.74,1066.84 1619.67,1067 1670,1067.11 1743.11,1067.2 1758.11,1067.21 "/>
<path clip-path="url(#clip530)" d="M1324.27 313.796 L1930.59 313.796 L1930.59 158.276 L1324.27 158.276  Z" fill="#ffffff" fill-rule="evenodd" fill-opacity="1"/>
<polyline clip-path="url(#clip530)" style="stroke:#000000; stroke-linecap:round; stroke-linejoin:round; stroke-width:4; stroke-opacity:1; fill:none" points="1324.27,313.796 1930.59,313.796 1930.59,158.276 1324.27,158.276 1324.27,313.796 "/>
<polyline clip-path="url(#clip530)" style="stroke:#009af9; stroke-linecap:round; stroke-linejoin:round; stroke-width:8; stroke-opacity:1; fill:none" points="1342.74,210.116 1453.6,210.116 "/>
<path clip-path="url(#clip530)" d="M1497.63 222.465 L1497.63 213.183 L1489.99 213.183 L1489.99 209.34 L1502.26 209.34 L1502.26 224.178 Q1499.55 226.1 1496.28 227.095 Q1493.02 228.067 1489.32 228.067 Q1481.21 228.067 1476.63 223.345 Q1472.07 218.6 1472.07 210.151 Q1472.07 201.678 1476.63 196.956 Q1481.21 192.211 1489.32 192.211 Q1492.7 192.211 1495.73 193.044 Q1498.78 193.877 1501.35 195.498 L1501.35 200.475 Q1498.76 198.276 1495.84 197.164 Q1492.93 196.053 1489.71 196.053 Q1483.37 196.053 1480.17 199.595 Q1477 203.137 1477 210.151 Q1477 217.141 1480.17 220.683 Q1483.37 224.225 1489.71 224.225 Q1492.19 224.225 1494.13 223.808 Q1496.08 223.368 1497.63 222.465 Z" fill="#000000" fill-rule="nonzero" fill-opacity="1" /><path clip-path="url(#clip530)" d="M1522.39 214.363 Q1517.23 214.363 1515.24 215.544 Q1513.25 216.725 1513.25 219.572 Q1513.25 221.84 1514.73 223.183 Q1516.24 224.502 1518.81 224.502 Q1522.35 224.502 1524.48 222.002 Q1526.63 219.479 1526.63 215.313 L1526.63 214.363 L1522.39 214.363 M1530.89 212.604 L1530.89 227.396 L1526.63 227.396 L1526.63 223.461 Q1525.17 225.822 1523 226.956 Q1520.82 228.067 1517.67 228.067 Q1513.69 228.067 1511.33 225.845 Q1508.99 223.6 1508.99 219.85 Q1508.99 215.475 1511.91 213.252 Q1514.85 211.03 1520.66 211.03 L1526.63 211.03 L1526.63 210.613 Q1526.63 207.674 1524.69 206.076 Q1522.76 204.456 1519.27 204.456 Q1517.05 204.456 1514.94 204.989 Q1512.83 205.521 1510.89 206.586 L1510.89 202.651 Q1513.23 201.748 1515.43 201.308 Q1517.63 200.845 1519.71 200.845 Q1525.33 200.845 1528.11 203.762 Q1530.89 206.678 1530.89 212.604 Z" fill="#000000" fill-rule="nonzero" fill-opacity="1" /><path clip-path="url(#clip530)" d="M1539.22 217.164 L1539.22 201.47 L1543.48 201.47 L1543.48 217.002 Q1543.48 220.683 1544.92 222.535 Q1546.35 224.363 1549.22 224.363 Q1552.67 224.363 1554.66 222.164 Q1556.68 219.965 1556.68 216.169 L1556.68 201.47 L1560.94 201.47 L1560.94 227.396 L1556.68 227.396 L1556.68 223.414 Q1555.13 225.775 1553.07 226.933 Q1551.03 228.067 1548.32 228.067 Q1543.85 228.067 1541.54 225.289 Q1539.22 222.512 1539.22 217.164 M1549.94 200.845 L1549.94 200.845 Z" fill="#000000" fill-rule="nonzero" fill-opacity="1" /><path clip-path="url(#clip530)" d="M1586.77 214.132 Q1586.77 209.502 1584.85 206.956 Q1582.95 204.41 1579.5 204.41 Q1576.07 204.41 1574.15 206.956 Q1572.26 209.502 1572.26 214.132 Q1572.26 218.738 1574.15 221.285 Q1576.07 223.831 1579.5 223.831 Q1582.95 223.831 1584.85 221.285 Q1586.77 218.738 1586.77 214.132 M1591.03 224.178 Q1591.03 230.799 1588.09 234.016 Q1585.15 237.257 1579.08 237.257 Q1576.84 237.257 1574.85 236.91 Q1572.86 236.586 1570.98 235.891 L1570.98 231.748 Q1572.86 232.766 1574.69 233.252 Q1576.51 233.738 1578.41 233.738 Q1582.6 233.738 1584.69 231.539 Q1586.77 229.363 1586.77 224.942 L1586.77 222.836 Q1585.45 225.127 1583.39 226.262 Q1581.33 227.396 1578.46 227.396 Q1573.69 227.396 1570.77 223.762 Q1567.86 220.127 1567.86 214.132 Q1567.86 208.113 1570.77 204.479 Q1573.69 200.845 1578.46 200.845 Q1581.33 200.845 1583.39 201.979 Q1585.45 203.114 1586.77 205.405 L1586.77 201.47 L1591.03 201.47 L1591.03 224.178 Z" fill="#000000" fill-rule="nonzero" fill-opacity="1" /><path clip-path="url(#clip530)" d="M1621.98 213.368 L1621.98 215.451 L1602.39 215.451 Q1602.67 219.85 1605.03 222.164 Q1607.42 224.456 1611.65 224.456 Q1614.11 224.456 1616.4 223.854 Q1618.71 223.252 1620.98 222.049 L1620.98 226.076 Q1618.69 227.049 1616.28 227.558 Q1613.88 228.067 1611.4 228.067 Q1605.2 228.067 1601.56 224.456 Q1597.95 220.845 1597.95 214.688 Q1597.95 208.322 1601.38 204.595 Q1604.82 200.845 1610.66 200.845 Q1615.89 200.845 1618.92 204.225 Q1621.98 207.581 1621.98 213.368 M1617.72 212.118 Q1617.67 208.623 1615.75 206.539 Q1613.85 204.456 1610.7 204.456 Q1607.14 204.456 1604.99 206.47 Q1602.86 208.484 1602.53 212.141 L1617.72 212.118 Z" fill="#000000" fill-rule="nonzero" fill-opacity="1" /><path clip-path="url(#clip530)" d="M1648.9 196.678 L1648.9 223.553 L1654.55 223.553 Q1661.7 223.553 1665.01 220.313 Q1668.34 217.072 1668.34 210.081 Q1668.34 203.137 1665.01 199.919 Q1661.7 196.678 1654.55 196.678 L1648.9 196.678 M1644.22 192.836 L1653.83 192.836 Q1663.88 192.836 1668.57 197.026 Q1673.27 201.192 1673.27 210.081 Q1673.27 219.016 1668.55 223.206 Q1663.83 227.396 1653.83 227.396 L1644.22 227.396 L1644.22 192.836 Z" fill="#000000" fill-rule="nonzero" fill-opacity="1" /><path clip-path="url(#clip530)" d="M1680.54 201.47 L1684.8 201.47 L1684.8 227.396 L1680.54 227.396 L1680.54 201.47 M1680.54 191.377 L1684.8 191.377 L1684.8 196.771 L1680.54 196.771 L1680.54 191.377 Z" fill="#000000" fill-rule="nonzero" fill-opacity="1" /><path clip-path="url(#clip530)" d="M1710.24 202.234 L1710.24 206.262 Q1708.44 205.336 1706.49 204.873 Q1704.55 204.41 1702.46 204.41 Q1699.29 204.41 1697.69 205.382 Q1696.12 206.354 1696.12 208.299 Q1696.12 209.78 1697.25 210.637 Q1698.39 211.47 1701.81 212.234 L1703.27 212.558 Q1707.81 213.53 1709.71 215.313 Q1711.63 217.072 1711.63 220.243 Q1711.63 223.854 1708.76 225.961 Q1705.91 228.067 1700.91 228.067 Q1698.83 228.067 1696.56 227.65 Q1694.31 227.257 1691.81 226.447 L1691.81 222.049 Q1694.18 223.275 1696.47 223.9 Q1698.76 224.502 1701 224.502 Q1704.01 224.502 1705.63 223.484 Q1707.25 222.442 1707.25 220.567 Q1707.25 218.831 1706.07 217.905 Q1704.92 216.979 1700.96 216.123 L1699.48 215.775 Q1695.52 214.942 1693.76 213.229 Q1692 211.493 1692 208.484 Q1692 204.826 1694.59 202.836 Q1697.19 200.845 1701.95 200.845 Q1704.31 200.845 1706.4 201.192 Q1708.48 201.539 1710.24 202.234 Z" fill="#000000" fill-rule="nonzero" fill-opacity="1" /><path clip-path="url(#clip530)" d="M1722.62 194.109 L1722.62 201.47 L1731.4 201.47 L1731.4 204.78 L1722.62 204.78 L1722.62 218.854 Q1722.62 222.025 1723.48 222.928 Q1724.36 223.831 1727.02 223.831 L1731.4 223.831 L1731.4 227.396 L1727.02 227.396 Q1722.09 227.396 1720.22 225.567 Q1718.34 223.715 1718.34 218.854 L1718.34 204.78 L1715.22 204.78 L1715.22 201.47 L1718.34 201.47 L1718.34 194.109 L1722.62 194.109 Z" fill="#000000" fill-rule="nonzero" fill-opacity="1" /><path clip-path="url(#clip530)" d="M1752.02 205.451 Q1751.31 205.035 1750.45 204.85 Q1749.62 204.641 1748.6 204.641 Q1744.99 204.641 1743.04 207.002 Q1741.12 209.34 1741.12 213.738 L1741.12 227.396 L1736.84 227.396 L1736.84 201.47 L1741.12 201.47 L1741.12 205.498 Q1742.46 203.137 1744.62 202.002 Q1746.77 200.845 1749.85 200.845 Q1750.29 200.845 1750.82 200.914 Q1751.35 200.961 1752 201.076 L1752.02 205.451 Z" fill="#000000" fill-rule="nonzero" fill-opacity="1" /><path clip-path="url(#clip530)" d="M1756.49 201.47 L1760.75 201.47 L1760.75 227.396 L1756.49 227.396 L1756.49 201.47 M1756.49 191.377 L1760.75 191.377 L1760.75 196.771 L1756.49 196.771 L1756.49 191.377 Z" fill="#000000" fill-rule="nonzero" fill-opacity="1" /><path clip-path="url(#clip530)" d="M1788.27 214.456 Q1788.27 209.757 1786.33 207.095 Q1784.41 204.41 1781.03 204.41 Q1777.65 204.41 1775.7 207.095 Q1773.78 209.757 1773.78 214.456 Q1773.78 219.155 1775.7 221.84 Q1777.65 224.502 1781.03 224.502 Q1784.41 224.502 1786.33 221.84 Q1788.27 219.155 1788.27 214.456 M1773.78 205.405 Q1775.12 203.09 1777.16 201.979 Q1779.22 200.845 1782.07 200.845 Q1786.79 200.845 1789.73 204.595 Q1792.69 208.345 1792.69 214.456 Q1792.69 220.567 1789.73 224.317 Q1786.79 228.067 1782.07 228.067 Q1779.22 228.067 1777.16 226.956 Q1775.12 225.822 1773.78 223.507 L1773.78 227.396 L1769.5 227.396 L1769.5 191.377 L1773.78 191.377 L1773.78 205.405 Z" fill="#000000" fill-rule="nonzero" fill-opacity="1" /><path clip-path="url(#clip530)" d="M1799.31 217.164 L1799.31 201.47 L1803.57 201.47 L1803.57 217.002 Q1803.57 220.683 1805.01 222.535 Q1806.44 224.363 1809.31 224.363 Q1812.76 224.363 1814.75 222.164 Q1816.77 219.965 1816.77 216.169 L1816.77 201.47 L1821.03 201.47 L1821.03 227.396 L1816.77 227.396 L1816.77 223.414 Q1815.22 225.775 1813.16 226.933 Q1811.12 228.067 1808.41 228.067 Q1803.94 228.067 1801.63 225.289 Q1799.31 222.512 1799.31 217.164 M1810.03 200.845 L1810.03 200.845 Z" fill="#000000" fill-rule="nonzero" fill-opacity="1" /><path clip-path="url(#clip530)" d="M1834.01 194.109 L1834.01 201.47 L1842.79 201.47 L1842.79 204.78 L1834.01 204.78 L1834.01 218.854 Q1834.01 222.025 1834.87 222.928 Q1835.75 223.831 1838.41 223.831 L1842.79 223.831 L1842.79 227.396 L1838.41 227.396 Q1833.48 227.396 1831.61 225.567 Q1829.73 223.715 1829.73 218.854 L1829.73 204.78 L1826.61 204.78 L1826.61 201.47 L1829.73 201.47 L1829.73 194.109 L1834.01 194.109 Z" fill="#000000" fill-rule="nonzero" fill-opacity="1" /><path clip-path="url(#clip530)" d="M1848.39 201.47 L1852.65 201.47 L1852.65 227.396 L1848.39 227.396 L1848.39 201.47 M1848.39 191.377 L1852.65 191.377 L1852.65 196.771 L1848.39 196.771 L1848.39 191.377 Z" fill="#000000" fill-rule="nonzero" fill-opacity="1" /><path clip-path="url(#clip530)" d="M1871.61 204.456 Q1868.18 204.456 1866.19 207.141 Q1864.2 209.803 1864.2 214.456 Q1864.2 219.109 1866.17 221.794 Q1868.16 224.456 1871.61 224.456 Q1875.01 224.456 1877 221.771 Q1878.99 219.086 1878.99 214.456 Q1878.99 209.85 1877 207.164 Q1875.01 204.456 1871.61 204.456 M1871.61 200.845 Q1877.16 200.845 1880.33 204.456 Q1883.5 208.067 1883.5 214.456 Q1883.5 220.822 1880.33 224.456 Q1877.16 228.067 1871.61 228.067 Q1866.03 228.067 1862.86 224.456 Q1859.71 220.822 1859.71 214.456 Q1859.71 208.067 1862.86 204.456 Q1866.03 200.845 1871.61 200.845 Z" fill="#000000" fill-rule="nonzero" fill-opacity="1" /><path clip-path="url(#clip530)" d="M1912.11 211.748 L1912.11 227.396 L1907.86 227.396 L1907.86 211.887 Q1907.86 208.206 1906.42 206.377 Q1904.99 204.549 1902.11 204.549 Q1898.67 204.549 1896.67 206.748 Q1894.68 208.947 1894.68 212.743 L1894.68 227.396 L1890.4 227.396 L1890.4 201.47 L1894.68 201.47 L1894.68 205.498 Q1896.21 203.16 1898.27 202.002 Q1900.36 200.845 1903.06 200.845 Q1907.53 200.845 1909.82 203.623 Q1912.11 206.377 1912.11 211.748 Z" fill="#000000" fill-rule="nonzero" fill-opacity="1" /><polyline clip-path="url(#clip530)" style="stroke:#e26f46; stroke-linecap:round; stroke-linejoin:round; stroke-width:8; stroke-opacity:1; fill:none" points="1342.74,261.956 1453.6,261.956 "/>
<path clip-path="url(#clip530)" d="M1472.07 244.676 L1476.75 244.676 L1476.75 258.842 L1493.74 258.842 L1493.74 244.676 L1498.41 244.676 L1498.41 279.236 L1493.74 279.236 L1493.74 262.778 L1476.75 262.778 L1476.75 279.236 L1472.07 279.236 L1472.07 244.676 Z" fill="#000000" fill-rule="nonzero" fill-opacity="1" /><path clip-path="url(#clip530)" d="M1517.58 256.296 Q1514.15 256.296 1512.16 258.981 Q1510.17 261.643 1510.17 266.296 Q1510.17 270.949 1512.14 273.634 Q1514.13 276.296 1517.58 276.296 Q1520.98 276.296 1522.97 273.611 Q1524.96 270.926 1524.96 266.296 Q1524.96 261.69 1522.97 259.004 Q1520.98 256.296 1517.58 256.296 M1517.58 252.685 Q1523.14 252.685 1526.31 256.296 Q1529.48 259.907 1529.48 266.296 Q1529.48 272.662 1526.31 276.296 Q1523.14 279.907 1517.58 279.907 Q1512 279.907 1508.83 276.296 Q1505.68 272.662 1505.68 266.296 Q1505.68 259.907 1508.83 256.296 Q1512 252.685 1517.58 252.685 Z" fill="#000000" fill-rule="nonzero" fill-opacity="1" /><path clip-path="url(#clip530)" d="M1536.1 269.004 L1536.1 253.31 L1540.36 253.31 L1540.36 268.842 Q1540.36 272.523 1541.79 274.375 Q1543.23 276.203 1546.1 276.203 Q1549.55 276.203 1551.54 274.004 Q1553.55 271.805 1553.55 268.009 L1553.55 253.31 L1557.81 253.31 L1557.81 279.236 L1553.55 279.236 L1553.55 275.254 Q1552 277.615 1549.94 278.773 Q1547.9 279.907 1545.2 279.907 Q1540.73 279.907 1538.41 277.129 Q1536.1 274.352 1536.1 269.004 M1546.82 252.685 L1546.82 252.685 Z" fill="#000000" fill-rule="nonzero" fill-opacity="1" /><path clip-path="url(#clip530)" d="M1583.11 254.074 L1583.11 258.102 Q1581.31 257.176 1579.36 256.713 Q1577.42 256.25 1575.33 256.25 Q1572.16 256.25 1570.57 257.222 Q1568.99 258.194 1568.99 260.139 Q1568.99 261.62 1570.13 262.477 Q1571.26 263.31 1574.69 264.074 L1576.14 264.398 Q1580.68 265.37 1582.58 267.153 Q1584.5 268.912 1584.5 272.083 Q1584.5 275.694 1581.63 277.801 Q1578.78 279.907 1573.78 279.907 Q1571.7 279.907 1569.43 279.49 Q1567.19 279.097 1564.69 278.287 L1564.69 273.889 Q1567.05 275.115 1569.34 275.74 Q1571.63 276.342 1573.88 276.342 Q1576.89 276.342 1578.51 275.324 Q1580.13 274.282 1580.13 272.407 Q1580.13 270.671 1578.95 269.745 Q1577.79 268.819 1573.83 267.963 L1572.35 267.615 Q1568.39 266.782 1566.63 265.069 Q1564.87 263.333 1564.87 260.324 Q1564.87 256.666 1567.46 254.676 Q1570.06 252.685 1574.82 252.685 Q1577.19 252.685 1579.27 253.032 Q1581.35 253.379 1583.11 254.074 Z" fill="#000000" fill-rule="nonzero" fill-opacity="1" /><path clip-path="url(#clip530)" d="M1613.46 265.208 L1613.46 267.291 L1593.88 267.291 Q1594.15 271.69 1596.51 274.004 Q1598.9 276.296 1603.13 276.296 Q1605.59 276.296 1607.88 275.694 Q1610.2 275.092 1612.46 273.889 L1612.46 277.916 Q1610.17 278.889 1607.76 279.398 Q1605.36 279.907 1602.88 279.907 Q1596.68 279.907 1593.04 276.296 Q1589.43 272.685 1589.43 266.528 Q1589.43 260.162 1592.86 256.435 Q1596.31 252.685 1602.14 252.685 Q1607.37 252.685 1610.4 256.065 Q1613.46 259.421 1613.46 265.208 M1609.2 263.958 Q1609.15 260.463 1607.23 258.379 Q1605.33 256.296 1602.19 256.296 Q1598.62 256.296 1596.47 258.31 Q1594.34 260.324 1594.01 263.981 L1609.2 263.958 Z" fill="#000000" fill-rule="nonzero" fill-opacity="1" /><path clip-path="url(#clip530)" d="M1640.38 248.518 L1640.38 275.393 L1646.03 275.393 Q1653.18 275.393 1656.49 272.153 Q1659.82 268.912 1659.82 261.921 Q1659.82 254.977 1656.49 251.759 Q1653.18 248.518 1646.03 248.518 L1640.38 248.518 M1635.7 244.676 L1645.31 244.676 Q1655.36 244.676 1660.06 248.866 Q1664.75 253.032 1664.75 261.921 Q1664.75 270.856 1660.03 275.046 Q1655.31 279.236 1645.31 279.236 L1635.7 279.236 L1635.7 244.676 Z" fill="#000000" fill-rule="nonzero" fill-opacity="1" /><path clip-path="url(#clip530)" d="M1672.02 253.31 L1676.28 253.31 L1676.28 279.236 L1672.02 279.236 L1672.02 253.31 M1672.02 243.217 L1676.28 243.217 L1676.28 248.611 L1672.02 248.611 L1672.02 243.217 Z" fill="#000000" fill-rule="nonzero" fill-opacity="1" /><path clip-path="url(#clip530)" d="M1701.72 254.074 L1701.72 258.102 Q1699.92 257.176 1697.97 256.713 Q1696.03 256.25 1693.94 256.25 Q1690.77 256.25 1689.18 257.222 Q1687.6 258.194 1687.6 260.139 Q1687.6 261.62 1688.74 262.477 Q1689.87 263.31 1693.3 264.074 L1694.75 264.398 Q1699.29 265.37 1701.19 267.153 Q1703.11 268.912 1703.11 272.083 Q1703.11 275.694 1700.24 277.801 Q1697.39 279.907 1692.39 279.907 Q1690.31 279.907 1688.04 279.49 Q1685.8 279.097 1683.3 278.287 L1683.3 273.889 Q1685.66 275.115 1687.95 275.74 Q1690.24 276.342 1692.49 276.342 Q1695.5 276.342 1697.12 275.324 Q1698.74 274.282 1698.74 272.407 Q1698.74 270.671 1697.56 269.745 Q1696.4 268.819 1692.44 267.963 L1690.96 267.615 Q1687 266.782 1685.24 265.069 Q1683.48 263.333 1683.48 260.324 Q1683.48 256.666 1686.07 254.676 Q1688.67 252.685 1693.44 252.685 Q1695.8 252.685 1697.88 253.032 Q1699.96 253.379 1701.72 254.074 Z" fill="#000000" fill-rule="nonzero" fill-opacity="1" /><path clip-path="url(#clip530)" d="M1714.11 245.949 L1714.11 253.31 L1722.88 253.31 L1722.88 256.62 L1714.11 256.62 L1714.11 270.694 Q1714.11 273.865 1714.96 274.768 Q1715.84 275.671 1718.5 275.671 L1722.88 275.671 L1722.88 279.236 L1718.5 279.236 Q1713.57 279.236 1711.7 277.407 Q1709.82 275.555 1709.82 270.694 L1709.82 256.62 L1706.7 256.62 L1706.7 253.31 L1709.82 253.31 L1709.82 245.949 L1714.11 245.949 Z" fill="#000000" fill-rule="nonzero" fill-opacity="1" /><path clip-path="url(#clip530)" d="M1743.5 257.291 Q1742.79 256.875 1741.93 256.69 Q1741.1 256.481 1740.08 256.481 Q1736.47 256.481 1734.52 258.842 Q1732.6 261.18 1732.6 265.578 L1732.6 279.236 L1728.32 279.236 L1728.32 253.31 L1732.6 253.31 L1732.6 257.338 Q1733.94 254.977 1736.1 253.842 Q1738.25 252.685 1741.33 252.685 Q1741.77 252.685 1742.3 252.754 Q1742.83 252.801 1743.48 252.916 L1743.5 257.291 Z" fill="#000000" fill-rule="nonzero" fill-opacity="1" /><path clip-path="url(#clip530)" d="M1747.97 253.31 L1752.23 253.31 L1752.23 279.236 L1747.97 279.236 L1747.97 253.31 M1747.97 243.217 L1752.23 243.217 L1752.23 248.611 L1747.97 248.611 L1747.97 243.217 Z" fill="#000000" fill-rule="nonzero" fill-opacity="1" /><path clip-path="url(#clip530)" d="M1779.75 266.296 Q1779.75 261.597 1777.81 258.935 Q1775.89 256.25 1772.51 256.25 Q1769.13 256.25 1767.18 258.935 Q1765.26 261.597 1765.26 266.296 Q1765.26 270.995 1767.18 273.68 Q1769.13 276.342 1772.51 276.342 Q1775.89 276.342 1777.81 273.68 Q1779.75 270.995 1779.75 266.296 M1765.26 257.245 Q1766.61 254.93 1768.64 253.819 Q1770.7 252.685 1773.55 252.685 Q1778.27 252.685 1781.21 256.435 Q1784.18 260.185 1784.18 266.296 Q1784.18 272.407 1781.21 276.157 Q1778.27 279.907 1773.55 279.907 Q1770.7 279.907 1768.64 278.796 Q1766.61 277.662 1765.26 275.347 L1765.26 279.236 L1760.98 279.236 L1760.98 243.217 L1765.26 243.217 L1765.26 257.245 Z" fill="#000000" fill-rule="nonzero" fill-opacity="1" /><path clip-path="url(#clip530)" d="M1790.8 269.004 L1790.8 253.31 L1795.06 253.31 L1795.06 268.842 Q1795.06 272.523 1796.49 274.375 Q1797.93 276.203 1800.8 276.203 Q1804.24 276.203 1806.24 274.004 Q1808.25 271.805 1808.25 268.009 L1808.25 253.31 L1812.51 253.31 L1812.51 279.236 L1808.25 279.236 L1808.25 275.254 Q1806.7 277.615 1804.64 278.773 Q1802.6 279.907 1799.89 279.907 Q1795.43 279.907 1793.11 277.129 Q1790.8 274.352 1790.8 269.004 M1801.51 252.685 L1801.51 252.685 Z" fill="#000000" fill-rule="nonzero" fill-opacity="1" /><path clip-path="url(#clip530)" d="M1825.49 245.949 L1825.49 253.31 L1834.27 253.31 L1834.27 256.62 L1825.49 256.62 L1825.49 270.694 Q1825.49 273.865 1826.35 274.768 Q1827.23 275.671 1829.89 275.671 L1834.27 275.671 L1834.27 279.236 L1829.89 279.236 Q1824.96 279.236 1823.09 277.407 Q1821.21 275.555 1821.21 270.694 L1821.21 256.62 L1818.09 256.62 L1818.09 253.31 L1821.21 253.31 L1821.21 245.949 L1825.49 245.949 Z" fill="#000000" fill-rule="nonzero" fill-opacity="1" /><path clip-path="url(#clip530)" d="M1839.87 253.31 L1844.13 253.31 L1844.13 279.236 L1839.87 279.236 L1839.87 253.31 M1839.87 243.217 L1844.13 243.217 L1844.13 248.611 L1839.87 248.611 L1839.87 243.217 Z" fill="#000000" fill-rule="nonzero" fill-opacity="1" /><path clip-path="url(#clip530)" d="M1863.09 256.296 Q1859.66 256.296 1857.67 258.981 Q1855.68 261.643 1855.68 266.296 Q1855.68 270.949 1857.65 273.634 Q1859.64 276.296 1863.09 276.296 Q1866.49 276.296 1868.48 273.611 Q1870.47 270.926 1870.47 266.296 Q1870.47 261.69 1868.48 259.004 Q1866.49 256.296 1863.09 256.296 M1863.09 252.685 Q1868.64 252.685 1871.81 256.296 Q1874.99 259.907 1874.99 266.296 Q1874.99 272.662 1871.81 276.296 Q1868.64 279.907 1863.09 279.907 Q1857.51 279.907 1854.34 276.296 Q1851.19 272.662 1851.19 266.296 Q1851.19 259.907 1854.34 256.296 Q1857.51 252.685 1863.09 252.685 Z" fill="#000000" fill-rule="nonzero" fill-opacity="1" /><path clip-path="url(#clip530)" d="M1903.6 263.588 L1903.6 279.236 L1899.34 279.236 L1899.34 263.727 Q1899.34 260.046 1897.9 258.217 Q1896.47 256.389 1893.6 256.389 Q1890.15 256.389 1888.16 258.588 Q1886.17 260.787 1886.17 264.583 L1886.17 279.236 L1881.88 279.236 L1881.88 253.31 L1886.17 253.31 L1886.17 257.338 Q1887.69 255 1889.75 253.842 Q1891.84 252.685 1894.55 252.685 Q1899.01 252.685 1901.3 255.463 Q1903.6 258.217 1903.6 263.588 Z" fill="#000000" fill-rule="nonzero" fill-opacity="1" /></svg>
