<?xml version="1.0" encoding="utf-8"?>
<svg xmlns="http://www.w3.org/2000/svg" xmlns:xlink="http://www.w3.org/1999/xlink" width="528" height="336" viewBox="0 0 2112 1344">
<defs>
  <clipPath id="clip650">
    <rect x="0" y="0" width="2112" height="1344"/>
  </clipPath>
</defs>
<path clip-path="url(#clip650)" d="M0 1344 L2112 1344 L2112 0 L0 0  Z" fill="#ffffff" fill-rule="evenodd" fill-opacity="1"/>
<defs>
  <clipPath id="clip651">
    <rect x="422" y="0" width="1479" height="1344"/>
  </clipPath>
</defs>
<path clip-path="url(#clip650)" d="M323.242 1094.73 L1986.02 1094.73 L1986.02 125.984 L323.242 125.984  Z" fill="#ffffff" fill-rule="evenodd" fill-opacity="1"/>
<defs>
  <clipPath id="clip652">
    <rect x="323" y="125" width="1664" height="970"/>
  </clipPath>
</defs>
<polyline clip-path="url(#clip652)" style="stroke:#000000; stroke-linecap:round; stroke-linejoin:round; stroke-width:2; stroke-opacity:0.1; fill:none" points="551.153,1094.73 551.153,125.984 "/>
<polyline clip-path="url(#clip652)" style="stroke:#000000; stroke-linecap:round; stroke-linejoin:round; stroke-width:2; stroke-opacity:0.1; fill:none" points="919.484,1094.73 919.484,125.984 "/>
<polyline clip-path="url(#clip652)" style="stroke:#000000; stroke-linecap:round; stroke-linejoin:round; stroke-width:2; stroke-opacity:0.1; fill:none" points="1287.82,1094.73 1287.82,125.984 "/>
<polyline clip-path="url(#clip652)" style="stroke:#000000; stroke-linecap:round; stroke-linejoin:round; stroke-width:2; stroke-opacity:0.1; fill:none" points="1656.15,1094.73 1656.15,125.984 "/>
<polyline clip-path="url(#clip650)" style="stroke:#000000; stroke-linecap:round; stroke-linejoin:round; stroke-width:4; stroke-opacity:1; fill:none" points="323.242,1094.73 1986.02,1094.73 "/>
<polyline clip-path="url(#clip650)" style="stroke:#000000; stroke-linecap:round; stroke-linejoin:round; stroke-width:4; stroke-opacity:1; fill:none" points="551.153,1094.73 551.153,1075.83 "/>
<polyline clip-path="url(#clip650)" style="stroke:#000000; stroke-linecap:round; stroke-linejoin:round; stroke-width:4; stroke-opacity:1; fill:none" points="919.484,1094.73 919.484,1075.83 "/>
<polyline clip-path="url(#clip650)" style="stroke:#000000; stroke-linecap:round; stroke-linejoin:round; stroke-width:4; stroke-opacity:1; fill:none" points="1287.82,1094.73 1287.82,1075.83 "/>
<polyline clip-path="url(#clip650)" style="stroke:#000000; stroke-linecap:round; stroke-linejoin:round; stroke-width:4; stroke-opacity:1; fill:none" points="1656.15,1094.73 1656.15,1075.83 "/>
<path clip-path="url(#clip650)" d="M505.215 1138 L534.891 1138 L534.891 1141.93 L505.215 1141.93 L505.215 1138 Z" fill="#000000" fill-rule="nonzero" fill-opacity="1" /><path clip-path="url(#clip650)" d="M545.794 1150.89 L553.433 1150.89 L553.433 1124.53 L545.123 1126.19 L545.123 1121.93 L553.386 1120.27 L558.062 1120.27 L558.062 1150.89 L565.701 1150.89 L565.701 1154.83 L545.794 1154.83 L545.794 1150.89 Z" fill="#000000" fill-rule="nonzero" fill-opacity="1" /><path clip-path="url(#clip650)" d="M585.145 1123.35 Q581.534 1123.35 579.706 1126.91 Q577.9 1130.45 577.9 1137.58 Q577.9 1144.69 579.706 1148.25 Q581.534 1151.79 585.145 1151.79 Q588.78 1151.79 590.585 1148.25 Q592.414 1144.69 592.414 1137.58 Q592.414 1130.45 590.585 1126.91 Q588.78 1123.35 585.145 1123.35 M585.145 1119.64 Q590.956 1119.64 594.011 1124.25 Q597.09 1128.83 597.09 1137.58 Q597.09 1146.31 594.011 1150.91 Q590.956 1155.5 585.145 1155.5 Q579.335 1155.5 576.257 1150.91 Q573.201 1146.31 573.201 1137.58 Q573.201 1128.83 576.257 1124.25 Q579.335 1119.64 585.145 1119.64 Z" fill="#000000" fill-rule="nonzero" fill-opacity="1" /><path clip-path="url(#clip650)" d="M919.484 1123.35 Q915.873 1123.35 914.044 1126.91 Q912.239 1130.45 912.239 1137.58 Q912.239 1144.69 914.044 1148.25 Q915.873 1151.79 919.484 1151.79 Q923.118 1151.79 924.924 1148.25 Q926.753 1144.69 926.753 1137.58 Q926.753 1130.45 924.924 1126.91 Q923.118 1123.35 919.484 1123.35 M919.484 1119.64 Q925.294 1119.64 928.35 1124.25 Q931.429 1128.83 931.429 1137.58 Q931.429 1146.31 928.35 1150.91 Q925.294 1155.5 919.484 1155.5 Q913.674 1155.5 910.595 1150.91 Q907.54 1146.31 907.54 1137.58 Q907.54 1128.83 910.595 1124.25 Q913.674 1119.64 919.484 1119.64 Z" fill="#000000" fill-rule="nonzero" fill-opacity="1" /><path clip-path="url(#clip650)" d="M1262.5 1150.89 L1270.14 1150.89 L1270.14 1124.53 L1261.83 1126.19 L1261.83 1121.93 L1270.1 1120.27 L1274.77 1120.27 L1274.77 1150.89 L1282.41 1150.89 L1282.41 1154.83 L1262.5 1154.83 L1262.5 1150.89 Z" fill="#000000" fill-rule="nonzero" fill-opacity="1" /><path clip-path="url(#clip650)" d="M1301.85 1123.35 Q1298.24 1123.35 1296.42 1126.91 Q1294.61 1130.45 1294.61 1137.58 Q1294.61 1144.69 1296.42 1148.25 Q1298.24 1151.79 1301.85 1151.79 Q1305.49 1151.79 1307.29 1148.25 Q1309.12 1144.69 1309.12 1137.58 Q1309.12 1130.45 1307.29 1126.91 Q1305.49 1123.35 1301.85 1123.35 M1301.85 1119.64 Q1307.67 1119.64 1310.72 1124.25 Q1313.8 1128.83 1313.8 1137.58 Q1313.8 1146.31 1310.72 1150.91 Q1307.67 1155.5 1301.85 1155.5 Q1296.04 1155.5 1292.97 1150.91 Q1289.91 1146.31 1289.91 1137.58 Q1289.91 1128.83 1292.97 1124.25 Q1296.04 1119.64 1301.85 1119.64 Z" fill="#000000" fill-rule="nonzero" fill-opacity="1" /><path clip-path="url(#clip650)" d="M1634.92 1150.89 L1651.24 1150.89 L1651.24 1154.83 L1629.3 1154.83 L1629.3 1150.89 Q1631.96 1148.14 1636.54 1143.51 Q1641.15 1138.85 1642.33 1137.51 Q1644.57 1134.99 1645.45 1133.25 Q1646.36 1131.49 1646.36 1129.8 Q1646.36 1127.05 1644.41 1125.31 Q1642.49 1123.58 1639.39 1123.58 Q1637.19 1123.58 1634.74 1124.34 Q1632.3 1125.1 1629.53 1126.66 L1629.53 1121.93 Q1632.35 1120.8 1634.8 1120.22 Q1637.26 1119.64 1639.3 1119.64 Q1644.67 1119.64 1647.86 1122.33 Q1651.05 1125.01 1651.05 1129.5 Q1651.05 1131.63 1650.24 1133.55 Q1649.46 1135.45 1647.35 1138.04 Q1646.77 1138.72 1643.67 1141.93 Q1640.57 1145.13 1634.92 1150.89 Z" fill="#000000" fill-rule="nonzero" fill-opacity="1" /><path clip-path="url(#clip650)" d="M1671.05 1123.35 Q1667.44 1123.35 1665.61 1126.91 Q1663.81 1130.45 1663.81 1137.58 Q1663.81 1144.69 1665.61 1148.25 Q1667.44 1151.79 1671.05 1151.79 Q1674.69 1151.79 1676.49 1148.25 Q1678.32 1144.69 1678.32 1137.58 Q1678.32 1130.45 1676.49 1126.91 Q1674.69 1123.35 1671.05 1123.35 M1671.05 1119.64 Q1676.86 1119.64 1679.92 1124.25 Q1683 1128.83 1683 1137.58 Q1683 1146.31 1679.92 1150.91 Q1676.86 1155.5 1671.05 1155.5 Q1665.24 1155.5 1662.17 1150.91 Q1659.11 1146.31 1659.11 1137.58 Q1659.11 1128.83 1662.17 1124.25 Q1665.24 1119.64 1671.05 1119.64 Z" fill="#000000" fill-rule="nonzero" fill-opacity="1" /><path clip-path="url(#clip650)" d="M906.303 1187.75 L912.796 1187.75 L922.79 1227.92 L932.752 1187.75 L939.977 1187.75 L949.972 1227.92 L959.934 1187.75 L966.459 1187.75 L954.523 1235.27 L946.439 1235.27 L936.413 1194.02 L926.291 1235.27 L918.207 1235.27 L906.303 1187.75 Z" fill="#000000" fill-rule="nonzero" fill-opacity="1" /><path clip-path="url(#clip650)" d="M986.765 1217.36 Q979.668 1217.36 976.93 1218.98 Q974.193 1220.6 974.193 1224.52 Q974.193 1227.64 976.23 1229.48 Q978.299 1231.3 981.832 1231.3 Q986.702 1231.3 989.63 1227.86 Q992.59 1224.39 992.59 1218.66 L992.59 1217.36 L986.765 1217.36 M998.446 1214.94 L998.446 1235.27 L992.59 1235.27 L992.59 1229.86 Q990.585 1233.11 987.593 1234.67 Q984.601 1236.2 980.272 1236.2 Q974.798 1236.2 971.551 1233.14 Q968.337 1230.05 968.337 1224.9 Q968.337 1218.88 972.347 1215.83 Q976.389 1212.77 984.378 1212.77 L992.59 1212.77 L992.59 1212.2 Q992.59 1208.16 989.916 1205.96 Q987.275 1203.73 982.468 1203.73 Q979.413 1203.73 976.516 1204.46 Q973.62 1205.2 970.947 1206.66 L970.947 1201.25 Q974.161 1200.01 977.185 1199.4 Q980.209 1198.77 983.073 1198.77 Q990.808 1198.77 994.627 1202.78 Q998.446 1206.79 998.446 1214.94 Z" fill="#000000" fill-rule="nonzero" fill-opacity="1" /><path clip-path="url(#clip650)" d="M1016.3 1189.51 L1016.3 1199.63 L1028.37 1199.63 L1028.37 1204.18 L1016.3 1204.18 L1016.3 1223.53 Q1016.3 1227.89 1017.48 1229.13 Q1018.69 1230.37 1022.35 1230.37 L1028.37 1230.37 L1028.37 1235.27 L1022.35 1235.27 Q1015.57 1235.27 1012.99 1232.76 Q1010.41 1230.21 1010.41 1223.53 L1010.41 1204.18 L1006.12 1204.18 L1006.12 1199.63 L1010.41 1199.63 L1010.41 1189.51 L1016.3 1189.51 Z" fill="#000000" fill-rule="nonzero" fill-opacity="1" /><path clip-path="url(#clip650)" d="M1066.56 1215.99 L1066.56 1218.85 L1039.63 1218.85 Q1040.01 1224.9 1043.26 1228.08 Q1046.54 1231.23 1052.36 1231.23 Q1055.74 1231.23 1058.89 1230.4 Q1062.07 1229.58 1065.19 1227.92 L1065.19 1233.46 Q1062.04 1234.8 1058.73 1235.5 Q1055.42 1236.2 1052.01 1236.2 Q1043.48 1236.2 1038.49 1231.23 Q1033.52 1226.27 1033.52 1217.8 Q1033.52 1209.05 1038.23 1203.92 Q1042.97 1198.77 1051 1198.77 Q1058.19 1198.77 1062.36 1203.41 Q1066.56 1208.03 1066.56 1215.99 M1060.7 1214.27 Q1060.64 1209.46 1058 1206.6 Q1055.39 1203.73 1051.06 1203.73 Q1046.16 1203.73 1043.2 1206.5 Q1040.27 1209.27 1039.82 1214.3 L1060.7 1214.27 Z" fill="#000000" fill-rule="nonzero" fill-opacity="1" /><path clip-path="url(#clip650)" d="M1096.83 1205.1 Q1095.84 1204.53 1094.66 1204.27 Q1093.52 1203.99 1092.12 1203.99 Q1087.15 1203.99 1084.48 1207.23 Q1081.84 1210.45 1081.84 1216.5 L1081.84 1235.27 L1075.95 1235.27 L1075.95 1199.63 L1081.84 1199.63 L1081.84 1205.16 Q1083.68 1201.92 1086.64 1200.36 Q1089.6 1198.77 1093.84 1198.77 Q1094.44 1198.77 1095.17 1198.86 Q1095.91 1198.93 1096.8 1199.09 L1096.83 1205.1 Z" fill="#000000" fill-rule="nonzero" fill-opacity="1" /><path clip-path="url(#clip650)" d="M1123.95 1187.75 L1130.38 1187.75 L1130.38 1229.86 L1153.51 1229.86 L1153.51 1235.27 L1123.95 1235.27 L1123.95 1187.75 Z" fill="#000000" fill-rule="nonzero" fill-opacity="1" /><path clip-path="url(#clip650)" d="M1189.35 1215.99 L1189.35 1218.85 L1162.43 1218.85 Q1162.81 1224.9 1166.06 1228.08 Q1169.33 1231.23 1175.16 1231.23 Q1178.53 1231.23 1181.68 1230.4 Q1184.87 1229.58 1187.99 1227.92 L1187.99 1233.46 Q1184.83 1234.8 1181.52 1235.5 Q1178.21 1236.2 1174.81 1236.2 Q1166.28 1236.2 1161.28 1231.23 Q1156.32 1226.27 1156.32 1217.8 Q1156.32 1209.05 1161.03 1203.92 Q1165.77 1198.77 1173.79 1198.77 Q1180.98 1198.77 1185.15 1203.41 Q1189.35 1208.03 1189.35 1215.99 M1183.5 1214.27 Q1183.43 1209.46 1180.79 1206.6 Q1178.18 1203.73 1173.85 1203.73 Q1168.95 1203.73 1165.99 1206.5 Q1163.06 1209.27 1162.62 1214.3 L1183.5 1214.27 Z" fill="#000000" fill-rule="nonzero" fill-opacity="1" /><path clip-path="url(#clip650)" d="M1194.76 1199.63 L1200.97 1199.63 L1212.11 1229.55 L1223.25 1199.63 L1229.46 1199.63 L1216.09 1235.27 L1208.13 1235.27 L1194.76 1199.63 Z" fill="#000000" fill-rule="nonzero" fill-opacity="1" /><path clip-path="url(#clip650)" d="M1268.03 1215.99 L1268.03 1218.85 L1241.11 1218.85 Q1241.49 1224.9 1244.74 1228.08 Q1248.01 1231.23 1253.84 1231.23 Q1257.21 1231.23 1260.36 1230.4 Q1263.55 1229.58 1266.67 1227.92 L1266.67 1233.46 Q1263.51 1234.8 1260.2 1235.5 Q1256.89 1236.2 1253.49 1236.2 Q1244.96 1236.2 1239.96 1231.23 Q1235 1226.27 1235 1217.8 Q1235 1209.05 1239.71 1203.92 Q1244.45 1198.77 1252.47 1198.77 Q1259.66 1198.77 1263.83 1203.41 Q1268.03 1208.03 1268.03 1215.99 M1262.18 1214.27 Q1262.11 1209.46 1259.47 1206.6 Q1256.86 1203.73 1252.53 1203.73 Q1247.63 1203.73 1244.67 1206.5 Q1241.74 1209.27 1241.3 1214.3 L1262.18 1214.27 Z" fill="#000000" fill-rule="nonzero" fill-opacity="1" /><path clip-path="url(#clip650)" d="M1277.65 1185.75 L1283.5 1185.75 L1283.5 1235.27 L1277.65 1235.27 L1277.65 1185.75 Z" fill="#000000" fill-rule="nonzero" fill-opacity="1" /><path clip-path="url(#clip650)" d="M1330.55 1185.81 Q1326.28 1193.13 1324.21 1200.3 Q1322.14 1207.46 1322.14 1214.81 Q1322.14 1222.16 1324.21 1229.39 Q1326.31 1236.58 1330.55 1243.87 L1325.45 1243.87 Q1320.68 1236.39 1318.29 1229.16 Q1315.94 1221.94 1315.94 1214.81 Q1315.94 1207.71 1318.29 1200.52 Q1320.65 1193.32 1325.45 1185.81 L1330.55 1185.81 Z" fill="#000000" fill-rule="nonzero" fill-opacity="1" /><path clip-path="url(#clip650)" d="M1359.95 1185.75 L1359.95 1190.62 L1354.35 1190.62 Q1351.2 1190.62 1349.96 1191.89 Q1348.75 1193.17 1348.75 1196.48 L1348.75 1199.63 L1358.4 1199.63 L1358.4 1204.18 L1348.75 1204.18 L1348.75 1235.27 L1342.86 1235.27 L1342.86 1204.18 L1337.26 1204.18 L1337.26 1199.63 L1342.86 1199.63 L1342.86 1197.14 Q1342.86 1191.19 1345.63 1188.49 Q1348.4 1185.75 1354.42 1185.75 L1359.95 1185.75 Z" fill="#000000" fill-rule="nonzero" fill-opacity="1" /><path clip-path="url(#clip650)" d="M1369.5 1189.51 L1369.5 1199.63 L1381.57 1199.63 L1381.57 1204.18 L1369.5 1204.18 L1369.5 1223.53 Q1369.5 1227.89 1370.68 1229.13 Q1371.89 1230.37 1375.55 1230.37 L1381.57 1230.37 L1381.57 1235.27 L1375.55 1235.27 Q1368.77 1235.27 1366.19 1232.76 Q1363.62 1230.21 1363.62 1223.53 L1363.62 1204.18 L1359.32 1204.18 L1359.32 1199.63 L1363.62 1199.63 L1363.62 1189.51 L1369.5 1189.51 Z" fill="#000000" fill-rule="nonzero" fill-opacity="1" /><path clip-path="url(#clip650)" d="M1388.35 1185.81 L1393.44 1185.81 Q1398.21 1193.32 1400.57 1200.52 Q1402.96 1207.71 1402.96 1214.81 Q1402.96 1221.94 1400.57 1229.16 Q1398.21 1236.39 1393.44 1243.87 L1388.35 1243.87 Q1392.58 1236.58 1394.65 1229.39 Q1396.75 1222.16 1396.75 1214.81 Q1396.75 1207.46 1394.65 1200.3 Q1392.58 1193.13 1388.35 1185.81 Z" fill="#000000" fill-rule="nonzero" fill-opacity="1" /><polyline clip-path="url(#clip652)" style="stroke:#000000; stroke-linecap:round; stroke-linejoin:round; stroke-width:2; stroke-opacity:0.1; fill:none" points="323.242,1067.31 1986.02,1067.31 "/>
<polyline clip-path="url(#clip652)" style="stroke:#000000; stroke-linecap:round; stroke-linejoin:round; stroke-width:2; stroke-opacity:0.1; fill:none" points="323.242,881.891 1986.02,881.891 "/>
<polyline clip-path="url(#clip652)" style="stroke:#000000; stroke-linecap:round; stroke-linejoin:round; stroke-width:2; stroke-opacity:0.1; fill:none" points="323.242,696.469 1986.02,696.469 "/>
<polyline clip-path="url(#clip652)" style="stroke:#000000; stroke-linecap:round; stroke-linejoin:round; stroke-width:2; stroke-opacity:0.1; fill:none" points="323.242,511.046 1986.02,511.046 "/>
<polyline clip-path="url(#clip652)" style="stroke:#000000; stroke-linecap:round; stroke-linejoin:round; stroke-width:2; stroke-opacity:0.1; fill:none" points="323.242,325.624 1986.02,325.624 "/>
<polyline clip-path="url(#clip652)" style="stroke:#000000; stroke-linecap:round; stroke-linejoin:round; stroke-width:2; stroke-opacity:0.1; fill:none" points="323.242,140.202 1986.02,140.202 "/>
<polyline clip-path="url(#clip650)" style="stroke:#000000; stroke-linecap:round; stroke-linejoin:round; stroke-width:4; stroke-opacity:1; fill:none" points="323.242,1094.73 323.242,125.984 "/>
<polyline clip-path="url(#clip650)" style="stroke:#000000; stroke-linecap:round; stroke-linejoin:round; stroke-width:4; stroke-opacity:1; fill:none" points="323.242,1067.31 342.14,1067.31 "/>
<polyline clip-path="url(#clip650)" style="stroke:#000000; stroke-linecap:round; stroke-linejoin:round; stroke-width:4; stroke-opacity:1; fill:none" points="323.242,881.891 342.14,881.891 "/>
<polyline clip-path="url(#clip650)" style="stroke:#000000; stroke-linecap:round; stroke-linejoin:round; stroke-width:4; stroke-opacity:1; fill:none" points="323.242,696.469 342.14,696.469 "/>
<polyline clip-path="url(#clip650)" style="stroke:#000000; stroke-linecap:round; stroke-linejoin:round; stroke-width:4; stroke-opacity:1; fill:none" points="323.242,511.046 342.14,511.046 "/>
<polyline clip-path="url(#clip650)" style="stroke:#000000; stroke-linecap:round; stroke-linejoin:round; stroke-width:4; stroke-opacity:1; fill:none" points="323.242,325.624 342.14,325.624 "/>
<polyline clip-path="url(#clip650)" style="stroke:#000000; stroke-linecap:round; stroke-linejoin:round; stroke-width:4; stroke-opacity:1; fill:none" points="323.242,140.202 342.14,140.202 "/>
<path clip-path="url(#clip650)" d="M204.225 1053.11 Q200.614 1053.11 198.785 1056.68 Q196.979 1060.22 196.979 1067.35 Q196.979 1074.45 198.785 1078.02 Q200.614 1081.56 204.225 1081.56 Q207.859 1081.56 209.664 1078.02 Q211.493 1074.45 211.493 1067.35 Q211.493 1060.22 209.664 1056.68 Q207.859 1053.11 204.225 1053.11 M204.225 1049.41 Q210.035 1049.41 213.09 1054.01 Q216.169 1058.6 216.169 1067.35 Q216.169 1076.07 213.09 1080.68 Q210.035 1085.26 204.225 1085.26 Q198.415 1085.26 195.336 1080.68 Q192.28 1076.07 192.28 1067.35 Q192.28 1058.6 195.336 1054.01 Q198.415 1049.41 204.225 1049.41 Z" fill="#000000" fill-rule="nonzero" fill-opacity="1" /><path clip-path="url(#clip650)" d="M224.387 1078.71 L229.271 1078.71 L229.271 1084.59 L224.387 1084.59 L224.387 1078.71 Z" fill="#000000" fill-rule="nonzero" fill-opacity="1" /><path clip-path="url(#clip650)" d="M249.456 1053.11 Q245.845 1053.11 244.016 1056.68 Q242.211 1060.22 242.211 1067.35 Q242.211 1074.45 244.016 1078.02 Q245.845 1081.56 249.456 1081.56 Q253.09 1081.56 254.896 1078.02 Q256.724 1074.45 256.724 1067.35 Q256.724 1060.22 254.896 1056.68 Q253.09 1053.11 249.456 1053.11 M249.456 1049.41 Q255.266 1049.41 258.322 1054.01 Q261.4 1058.6 261.4 1067.35 Q261.4 1076.07 258.322 1080.68 Q255.266 1085.26 249.456 1085.26 Q243.646 1085.26 240.567 1080.68 Q237.512 1076.07 237.512 1067.35 Q237.512 1058.6 240.567 1054.01 Q243.646 1049.41 249.456 1049.41 Z" fill="#000000" fill-rule="nonzero" fill-opacity="1" /><path clip-path="url(#clip650)" d="M279.618 1053.11 Q276.007 1053.11 274.178 1056.68 Q272.372 1060.22 272.372 1067.35 Q272.372 1074.45 274.178 1078.02 Q276.007 1081.56 279.618 1081.56 Q283.252 1081.56 285.058 1078.02 Q286.886 1074.45 286.886 1067.35 Q286.886 1060.22 285.058 1056.68 Q283.252 1053.11 279.618 1053.11 M279.618 1049.41 Q285.428 1049.41 288.484 1054.01 Q291.562 1058.6 291.562 1067.35 Q291.562 1076.07 288.484 1080.68 Q285.428 1085.26 279.618 1085.26 Q273.808 1085.26 270.729 1080.68 Q267.673 1076.07 267.673 1067.35 Q267.673 1058.6 270.729 1054.01 Q273.808 1049.41 279.618 1049.41 Z" fill="#000000" fill-rule="nonzero" fill-opacity="1" /><path clip-path="url(#clip650)" d="M205.22 867.69 Q201.609 867.69 199.78 871.254 Q197.975 874.796 197.975 881.926 Q197.975 889.032 199.78 892.597 Q201.609 896.139 205.22 896.139 Q208.854 896.139 210.66 892.597 Q212.489 889.032 212.489 881.926 Q212.489 874.796 210.66 871.254 Q208.854 867.69 205.22 867.69 M205.22 863.986 Q211.03 863.986 214.086 868.592 Q217.164 873.176 217.164 881.926 Q217.164 890.652 214.086 895.259 Q211.03 899.842 205.22 899.842 Q199.41 899.842 196.331 895.259 Q193.276 890.652 193.276 881.926 Q193.276 873.176 196.331 868.592 Q199.41 863.986 205.22 863.986 Z" fill="#000000" fill-rule="nonzero" fill-opacity="1" /><path clip-path="url(#clip650)" d="M225.382 893.291 L230.266 893.291 L230.266 899.171 L225.382 899.171 L225.382 893.291 Z" fill="#000000" fill-rule="nonzero" fill-opacity="1" /><path clip-path="url(#clip650)" d="M250.451 867.69 Q246.84 867.69 245.012 871.254 Q243.206 874.796 243.206 881.926 Q243.206 889.032 245.012 892.597 Q246.84 896.139 250.451 896.139 Q254.086 896.139 255.891 892.597 Q257.72 889.032 257.72 881.926 Q257.72 874.796 255.891 871.254 Q254.086 867.69 250.451 867.69 M250.451 863.986 Q256.261 863.986 259.317 868.592 Q262.396 873.176 262.396 881.926 Q262.396 890.652 259.317 895.259 Q256.261 899.842 250.451 899.842 Q244.641 899.842 241.562 895.259 Q238.507 890.652 238.507 881.926 Q238.507 873.176 241.562 868.592 Q244.641 863.986 250.451 863.986 Z" fill="#000000" fill-rule="nonzero" fill-opacity="1" /><path clip-path="url(#clip650)" d="M270.66 864.611 L289.016 864.611 L289.016 868.546 L274.942 868.546 L274.942 877.018 Q275.96 876.671 276.979 876.509 Q277.997 876.324 279.016 876.324 Q284.803 876.324 288.183 879.495 Q291.562 882.666 291.562 888.083 Q291.562 893.662 288.09 896.764 Q284.618 899.842 278.298 899.842 Q276.122 899.842 273.854 899.472 Q271.609 899.102 269.201 898.361 L269.201 893.662 Q271.285 894.796 273.507 895.352 Q275.729 895.907 278.206 895.907 Q282.21 895.907 284.548 893.801 Q286.886 891.694 286.886 888.083 Q286.886 884.472 284.548 882.365 Q282.21 880.259 278.206 880.259 Q276.331 880.259 274.456 880.676 Q272.604 881.092 270.66 881.972 L270.66 864.611 Z" fill="#000000" fill-rule="nonzero" fill-opacity="1" /><path clip-path="url(#clip650)" d="M204.225 682.267 Q200.614 682.267 198.785 685.832 Q196.979 689.374 196.979 696.503 Q196.979 703.61 198.785 707.175 Q200.614 710.716 204.225 710.716 Q207.859 710.716 209.664 707.175 Q211.493 703.61 211.493 696.503 Q211.493 689.374 209.664 685.832 Q207.859 682.267 204.225 682.267 M204.225 678.564 Q210.035 678.564 213.09 683.17 Q216.169 687.753 216.169 696.503 Q216.169 705.23 213.09 709.837 Q210.035 714.42 204.225 714.42 Q198.415 714.42 195.336 709.837 Q192.28 705.23 192.28 696.503 Q192.28 687.753 195.336 683.17 Q198.415 678.564 204.225 678.564 Z" fill="#000000" fill-rule="nonzero" fill-opacity="1" /><path clip-path="url(#clip650)" d="M224.387 707.869 L229.271 707.869 L229.271 713.749 L224.387 713.749 L224.387 707.869 Z" fill="#000000" fill-rule="nonzero" fill-opacity="1" /><path clip-path="url(#clip650)" d="M240.266 709.813 L247.905 709.813 L247.905 683.448 L239.595 685.115 L239.595 680.855 L247.859 679.189 L252.535 679.189 L252.535 709.813 L260.173 709.813 L260.173 713.749 L240.266 713.749 L240.266 709.813 Z" fill="#000000" fill-rule="nonzero" fill-opacity="1" /><path clip-path="url(#clip650)" d="M279.618 682.267 Q276.007 682.267 274.178 685.832 Q272.372 689.374 272.372 696.503 Q272.372 703.61 274.178 707.175 Q276.007 710.716 279.618 710.716 Q283.252 710.716 285.058 707.175 Q286.886 703.61 286.886 696.503 Q286.886 689.374 285.058 685.832 Q283.252 682.267 279.618 682.267 M279.618 678.564 Q285.428 678.564 288.484 683.17 Q291.562 687.753 291.562 696.503 Q291.562 705.23 288.484 709.837 Q285.428 714.42 279.618 714.42 Q273.808 714.42 270.729 709.837 Q267.673 705.23 267.673 696.503 Q267.673 687.753 270.729 683.17 Q273.808 678.564 279.618 678.564 Z" fill="#000000" fill-rule="nonzero" fill-opacity="1" /><path clip-path="url(#clip650)" d="M205.22 496.845 Q201.609 496.845 199.78 500.41 Q197.975 503.952 197.975 511.081 Q197.975 518.188 199.78 521.752 Q201.609 525.294 205.22 525.294 Q208.854 525.294 210.66 521.752 Q212.489 518.188 212.489 511.081 Q212.489 503.952 210.66 500.41 Q208.854 496.845 205.22 496.845 M205.22 493.141 Q211.03 493.141 214.086 497.748 Q217.164 502.331 217.164 511.081 Q217.164 519.808 214.086 524.414 Q211.03 528.998 205.22 528.998 Q199.41 528.998 196.331 524.414 Q193.276 519.808 193.276 511.081 Q193.276 502.331 196.331 497.748 Q199.41 493.141 205.22 493.141 Z" fill="#000000" fill-rule="nonzero" fill-opacity="1" /><path clip-path="url(#clip650)" d="M225.382 522.447 L230.266 522.447 L230.266 528.326 L225.382 528.326 L225.382 522.447 Z" fill="#000000" fill-rule="nonzero" fill-opacity="1" /><path clip-path="url(#clip650)" d="M241.262 524.391 L248.9 524.391 L248.9 498.026 L240.59 499.692 L240.59 495.433 L248.854 493.766 L253.53 493.766 L253.53 524.391 L261.169 524.391 L261.169 528.326 L241.262 528.326 L241.262 524.391 Z" fill="#000000" fill-rule="nonzero" fill-opacity="1" /><path clip-path="url(#clip650)" d="M270.66 493.766 L289.016 493.766 L289.016 497.702 L274.942 497.702 L274.942 506.174 Q275.96 505.826 276.979 505.664 Q277.997 505.479 279.016 505.479 Q284.803 505.479 288.183 508.651 Q291.562 511.822 291.562 517.238 Q291.562 522.817 288.09 525.919 Q284.618 528.998 278.298 528.998 Q276.122 528.998 273.854 528.627 Q271.609 528.257 269.201 527.516 L269.201 522.817 Q271.285 523.951 273.507 524.507 Q275.729 525.062 278.206 525.062 Q282.21 525.062 284.548 522.956 Q286.886 520.85 286.886 517.238 Q286.886 513.627 284.548 511.521 Q282.21 509.414 278.206 509.414 Q276.331 509.414 274.456 509.831 Q272.604 510.248 270.66 511.127 L270.66 493.766 Z" fill="#000000" fill-rule="nonzero" fill-opacity="1" /><path clip-path="url(#clip650)" d="M204.225 311.423 Q200.614 311.423 198.785 314.988 Q196.979 318.529 196.979 325.659 Q196.979 332.765 198.785 336.33 Q200.614 339.872 204.225 339.872 Q207.859 339.872 209.664 336.33 Q211.493 332.765 211.493 325.659 Q211.493 318.529 209.664 314.988 Q207.859 311.423 204.225 311.423 M204.225 307.719 Q210.035 307.719 213.09 312.326 Q216.169 316.909 216.169 325.659 Q216.169 334.386 213.09 338.992 Q210.035 343.575 204.225 343.575 Q198.415 343.575 195.336 338.992 Q192.28 334.386 192.28 325.659 Q192.28 316.909 195.336 312.326 Q198.415 307.719 204.225 307.719 Z" fill="#000000" fill-rule="nonzero" fill-opacity="1" /><path clip-path="url(#clip650)" d="M224.387 337.024 L229.271 337.024 L229.271 342.904 L224.387 342.904 L224.387 337.024 Z" fill="#000000" fill-rule="nonzero" fill-opacity="1" /><path clip-path="url(#clip650)" d="M243.484 338.969 L259.803 338.969 L259.803 342.904 L237.859 342.904 L237.859 338.969 Q240.521 336.214 245.104 331.585 Q249.711 326.932 250.891 325.589 Q253.136 323.066 254.016 321.33 Q254.919 319.571 254.919 317.881 Q254.919 315.126 252.974 313.39 Q251.053 311.654 247.951 311.654 Q245.752 311.654 243.299 312.418 Q240.868 313.182 238.09 314.733 L238.09 310.011 Q240.914 308.876 243.368 308.298 Q245.822 307.719 247.859 307.719 Q253.229 307.719 256.423 310.404 Q259.618 313.089 259.618 317.58 Q259.618 319.71 258.808 321.631 Q258.021 323.529 255.914 326.122 Q255.336 326.793 252.234 330.011 Q249.132 333.205 243.484 338.969 Z" fill="#000000" fill-rule="nonzero" fill-opacity="1" /><path clip-path="url(#clip650)" d="M279.618 311.423 Q276.007 311.423 274.178 314.988 Q272.372 318.529 272.372 325.659 Q272.372 332.765 274.178 336.33 Q276.007 339.872 279.618 339.872 Q283.252 339.872 285.058 336.33 Q286.886 332.765 286.886 325.659 Q286.886 318.529 285.058 314.988 Q283.252 311.423 279.618 311.423 M279.618 307.719 Q285.428 307.719 288.484 312.326 Q291.562 316.909 291.562 325.659 Q291.562 334.386 288.484 338.992 Q285.428 343.575 279.618 343.575 Q273.808 343.575 270.729 338.992 Q267.673 334.386 267.673 325.659 Q267.673 316.909 270.729 312.326 Q273.808 307.719 279.618 307.719 Z" fill="#000000" fill-rule="nonzero" fill-opacity="1" /><path clip-path="url(#clip650)" d="M205.22 126 Q201.609 126 199.78 129.565 Q197.975 133.107 197.975 140.237 Q197.975 147.343 199.78 150.908 Q201.609 154.449 205.22 154.449 Q208.854 154.449 210.66 150.908 Q212.489 147.343 212.489 140.237 Q212.489 133.107 210.66 129.565 Q208.854 126 205.22 126 M205.22 122.297 Q211.03 122.297 214.086 126.903 Q217.164 131.487 217.164 140.237 Q217.164 148.963 214.086 153.57 Q211.03 158.153 205.22 158.153 Q199.41 158.153 196.331 153.57 Q193.276 148.963 193.276 140.237 Q193.276 131.487 196.331 126.903 Q199.41 122.297 205.22 122.297 Z" fill="#000000" fill-rule="nonzero" fill-opacity="1" /><path clip-path="url(#clip650)" d="M225.382 151.602 L230.266 151.602 L230.266 157.482 L225.382 157.482 L225.382 151.602 Z" fill="#000000" fill-rule="nonzero" fill-opacity="1" /><path clip-path="url(#clip650)" d="M244.479 153.547 L260.798 153.547 L260.798 157.482 L238.854 157.482 L238.854 153.547 Q241.516 150.792 246.099 146.162 Q250.706 141.51 251.886 140.167 Q254.132 137.644 255.011 135.908 Q255.914 134.149 255.914 132.459 Q255.914 129.704 253.97 127.968 Q252.049 126.232 248.947 126.232 Q246.748 126.232 244.294 126.996 Q241.863 127.76 239.086 129.311 L239.086 124.588 Q241.91 123.454 244.363 122.875 Q246.817 122.297 248.854 122.297 Q254.224 122.297 257.419 124.982 Q260.613 127.667 260.613 132.158 Q260.613 134.287 259.803 136.209 Q259.016 138.107 256.91 140.699 Q256.331 141.371 253.229 144.588 Q250.127 147.783 244.479 153.547 Z" fill="#000000" fill-rule="nonzero" fill-opacity="1" /><path clip-path="url(#clip650)" d="M270.66 122.922 L289.016 122.922 L289.016 126.857 L274.942 126.857 L274.942 135.329 Q275.96 134.982 276.979 134.82 Q277.997 134.635 279.016 134.635 Q284.803 134.635 288.183 137.806 Q291.562 140.977 291.562 146.394 Q291.562 151.973 288.09 155.074 Q284.618 158.153 278.298 158.153 Q276.122 158.153 273.854 157.783 Q271.609 157.412 269.201 156.672 L269.201 151.973 Q271.285 153.107 273.507 153.662 Q275.729 154.218 278.206 154.218 Q282.21 154.218 284.548 152.111 Q286.886 150.005 286.886 146.394 Q286.886 142.783 284.548 140.676 Q282.21 138.57 278.206 138.57 Q276.331 138.57 274.456 138.987 Q272.604 139.403 270.66 140.283 L270.66 122.922 Z" fill="#000000" fill-rule="nonzero" fill-opacity="1" /><path clip-path="url(#clip650)" d="M104.108 906.315 L121.964 906.315 L121.964 898.231 Q121.964 893.743 119.64 891.292 Q117.317 888.841 113.02 888.841 Q108.755 888.841 106.431 891.292 Q104.108 893.743 104.108 898.231 L104.108 906.315 M98.8243 912.744 L98.8243 898.231 Q98.8243 890.242 102.453 886.168 Q106.049 882.062 113.02 882.062 Q120.054 882.062 123.651 886.168 Q127.247 890.242 127.247 898.231 L127.247 906.315 L146.344 906.315 L146.344 912.744 L98.8243 912.744 Z" fill="#000000" fill-rule="nonzero" fill-opacity="1" /><path clip-path="url(#clip650)" d="M116.171 854.18 Q115.598 855.167 115.343 856.344 Q115.057 857.49 115.057 858.891 Q115.057 863.856 118.303 866.529 Q121.518 869.171 127.565 869.171 L146.344 869.171 L146.344 875.059 L110.696 875.059 L110.696 869.171 L116.235 869.171 Q112.988 867.325 111.428 864.365 Q109.837 861.405 109.837 857.172 Q109.837 856.567 109.932 855.835 Q109.996 855.103 110.155 854.212 L116.171 854.18 Z" fill="#000000" fill-rule="nonzero" fill-opacity="1" /><path clip-path="url(#clip650)" d="M114.802 835.656 Q114.802 840.366 118.494 843.104 Q122.155 845.841 128.552 845.841 Q134.95 845.841 138.642 843.135 Q142.302 840.398 142.302 835.656 Q142.302 830.977 138.61 828.24 Q134.918 825.502 128.552 825.502 Q122.218 825.502 118.526 828.24 Q114.802 830.977 114.802 835.656 M109.837 835.656 Q109.837 828.017 114.802 823.656 Q119.767 819.296 128.552 819.296 Q137.305 819.296 142.302 823.656 Q147.267 828.017 147.267 835.656 Q147.267 843.326 142.302 847.687 Q137.305 852.016 128.552 852.016 Q119.767 852.016 114.802 847.687 Q109.837 843.326 109.837 835.656 Z" fill="#000000" fill-rule="nonzero" fill-opacity="1" /><path clip-path="url(#clip650)" d="M128.552 783.998 Q122.091 783.998 118.431 786.672 Q114.739 789.313 114.739 793.96 Q114.739 798.607 118.431 801.281 Q122.091 803.923 128.552 803.923 Q135.013 803.923 138.705 801.281 Q142.366 798.607 142.366 793.96 Q142.366 789.313 138.705 786.672 Q135.013 783.998 128.552 783.998 M116.107 803.923 Q112.924 802.077 111.397 799.276 Q109.837 796.443 109.837 792.528 Q109.837 786.035 114.993 781.993 Q120.149 777.919 128.552 777.919 Q136.955 777.919 142.111 781.993 Q147.267 786.035 147.267 792.528 Q147.267 796.443 145.74 799.276 Q144.18 802.077 140.997 803.923 L146.344 803.923 L146.344 809.811 L96.8191 809.811 L96.8191 803.923 L116.107 803.923 Z" fill="#000000" fill-rule="nonzero" fill-opacity="1" /><path clip-path="url(#clip650)" d="M128.425 752.01 Q128.425 759.108 130.048 761.845 Q131.671 764.583 135.586 764.583 Q138.705 764.583 140.552 762.546 Q142.366 760.477 142.366 756.944 Q142.366 752.074 138.928 749.146 Q135.459 746.186 129.73 746.186 L128.425 746.186 L128.425 752.01 M126.006 740.329 L146.344 740.329 L146.344 746.186 L140.933 746.186 Q144.18 748.191 145.74 751.183 Q147.267 754.175 147.267 758.503 Q147.267 763.978 144.212 767.224 Q141.124 770.439 135.968 770.439 Q129.953 770.439 126.897 766.429 Q123.842 762.386 123.842 754.397 L123.842 746.186 L123.269 746.186 Q119.226 746.186 117.03 748.859 Q114.802 751.501 114.802 756.307 Q114.802 759.363 115.534 762.259 Q116.266 765.155 117.73 767.829 L112.32 767.829 Q111.078 764.614 110.474 761.591 Q109.837 758.567 109.837 755.702 Q109.837 747.968 113.847 744.149 Q117.858 740.329 126.006 740.329 Z" fill="#000000" fill-rule="nonzero" fill-opacity="1" /><path clip-path="url(#clip650)" d="M128.552 702.676 Q122.091 702.676 118.431 705.35 Q114.739 707.991 114.739 712.638 Q114.739 717.285 118.431 719.959 Q122.091 722.601 128.552 722.601 Q135.013 722.601 138.705 719.959 Q142.366 717.285 142.366 712.638 Q142.366 707.991 138.705 705.35 Q135.013 702.676 128.552 702.676 M116.107 722.601 Q112.924 720.755 111.397 717.954 Q109.837 715.121 109.837 711.206 Q109.837 704.713 114.993 700.671 Q120.149 696.597 128.552 696.597 Q136.955 696.597 142.111 700.671 Q147.267 704.713 147.267 711.206 Q147.267 715.121 145.74 717.954 Q144.18 720.755 140.997 722.601 L146.344 722.601 L146.344 728.489 L96.8191 728.489 L96.8191 722.601 L116.107 722.601 Z" fill="#000000" fill-rule="nonzero" fill-opacity="1" /><path clip-path="url(#clip650)" d="M110.696 686.889 L110.696 681.033 L146.344 681.033 L146.344 686.889 L110.696 686.889 M96.8191 686.889 L96.8191 681.033 L104.235 681.033 L104.235 686.889 L96.8191 686.889 Z" fill="#000000" fill-rule="nonzero" fill-opacity="1" /><path clip-path="url(#clip650)" d="M96.8191 668.779 L96.8191 662.922 L146.344 662.922 L146.344 668.779 L96.8191 668.779 Z" fill="#000000" fill-rule="nonzero" fill-opacity="1" /><path clip-path="url(#clip650)" d="M110.696 650.668 L110.696 644.812 L146.344 644.812 L146.344 650.668 L110.696 650.668 M96.8191 650.668 L96.8191 644.812 L104.235 644.812 L104.235 650.668 L96.8191 650.668 Z" fill="#000000" fill-rule="nonzero" fill-opacity="1" /><path clip-path="url(#clip650)" d="M100.575 626.765 L110.696 626.765 L110.696 614.702 L115.248 614.702 L115.248 626.765 L134.6 626.765 Q138.96 626.765 140.201 625.587 Q141.443 624.378 141.443 620.718 L141.443 614.702 L146.344 614.702 L146.344 620.718 Q146.344 627.497 143.83 630.075 Q141.284 632.653 134.6 632.653 L115.248 632.653 L115.248 636.95 L110.696 636.95 L110.696 632.653 L100.575 632.653 L100.575 626.765 Z" fill="#000000" fill-rule="nonzero" fill-opacity="1" /><path clip-path="url(#clip650)" d="M149.654 592.167 Q156.02 594.65 157.962 597.005 Q159.903 599.361 159.903 603.307 L159.903 607.986 L155.002 607.986 L155.002 604.549 Q155.002 602.13 153.856 600.793 Q152.71 599.456 148.445 597.833 L145.771 596.783 L110.696 611.201 L110.696 604.994 L138.578 593.854 L110.696 582.714 L110.696 576.508 L149.654 592.167 Z" fill="#000000" fill-rule="nonzero" fill-opacity="1" /><path clip-path="url(#clip650)" d="M104.108 541.019 L141.061 541.019 L141.061 533.253 Q141.061 523.418 136.605 518.866 Q132.149 514.283 122.537 514.283 Q112.988 514.283 108.564 518.866 Q104.108 523.418 104.108 533.253 L104.108 541.019 M98.8243 547.448 L98.8243 534.239 Q98.8243 520.426 104.585 513.965 Q110.314 507.504 122.537 507.504 Q134.822 507.504 140.583 513.997 Q146.344 520.49 146.344 534.239 L146.344 547.448 L98.8243 547.448 Z" fill="#000000" fill-rule="nonzero" fill-opacity="1" /><path clip-path="url(#clip650)" d="M127.056 467.018 L129.921 467.018 L129.921 493.945 Q135.968 493.563 139.151 490.316 Q142.302 487.038 142.302 481.213 Q142.302 477.839 141.475 474.688 Q140.647 471.505 138.992 468.386 L144.53 468.386 Q145.867 471.537 146.567 474.847 Q147.267 478.158 147.267 481.563 Q147.267 490.093 142.302 495.09 Q137.337 500.056 128.87 500.056 Q120.118 500.056 114.993 495.345 Q109.837 490.603 109.837 482.582 Q109.837 475.389 114.484 471.219 Q119.099 467.018 127.056 467.018 M125.337 472.874 Q120.531 472.938 117.667 475.579 Q114.802 478.189 114.802 482.518 Q114.802 487.42 117.571 490.38 Q120.34 493.308 125.369 493.754 L125.337 472.874 Z" fill="#000000" fill-rule="nonzero" fill-opacity="1" /><path clip-path="url(#clip650)" d="M124.828 427.773 L146.344 427.773 L146.344 433.629 L125.019 433.629 Q119.958 433.629 117.444 435.603 Q114.93 437.576 114.93 441.523 Q114.93 446.265 117.953 449.003 Q120.977 451.74 126.197 451.74 L146.344 451.74 L146.344 457.628 L110.696 457.628 L110.696 451.74 L116.235 451.74 Q113.02 449.639 111.428 446.807 Q109.837 443.942 109.837 440.218 Q109.837 434.075 113.656 430.924 Q117.444 427.773 124.828 427.773 Z" fill="#000000" fill-rule="nonzero" fill-opacity="1" /><path clip-path="url(#clip650)" d="M111.747 393.366 L117.285 393.366 Q116.012 395.849 115.375 398.523 Q114.739 401.196 114.739 404.061 Q114.739 408.421 116.075 410.617 Q117.412 412.782 120.086 412.782 Q122.123 412.782 123.3 411.222 Q124.446 409.663 125.497 404.952 L125.942 402.947 Q127.279 396.708 129.73 394.098 Q132.149 391.457 136.509 391.457 Q141.475 391.457 144.371 395.403 Q147.267 399.318 147.267 406.193 Q147.267 409.058 146.694 412.177 Q146.153 415.264 145.039 418.702 L138.992 418.702 Q140.679 415.455 141.538 412.304 Q142.366 409.153 142.366 406.066 Q142.366 401.928 140.965 399.7 Q139.533 397.472 136.955 397.472 Q134.568 397.472 133.295 399.096 Q132.021 400.687 130.844 406.13 L130.366 408.167 Q129.221 413.609 126.865 416.028 Q124.478 418.447 120.34 418.447 Q115.311 418.447 112.574 414.882 Q109.837 411.318 109.837 404.761 Q109.837 401.515 110.314 398.65 Q110.792 395.785 111.747 393.366 Z" fill="#000000" fill-rule="nonzero" fill-opacity="1" /><path clip-path="url(#clip650)" d="M110.696 382.131 L110.696 376.274 L146.344 376.274 L146.344 382.131 L110.696 382.131 M96.8191 382.131 L96.8191 376.274 L104.235 376.274 L104.235 382.131 L96.8191 382.131 Z" fill="#000000" fill-rule="nonzero" fill-opacity="1" /><path clip-path="url(#clip650)" d="M100.575 358.228 L110.696 358.228 L110.696 346.165 L115.248 346.165 L115.248 358.228 L134.6 358.228 Q138.96 358.228 140.201 357.05 Q141.443 355.841 141.443 352.18 L141.443 346.165 L146.344 346.165 L146.344 352.18 Q146.344 358.96 143.83 361.538 Q141.284 364.116 134.6 364.116 L115.248 364.116 L115.248 368.413 L110.696 368.413 L110.696 364.116 L100.575 364.116 L100.575 358.228 Z" fill="#000000" fill-rule="nonzero" fill-opacity="1" /><path clip-path="url(#clip650)" d="M149.654 323.63 Q156.02 326.113 157.962 328.468 Q159.903 330.823 159.903 334.77 L159.903 339.449 L155.002 339.449 L155.002 336.011 Q155.002 333.592 153.856 332.256 Q152.71 330.919 148.445 329.296 L145.771 328.245 L110.696 342.664 L110.696 336.457 L138.578 325.317 L110.696 314.177 L110.696 307.97 L149.654 323.63 Z" fill="#000000" fill-rule="nonzero" fill-opacity="1" /><polyline clip-path="url(#clip652)" style="stroke:#009af9; stroke-linecap:round; stroke-linejoin:round; stroke-width:8; stroke-opacity:1; fill:none" points="551.153,1067.31 560.188,1067.31 643.733,1067.31 693.94,1067.31 736.389,1067.31 782.501,1067.31 825.012,1067.31 870.589,1067.31 923.394,1067.31 946.857,1067.31 970.32,1067.31 975.464,1067.28 980.608,1067.15 985.752,1066.75 990.895,1065.63 993.467,1064.56 996.039,1062.96 998.611,1060.66 1001.18,1057.43 1003.75,1053.03 1006.33,1047.19 1008.9,1039.65 1011.47,1030.12 1012.87,1024 1014.27,1017.17 1015.68,1009.6 1017.08,1001.26 1018.48,992.114 1019.88,982.146 1021.28,971.338 1022.69,959.678 1024.09,947.16 1025.49,933.787 1026.89,919.565 1028.3,904.509 1029.7,888.638 1031.1,871.979 1032.5,854.564 1033.9,836.433 1036.71,798.197 1039.51,757.676 1042.32,715.339 1045.12,671.699 1047.92,627.298 1050.73,582.688 1053.53,538.412 1056.34,494.995 1059.16,452.679 1061.98,412.176 1063.39,392.733 1064.8,373.887 1066.21,355.681 1067.62,338.151 1069.03,321.33 1070.44,305.247 1071.85,289.928 1073.26,275.394 1074.67,261.663 1076.08,248.749 1077.49,236.664 1078.9,225.414 1080.31,215.005 1081.72,205.437 1083.13,196.709 1084.54,188.818 1085.95,181.755 1087.36,175.513 1088.77,170.08 1090.18,165.443 1091.59,161.587 1093.01,158.496 1094.42,156.151 1095.83,154.535 1097.24,153.625 1098.65,153.402 1100.06,153.842 1101.47,154.923 1103.03,156.837 1104.59,159.474 1106.15,162.801 1107.7,166.785 1110.82,176.595 1113.94,188.639 1117.06,202.661 1120.18,218.409 1123.3,235.646 1126.42,254.142 1129.54,273.686 1132.65,294.079 1135.77,315.138 1138.89,336.696 1145.13,380.714 1151.37,425.091 1157.3,466.892 1163.24,507.723 1169.17,547.176 1175.1,584.956 1181.04,620.867 1186.97,654.789 1192.91,686.665 1198.84,716.488 1205.01,745.349 1211.19,772.085 1217.36,796.78 1223.53,819.535 1229.7,840.462 1235.87,859.675 1242.04,877.289 1248.21,893.42 1253.4,905.931 1258.6,917.534 1263.79,928.289 1268.99,938.256 1274.18,947.49 1279.38,956.043 1284.57,963.964 1289.76,971.299 1296.11,979.524 1302.45,987.012 1308.79,993.83 1315.13,1000.04 1327.82,1010.85 1340.5,1019.83 1352.12,1026.73 1363.74,1032.56 1375.36,1037.5 1386.97,1041.69 1408.44,1047.86 1429.9,1052.45 1451.64,1055.93 1473.38,1058.54 1522.11,1062.32 1566.27,1064.25 1616.82,1065.52 1663.63,1066.19 1709.78,1066.6 1754.59,1066.84 1800.53,1067 1850.85,1067.11 1923.96,1067.2 1938.96,1067.21 "/>
<polyline clip-path="url(#clip652)" style="stroke:#e26f46; stroke-linecap:round; stroke-linejoin:round; stroke-width:8; stroke-opacity:1; fill:none" points="370.302,1067.31 379.337,1067.31 462.882,1067.31 513.089,1067.31 555.539,1067.31 601.65,1067.31 644.162,1067.31 689.738,1067.31 742.543,1067.31 766.006,1067.31 789.469,1067.31 794.613,1067.28 799.757,1067.15 804.901,1066.75 810.045,1065.63 812.617,1064.56 815.188,1062.96 817.76,1060.66 820.332,1057.43 822.904,1053.03 825.476,1047.19 828.048,1039.65 830.62,1030.12 832.022,1024 833.424,1017.17 834.826,1009.6 836.228,1001.26 837.63,992.114 839.032,982.146 840.434,971.338 841.836,959.678 843.238,947.16 844.64,933.787 846.042,919.565 847.444,904.509 848.846,888.638 850.248,871.979 851.65,854.564 853.052,836.433 855.856,798.197 858.661,757.676 861.465,715.339 864.269,671.699 867.073,627.298 869.877,582.688 872.681,538.412 875.485,494.995 878.306,452.679 881.126,412.176 882.537,392.733 883.947,373.887 885.357,355.681 886.768,338.151 888.178,321.33 889.589,305.247 890.999,289.928 892.409,275.394 893.82,261.663 895.23,248.749 896.64,236.664 898.051,225.414 899.461,215.005 900.871,205.437 902.282,196.709 903.692,188.818 905.103,181.755 906.513,175.513 907.923,170.08 909.334,165.443 910.744,161.587 912.154,158.496 913.565,156.151 914.975,154.535 916.386,153.625 917.796,153.402 919.206,153.842 920.617,154.923 922.176,156.837 923.735,159.474 925.295,162.801 926.854,166.785 929.973,176.595 933.091,188.639 936.21,202.661 939.329,218.409 942.447,235.646 945.566,254.142 948.685,273.686 951.803,294.079 954.922,315.138 958.041,336.696 964.278,380.714 970.515,425.091 976.45,466.892 982.385,507.723 988.319,547.176 994.254,584.956 1000.19,620.867 1006.12,654.789 1012.06,686.665 1017.99,716.488 1024.16,745.349 1030.33,772.085 1036.5,796.78 1042.68,819.535 1048.85,840.462 1055.02,859.675 1061.19,877.289 1067.36,893.42 1072.55,905.931 1077.75,917.534 1082.94,928.289 1088.14,938.256 1093.33,947.49 1098.52,956.043 1103.72,963.964 1108.91,971.299 1115.26,979.524 1121.6,987.012 1127.94,993.83 1134.28,1000.04 1146.96,1010.85 1159.65,1019.83 1171.27,1026.73 1182.89,1032.56 1194.5,1037.5 1206.12,1041.69 1227.59,1047.86 1249.05,1052.45 1270.79,1055.93 1292.53,1058.54 1341.26,1062.32 1385.42,1064.25 1435.97,1065.52 1482.78,1066.19 1528.93,1066.6 1573.74,1066.84 1619.67,1067 1670,1067.11 1743.11,1067.2 1758.11,1067.21 "/>
<polyline clip-path="url(#clip652)" style="stroke:#3da44d; stroke-linecap:round; stroke-linejoin:round; stroke-width:8; stroke-opacity:1; fill:none" points="532.368,1067.31 541.403,1067.31 624.948,1067.31 675.155,1067.31 717.604,1067.31 763.716,1067.31 806.227,1067.31 851.804,1067.31 904.609,1067.31 928.072,1067.31 951.535,1067.31 956.679,1067.28 961.823,1067.15 966.967,1066.75 972.111,1065.63 974.682,1064.56 977.254,1062.96 979.826,1060.66 982.398,1057.43 984.97,1053.03 987.542,1047.19 990.114,1039.65 992.686,1030.12 994.088,1024 995.49,1017.17 996.892,1009.6 998.294,1001.26 999.696,992.114 1001.1,982.146 1002.5,971.338 1003.9,959.678 1005.3,947.16 1006.71,933.787 1008.11,919.565 1009.51,904.509 1010.91,888.638 1012.31,871.979 1013.72,854.564 1015.12,836.433 1017.92,798.197 1020.73,757.676 1023.53,715.339 1026.33,671.699 1029.14,627.298 1031.94,582.688 1034.75,538.412 1037.55,494.995 1040.37,452.679 1043.19,412.176 1044.6,392.733 1046.01,373.887 1047.42,355.681 1048.83,338.151 1050.24,321.33 1051.65,305.247 1053.06,289.928 1054.48,275.394 1055.89,261.663 1057.3,248.749 1058.71,236.664 1060.12,225.414 1061.53,215.005 1062.94,205.437 1064.35,196.709 1065.76,188.818 1067.17,181.755 1068.58,175.513 1069.99,170.08 1071.4,165.443 1072.81,161.587 1074.22,158.496 1075.63,156.151 1077.04,154.535 1078.45,153.625 1079.86,153.402 1081.27,153.842 1082.68,154.923 1084.24,156.837 1085.8,159.474 1087.36,162.801 1088.92,166.785 1092.04,176.595 1095.16,188.639 1098.28,202.661 1101.39,218.409 1104.51,235.646 1107.63,254.142 1110.75,273.686 1113.87,294.079 1116.99,315.138 1120.11,336.696 1126.34,380.714 1132.58,425.091 1138.52,466.892 1144.45,507.723 1150.39,547.176 1156.32,584.956 1162.25,620.867 1168.19,654.789 1174.12,686.665 1180.06,716.488 1186.23,745.349 1192.4,772.085 1198.57,796.78 1204.74,819.535 1210.91,840.462 1217.08,859.675 1223.25,877.289 1229.42,893.42 1234.62,905.931 1239.81,917.534 1245.01,928.289 1250.2,938.256 1255.4,947.49 1260.59,956.043 1265.79,963.964 1270.98,971.299 1277.32,979.524 1283.66,987.012 1290,993.83 1296.35,1000.04 1309.03,1010.85 1321.71,1019.83 1333.33,1026.73 1344.95,1032.56 1356.57,1037.5 1368.19,1041.69 1389.65,1047.86 1411.11,1052.45 1432.85,1055.93 1454.59,1058.54 1503.32,1062.32 1547.48,1064.25 1598.04,1065.52 1644.85,1066.19 1691,1066.6 1735.81,1066.84 1781.74,1067 1832.07,1067.11 1905.17,1067.2 1920.17,1067.21 "/>
<path clip-path="url(#clip650)" d="M1195.89 365.636 L1930.59 365.636 L1930.59 158.276 L1195.89 158.276  Z" fill="#ffffff" fill-rule="evenodd" fill-opacity="1"/>
<polyline clip-path="url(#clip650)" style="stroke:#000000; stroke-linecap:round; stroke-linejoin:round; stroke-width:4; stroke-opacity:1; fill:none" points="1195.89,365.636 1930.59,365.636 1930.59,158.276 1195.89,158.276 1195.89,365.636 "/>
<polyline clip-path="url(#clip650)" style="stroke:#009af9; stroke-linecap:round; stroke-linejoin:round; stroke-width:8; stroke-opacity:1; fill:none" points="1214.36,210.116 1325.22,210.116 "/>
<path clip-path="url(#clip650)" d="M1369.25 222.465 L1369.25 213.183 L1361.61 213.183 L1361.61 209.34 L1373.88 209.34 L1373.88 224.178 Q1371.17 226.1 1367.9 227.095 Q1364.64 228.067 1360.94 228.067 Q1352.84 228.067 1348.25 223.345 Q1343.69 218.6 1343.69 210.151 Q1343.69 201.678 1348.25 196.956 Q1352.84 192.211 1360.94 192.211 Q1364.32 192.211 1367.35 193.044 Q1370.4 193.877 1372.97 195.498 L1372.97 200.475 Q1370.38 198.276 1367.46 197.164 Q1364.55 196.053 1361.33 196.053 Q1354.99 196.053 1351.79 199.595 Q1348.62 203.137 1348.62 210.151 Q1348.62 217.141 1351.79 220.683 Q1354.99 224.225 1361.33 224.225 Q1363.81 224.225 1365.75 223.808 Q1367.7 223.368 1369.25 222.465 Z" fill="#000000" fill-rule="nonzero" fill-opacity="1" /><path clip-path="url(#clip650)" d="M1394.02 214.363 Q1388.85 214.363 1386.86 215.544 Q1384.87 216.725 1384.87 219.572 Q1384.87 221.84 1386.35 223.183 Q1387.86 224.502 1390.43 224.502 Q1393.97 224.502 1396.1 222.002 Q1398.25 219.479 1398.25 215.313 L1398.25 214.363 L1394.02 214.363 M1402.51 212.604 L1402.51 227.396 L1398.25 227.396 L1398.25 223.461 Q1396.79 225.822 1394.62 226.956 Q1392.44 228.067 1389.29 228.067 Q1385.31 228.067 1382.95 225.845 Q1380.61 223.6 1380.61 219.85 Q1380.61 215.475 1383.53 213.252 Q1386.47 211.03 1392.28 211.03 L1398.25 211.03 L1398.25 210.613 Q1398.25 207.674 1396.31 206.076 Q1394.39 204.456 1390.89 204.456 Q1388.67 204.456 1386.56 204.989 Q1384.46 205.521 1382.51 206.586 L1382.51 202.651 Q1384.85 201.748 1387.05 201.308 Q1389.25 200.845 1391.33 200.845 Q1396.96 200.845 1399.73 203.762 Q1402.51 206.678 1402.51 212.604 Z" fill="#000000" fill-rule="nonzero" fill-opacity="1" /><path clip-path="url(#clip650)" d="M1410.84 217.164 L1410.84 201.47 L1415.1 201.47 L1415.1 217.002 Q1415.1 220.683 1416.54 222.535 Q1417.97 224.363 1420.84 224.363 Q1424.29 224.363 1426.28 222.164 Q1428.3 219.965 1428.3 216.169 L1428.3 201.47 L1432.56 201.47 L1432.56 227.396 L1428.3 227.396 L1428.3 223.414 Q1426.75 225.775 1424.69 226.933 Q1422.65 228.067 1419.94 228.067 Q1415.47 228.067 1413.16 225.289 Q1410.84 222.512 1410.84 217.164 M1421.56 200.845 L1421.56 200.845 Z" fill="#000000" fill-rule="nonzero" fill-opacity="1" /><path clip-path="url(#clip650)" d="M1458.39 214.132 Q1458.39 209.502 1456.47 206.956 Q1454.57 204.41 1451.12 204.41 Q1447.7 204.41 1445.77 206.956 Q1443.88 209.502 1443.88 214.132 Q1443.88 218.738 1445.77 221.285 Q1447.7 223.831 1451.12 223.831 Q1454.57 223.831 1456.47 221.285 Q1458.39 218.738 1458.39 214.132 M1462.65 224.178 Q1462.65 230.799 1459.71 234.016 Q1456.77 237.257 1450.71 237.257 Q1448.46 237.257 1446.47 236.91 Q1444.48 236.586 1442.6 235.891 L1442.6 231.748 Q1444.48 232.766 1446.31 233.252 Q1448.14 233.738 1450.03 233.738 Q1454.22 233.738 1456.31 231.539 Q1458.39 229.363 1458.39 224.942 L1458.39 222.836 Q1457.07 225.127 1455.01 226.262 Q1452.95 227.396 1450.08 227.396 Q1445.31 227.396 1442.39 223.762 Q1439.48 220.127 1439.48 214.132 Q1439.48 208.113 1442.39 204.479 Q1445.31 200.845 1450.08 200.845 Q1452.95 200.845 1455.01 201.979 Q1457.07 203.114 1458.39 205.405 L1458.39 201.47 L1462.65 201.47 L1462.65 224.178 Z" fill="#000000" fill-rule="nonzero" fill-opacity="1" /><path clip-path="url(#clip650)" d="M1493.6 213.368 L1493.6 215.451 L1474.02 215.451 Q1474.29 219.85 1476.65 222.164 Q1479.04 224.456 1483.27 224.456 Q1485.73 224.456 1488.02 223.854 Q1490.33 223.252 1492.6 222.049 L1492.6 226.076 Q1490.31 227.049 1487.9 227.558 Q1485.5 228.067 1483.02 228.067 Q1476.82 228.067 1473.18 224.456 Q1469.57 220.845 1469.57 214.688 Q1469.57 208.322 1473 204.595 Q1476.45 200.845 1482.28 200.845 Q1487.51 200.845 1490.54 204.225 Q1493.6 207.581 1493.6 213.368 M1489.34 212.118 Q1489.29 208.623 1487.37 206.539 Q1485.47 204.456 1482.33 204.456 Q1478.76 204.456 1476.61 206.47 Q1474.48 208.484 1474.15 212.141 L1489.34 212.118 Z" fill="#000000" fill-rule="nonzero" fill-opacity="1" /><path clip-path="url(#clip650)" d="M1520.52 196.678 L1520.52 223.553 L1526.17 223.553 Q1533.32 223.553 1536.63 220.313 Q1539.96 217.072 1539.96 210.081 Q1539.96 203.137 1536.63 199.919 Q1533.32 196.678 1526.17 196.678 L1520.52 196.678 M1515.84 192.836 L1525.45 192.836 Q1535.5 192.836 1540.2 197.026 Q1544.89 201.192 1544.89 210.081 Q1544.89 219.016 1540.17 223.206 Q1535.45 227.396 1525.45 227.396 L1515.84 227.396 L1515.84 192.836 Z" fill="#000000" fill-rule="nonzero" fill-opacity="1" /><path clip-path="url(#clip650)" d="M1552.16 201.47 L1556.42 201.47 L1556.42 227.396 L1552.16 227.396 L1552.16 201.47 M1552.16 191.377 L1556.42 191.377 L1556.42 196.771 L1552.16 196.771 L1552.16 191.377 Z" fill="#000000" fill-rule="nonzero" fill-opacity="1" /><path clip-path="url(#clip650)" d="M1581.86 202.234 L1581.86 206.262 Q1580.06 205.336 1578.11 204.873 Q1576.17 204.41 1574.08 204.41 Q1570.91 204.41 1569.32 205.382 Q1567.74 206.354 1567.74 208.299 Q1567.74 209.78 1568.88 210.637 Q1570.01 211.47 1573.44 212.234 L1574.89 212.558 Q1579.43 213.53 1581.33 215.313 Q1583.25 217.072 1583.25 220.243 Q1583.25 223.854 1580.38 225.961 Q1577.53 228.067 1572.53 228.067 Q1570.45 228.067 1568.18 227.65 Q1565.94 227.257 1563.44 226.447 L1563.44 222.049 Q1565.8 223.275 1568.09 223.9 Q1570.38 224.502 1572.63 224.502 Q1575.64 224.502 1577.26 223.484 Q1578.88 222.442 1578.88 220.567 Q1578.88 218.831 1577.7 217.905 Q1576.54 216.979 1572.58 216.123 L1571.1 215.775 Q1567.14 214.942 1565.38 213.229 Q1563.62 211.493 1563.62 208.484 Q1563.62 204.826 1566.21 202.836 Q1568.81 200.845 1573.57 200.845 Q1575.94 200.845 1578.02 201.192 Q1580.1 201.539 1581.86 202.234 Z" fill="#000000" fill-rule="nonzero" fill-opacity="1" /><path clip-path="url(#clip650)" d="M1594.25 194.109 L1594.25 201.47 L1603.02 201.47 L1603.02 204.78 L1594.25 204.78 L1594.25 218.854 Q1594.25 222.025 1595.1 222.928 Q1595.98 223.831 1598.64 223.831 L1603.02 223.831 L1603.02 227.396 L1598.64 227.396 Q1593.71 227.396 1591.84 225.567 Q1589.96 223.715 1589.96 218.854 L1589.96 204.78 L1586.84 204.78 L1586.84 201.47 L1589.96 201.47 L1589.96 194.109 L1594.25 194.109 Z" fill="#000000" fill-rule="nonzero" fill-opacity="1" /><path clip-path="url(#clip650)" d="M1623.64 205.451 Q1622.93 205.035 1622.07 204.85 Q1621.24 204.641 1620.22 204.641 Q1616.61 204.641 1614.66 207.002 Q1612.74 209.34 1612.74 213.738 L1612.74 227.396 L1608.46 227.396 L1608.46 201.47 L1612.74 201.47 L1612.74 205.498 Q1614.08 203.137 1616.24 202.002 Q1618.39 200.845 1621.47 200.845 Q1621.91 200.845 1622.44 200.914 Q1622.97 200.961 1623.62 201.076 L1623.64 205.451 Z" fill="#000000" fill-rule="nonzero" fill-opacity="1" /><path clip-path="url(#clip650)" d="M1628.11 201.47 L1632.37 201.47 L1632.37 227.396 L1628.11 227.396 L1628.11 201.47 M1628.11 191.377 L1632.37 191.377 L1632.37 196.771 L1628.11 196.771 L1628.11 191.377 Z" fill="#000000" fill-rule="nonzero" fill-opacity="1" /><path clip-path="url(#clip650)" d="M1659.89 214.456 Q1659.89 209.757 1657.95 207.095 Q1656.03 204.41 1652.65 204.41 Q1649.27 204.41 1647.32 207.095 Q1645.4 209.757 1645.4 214.456 Q1645.4 219.155 1647.32 221.84 Q1649.27 224.502 1652.65 224.502 Q1656.03 224.502 1657.95 221.84 Q1659.89 219.155 1659.89 214.456 M1645.4 205.405 Q1646.75 203.09 1648.78 201.979 Q1650.84 200.845 1653.69 200.845 Q1658.41 200.845 1661.35 204.595 Q1664.32 208.345 1664.32 214.456 Q1664.32 220.567 1661.35 224.317 Q1658.41 228.067 1653.69 228.067 Q1650.84 228.067 1648.78 226.956 Q1646.75 225.822 1645.4 223.507 L1645.4 227.396 L1641.12 227.396 L1641.12 191.377 L1645.4 191.377 L1645.4 205.405 Z" fill="#000000" fill-rule="nonzero" fill-opacity="1" /><path clip-path="url(#clip650)" d="M1670.94 217.164 L1670.94 201.47 L1675.19 201.47 L1675.19 217.002 Q1675.19 220.683 1676.63 222.535 Q1678.07 224.363 1680.94 224.363 Q1684.38 224.363 1686.38 222.164 Q1688.39 219.965 1688.39 216.169 L1688.39 201.47 L1692.65 201.47 L1692.65 227.396 L1688.39 227.396 L1688.39 223.414 Q1686.84 225.775 1684.78 226.933 Q1682.74 228.067 1680.03 228.067 Q1675.57 228.067 1673.25 225.289 Q1670.94 222.512 1670.94 217.164 M1681.65 200.845 L1681.65 200.845 Z" fill="#000000" fill-rule="nonzero" fill-opacity="1" /><path clip-path="url(#clip650)" d="M1705.63 194.109 L1705.63 201.47 L1714.41 201.47 L1714.41 204.78 L1705.63 204.78 L1705.63 218.854 Q1705.63 222.025 1706.49 222.928 Q1707.37 223.831 1710.03 223.831 L1714.41 223.831 L1714.41 227.396 L1710.03 227.396 Q1705.1 227.396 1703.23 225.567 Q1701.35 223.715 1701.35 218.854 L1701.35 204.78 L1698.23 204.78 L1698.23 201.47 L1701.35 201.47 L1701.35 194.109 L1705.63 194.109 Z" fill="#000000" fill-rule="nonzero" fill-opacity="1" /><path clip-path="url(#clip650)" d="M1720.01 201.47 L1724.27 201.47 L1724.27 227.396 L1720.01 227.396 L1720.01 201.47 M1720.01 191.377 L1724.27 191.377 L1724.27 196.771 L1720.01 196.771 L1720.01 191.377 Z" fill="#000000" fill-rule="nonzero" fill-opacity="1" /><path clip-path="url(#clip650)" d="M1743.23 204.456 Q1739.8 204.456 1737.81 207.141 Q1735.82 209.803 1735.82 214.456 Q1735.82 219.109 1737.79 221.794 Q1739.78 224.456 1743.23 224.456 Q1746.63 224.456 1748.62 221.771 Q1750.61 219.086 1750.61 214.456 Q1750.61 209.85 1748.62 207.164 Q1746.63 204.456 1743.23 204.456 M1743.23 200.845 Q1748.78 200.845 1751.95 204.456 Q1755.12 208.067 1755.12 214.456 Q1755.12 220.822 1751.95 224.456 Q1748.78 228.067 1743.23 228.067 Q1737.65 228.067 1734.48 224.456 Q1731.33 220.822 1731.33 214.456 Q1731.33 208.067 1734.48 204.456 Q1737.65 200.845 1743.23 200.845 Z" fill="#000000" fill-rule="nonzero" fill-opacity="1" /><path clip-path="url(#clip650)" d="M1783.74 211.748 L1783.74 227.396 L1779.48 227.396 L1779.48 211.887 Q1779.48 208.206 1778.04 206.377 Q1776.61 204.549 1773.74 204.549 Q1770.29 204.549 1768.3 206.748 Q1766.31 208.947 1766.31 212.743 L1766.31 227.396 L1762.02 227.396 L1762.02 201.47 L1766.31 201.47 L1766.31 205.498 Q1767.83 203.16 1769.89 202.002 Q1771.98 200.845 1774.68 200.845 Q1779.15 200.845 1781.44 203.623 Q1783.74 206.377 1783.74 211.748 Z" fill="#000000" fill-rule="nonzero" fill-opacity="1" /><polyline clip-path="url(#clip650)" style="stroke:#e26f46; stroke-linecap:round; stroke-linejoin:round; stroke-width:8; stroke-opacity:1; fill:none" points="1214.36,261.956 1325.22,261.956 "/>
<path clip-path="url(#clip650)" d="M1343.69 244.676 L1348.37 244.676 L1348.37 258.842 L1365.36 258.842 L1365.36 244.676 L1370.03 244.676 L1370.03 279.236 L1365.36 279.236 L1365.36 262.778 L1348.37 262.778 L1348.37 279.236 L1343.69 279.236 L1343.69 244.676 Z" fill="#000000" fill-rule="nonzero" fill-opacity="1" /><path clip-path="url(#clip650)" d="M1389.2 256.296 Q1385.77 256.296 1383.78 258.981 Q1381.79 261.643 1381.79 266.296 Q1381.79 270.949 1383.76 273.634 Q1385.75 276.296 1389.2 276.296 Q1392.6 276.296 1394.59 273.611 Q1396.59 270.926 1396.59 266.296 Q1396.59 261.69 1394.59 259.004 Q1392.6 256.296 1389.2 256.296 M1389.2 252.685 Q1394.76 252.685 1397.93 256.296 Q1401.1 259.907 1401.1 266.296 Q1401.1 272.662 1397.93 276.296 Q1394.76 279.907 1389.2 279.907 Q1383.62 279.907 1380.45 276.296 Q1377.3 272.662 1377.3 266.296 Q1377.3 259.907 1380.45 256.296 Q1383.62 252.685 1389.2 252.685 Z" fill="#000000" fill-rule="nonzero" fill-opacity="1" /><path clip-path="url(#clip650)" d="M1407.72 269.004 L1407.72 253.31 L1411.98 253.31 L1411.98 268.842 Q1411.98 272.523 1413.41 274.375 Q1414.85 276.203 1417.72 276.203 Q1421.17 276.203 1423.16 274.004 Q1425.17 271.805 1425.17 268.009 L1425.17 253.31 L1429.43 253.31 L1429.43 279.236 L1425.17 279.236 L1425.17 275.254 Q1423.62 277.615 1421.56 278.773 Q1419.52 279.907 1416.82 279.907 Q1412.35 279.907 1410.03 277.129 Q1407.72 274.352 1407.72 269.004 M1418.44 252.685 L1418.44 252.685 Z" fill="#000000" fill-rule="nonzero" fill-opacity="1" /><path clip-path="url(#clip650)" d="M1454.73 254.074 L1454.73 258.102 Q1452.93 257.176 1450.98 256.713 Q1449.04 256.25 1446.96 256.25 Q1443.78 256.25 1442.19 257.222 Q1440.61 258.194 1440.61 260.139 Q1440.61 261.62 1441.75 262.477 Q1442.88 263.31 1446.31 264.074 L1447.77 264.398 Q1452.3 265.37 1454.2 267.153 Q1456.12 268.912 1456.12 272.083 Q1456.12 275.694 1453.25 277.801 Q1450.4 279.907 1445.4 279.907 Q1443.32 279.907 1441.05 279.49 Q1438.81 279.097 1436.31 278.287 L1436.31 273.889 Q1438.67 275.115 1440.96 275.74 Q1443.25 276.342 1445.5 276.342 Q1448.51 276.342 1450.13 275.324 Q1451.75 274.282 1451.75 272.407 Q1451.75 270.671 1450.57 269.745 Q1449.41 268.819 1445.45 267.963 L1443.97 267.615 Q1440.01 266.782 1438.25 265.069 Q1436.49 263.333 1436.49 260.324 Q1436.49 256.666 1439.08 254.676 Q1441.68 252.685 1446.45 252.685 Q1448.81 252.685 1450.89 253.032 Q1452.97 253.379 1454.73 254.074 Z" fill="#000000" fill-rule="nonzero" fill-opacity="1" /><path clip-path="url(#clip650)" d="M1485.08 265.208 L1485.08 267.291 L1465.5 267.291 Q1465.77 271.69 1468.14 274.004 Q1470.52 276.296 1474.76 276.296 Q1477.21 276.296 1479.5 275.694 Q1481.82 275.092 1484.08 273.889 L1484.08 277.916 Q1481.79 278.889 1479.39 279.398 Q1476.98 279.907 1474.5 279.907 Q1468.3 279.907 1464.66 276.296 Q1461.05 272.685 1461.05 266.528 Q1461.05 260.162 1464.48 256.435 Q1467.93 252.685 1473.76 252.685 Q1478.99 252.685 1482.02 256.065 Q1485.08 259.421 1485.08 265.208 M1480.82 263.958 Q1480.77 260.463 1478.85 258.379 Q1476.95 256.296 1473.81 256.296 Q1470.24 256.296 1468.09 258.31 Q1465.96 260.324 1465.64 263.981 L1480.82 263.958 Z" fill="#000000" fill-rule="nonzero" fill-opacity="1" /><path clip-path="url(#clip650)" d="M1512 248.518 L1512 275.393 L1517.65 275.393 Q1524.8 275.393 1528.11 272.153 Q1531.45 268.912 1531.45 261.921 Q1531.45 254.977 1528.11 251.759 Q1524.8 248.518 1517.65 248.518 L1512 248.518 M1507.33 244.676 L1516.93 244.676 Q1526.98 244.676 1531.68 248.866 Q1536.38 253.032 1536.38 261.921 Q1536.38 270.856 1531.65 275.046 Q1526.93 279.236 1516.93 279.236 L1507.33 279.236 L1507.33 244.676 Z" fill="#000000" fill-rule="nonzero" fill-opacity="1" /><path clip-path="url(#clip650)" d="M1543.64 253.31 L1547.9 253.31 L1547.9 279.236 L1543.64 279.236 L1543.64 253.31 M1543.64 243.217 L1547.9 243.217 L1547.9 248.611 L1543.64 248.611 L1543.64 243.217 Z" fill="#000000" fill-rule="nonzero" fill-opacity="1" /><path clip-path="url(#clip650)" d="M1573.34 254.074 L1573.34 258.102 Q1571.54 257.176 1569.59 256.713 Q1567.65 256.25 1565.57 256.25 Q1562.39 256.25 1560.8 257.222 Q1559.22 258.194 1559.22 260.139 Q1559.22 261.62 1560.36 262.477 Q1561.49 263.31 1564.92 264.074 L1566.38 264.398 Q1570.91 265.37 1572.81 267.153 Q1574.73 268.912 1574.73 272.083 Q1574.73 275.694 1571.86 277.801 Q1569.01 279.907 1564.01 279.907 Q1561.93 279.907 1559.66 279.49 Q1557.42 279.097 1554.92 278.287 L1554.92 273.889 Q1557.28 275.115 1559.57 275.74 Q1561.86 276.342 1564.11 276.342 Q1567.12 276.342 1568.74 275.324 Q1570.36 274.282 1570.36 272.407 Q1570.36 270.671 1569.18 269.745 Q1568.02 268.819 1564.06 267.963 L1562.58 267.615 Q1558.62 266.782 1556.86 265.069 Q1555.1 263.333 1555.1 260.324 Q1555.1 256.666 1557.7 254.676 Q1560.29 252.685 1565.06 252.685 Q1567.42 252.685 1569.5 253.032 Q1571.58 253.379 1573.34 254.074 Z" fill="#000000" fill-rule="nonzero" fill-opacity="1" /><path clip-path="url(#clip650)" d="M1585.73 245.949 L1585.73 253.31 L1594.5 253.31 L1594.5 256.62 L1585.73 256.62 L1585.73 270.694 Q1585.73 273.865 1586.58 274.768 Q1587.46 275.671 1590.13 275.671 L1594.5 275.671 L1594.5 279.236 L1590.13 279.236 Q1585.2 279.236 1583.32 277.407 Q1581.45 275.555 1581.45 270.694 L1581.45 256.62 L1578.32 256.62 L1578.32 253.31 L1581.45 253.31 L1581.45 245.949 L1585.73 245.949 Z" fill="#000000" fill-rule="nonzero" fill-opacity="1" /><path clip-path="url(#clip650)" d="M1615.13 257.291 Q1614.41 256.875 1613.55 256.69 Q1612.72 256.481 1611.7 256.481 Q1608.09 256.481 1606.14 258.842 Q1604.22 261.18 1604.22 265.578 L1604.22 279.236 L1599.94 279.236 L1599.94 253.31 L1604.22 253.31 L1604.22 257.338 Q1605.57 254.977 1607.72 253.842 Q1609.87 252.685 1612.95 252.685 Q1613.39 252.685 1613.92 252.754 Q1614.45 252.801 1615.1 252.916 L1615.13 257.291 Z" fill="#000000" fill-rule="nonzero" fill-opacity="1" /><path clip-path="url(#clip650)" d="M1619.59 253.31 L1623.85 253.31 L1623.85 279.236 L1619.59 279.236 L1619.59 253.31 M1619.59 243.217 L1623.85 243.217 L1623.85 248.611 L1619.59 248.611 L1619.59 243.217 Z" fill="#000000" fill-rule="nonzero" fill-opacity="1" /><path clip-path="url(#clip650)" d="M1651.38 266.296 Q1651.38 261.597 1649.43 258.935 Q1647.51 256.25 1644.13 256.25 Q1640.75 256.25 1638.81 258.935 Q1636.88 261.597 1636.88 266.296 Q1636.88 270.995 1638.81 273.68 Q1640.75 276.342 1644.13 276.342 Q1647.51 276.342 1649.43 273.68 Q1651.38 270.995 1651.38 266.296 M1636.88 257.245 Q1638.23 254.93 1640.26 253.819 Q1642.32 252.685 1645.17 252.685 Q1649.89 252.685 1652.83 256.435 Q1655.8 260.185 1655.8 266.296 Q1655.8 272.407 1652.83 276.157 Q1649.89 279.907 1645.17 279.907 Q1642.32 279.907 1640.26 278.796 Q1638.23 277.662 1636.88 275.347 L1636.88 279.236 L1632.6 279.236 L1632.6 243.217 L1636.88 243.217 L1636.88 257.245 Z" fill="#000000" fill-rule="nonzero" fill-opacity="1" /><path clip-path="url(#clip650)" d="M1662.42 269.004 L1662.42 253.31 L1666.68 253.31 L1666.68 268.842 Q1666.68 272.523 1668.11 274.375 Q1669.55 276.203 1672.42 276.203 Q1675.87 276.203 1677.86 274.004 Q1679.87 271.805 1679.87 268.009 L1679.87 253.31 L1684.13 253.31 L1684.13 279.236 L1679.87 279.236 L1679.87 275.254 Q1678.32 277.615 1676.26 278.773 Q1674.22 279.907 1671.51 279.907 Q1667.05 279.907 1664.73 277.129 Q1662.42 274.352 1662.42 269.004 M1673.13 252.685 L1673.13 252.685 Z" fill="#000000" fill-rule="nonzero" fill-opacity="1" /><path clip-path="url(#clip650)" d="M1697.12 245.949 L1697.12 253.31 L1705.89 253.31 L1705.89 256.62 L1697.12 256.62 L1697.12 270.694 Q1697.12 273.865 1697.97 274.768 Q1698.85 275.671 1701.51 275.671 L1705.89 275.671 L1705.89 279.236 L1701.51 279.236 Q1696.58 279.236 1694.71 277.407 Q1692.83 275.555 1692.83 270.694 L1692.83 256.62 L1689.71 256.62 L1689.71 253.31 L1692.83 253.31 L1692.83 245.949 L1697.12 245.949 Z" fill="#000000" fill-rule="nonzero" fill-opacity="1" /><path clip-path="url(#clip650)" d="M1711.49 253.31 L1715.75 253.31 L1715.75 279.236 L1711.49 279.236 L1711.49 253.31 M1711.49 243.217 L1715.75 243.217 L1715.75 248.611 L1711.49 248.611 L1711.49 243.217 Z" fill="#000000" fill-rule="nonzero" fill-opacity="1" /><path clip-path="url(#clip650)" d="M1734.71 256.296 Q1731.28 256.296 1729.29 258.981 Q1727.3 261.643 1727.3 266.296 Q1727.3 270.949 1729.27 273.634 Q1731.26 276.296 1734.71 276.296 Q1738.11 276.296 1740.1 273.611 Q1742.09 270.926 1742.09 266.296 Q1742.09 261.69 1740.1 259.004 Q1738.11 256.296 1734.71 256.296 M1734.71 252.685 Q1740.26 252.685 1743.44 256.296 Q1746.61 259.907 1746.61 266.296 Q1746.61 272.662 1743.44 276.296 Q1740.26 279.907 1734.71 279.907 Q1729.13 279.907 1725.96 276.296 Q1722.81 272.662 1722.81 266.296 Q1722.81 259.907 1725.96 256.296 Q1729.13 252.685 1734.71 252.685 Z" fill="#000000" fill-rule="nonzero" fill-opacity="1" /><path clip-path="url(#clip650)" d="M1775.22 263.588 L1775.22 279.236 L1770.96 279.236 L1770.96 263.727 Q1770.96 260.046 1769.52 258.217 Q1768.09 256.389 1765.22 256.389 Q1761.77 256.389 1759.78 258.588 Q1757.79 260.787 1757.79 264.583 L1757.79 279.236 L1753.5 279.236 L1753.5 253.31 L1757.79 253.31 L1757.79 257.338 Q1759.31 255 1761.37 253.842 Q1763.46 252.685 1766.17 252.685 Q1770.63 252.685 1772.93 255.463 Q1775.22 258.217 1775.22 263.588 Z" fill="#000000" fill-rule="nonzero" fill-opacity="1" /><polyline clip-path="url(#clip650)" style="stroke:#3da44d; stroke-linecap:round; stroke-linejoin:round; stroke-width:8; stroke-opacity:1; fill:none" points="1214.36,313.796 1325.22,313.796 "/>
<path clip-path="url(#clip650)" d="M1349.32 327.141 L1365.64 327.141 L1365.64 331.076 L1343.69 331.076 L1343.69 327.141 Q1346.35 324.386 1350.94 319.756 Q1355.54 315.104 1356.72 313.761 Q1358.97 311.238 1359.85 309.502 Q1360.75 307.743 1360.75 306.053 Q1360.75 303.298 1358.81 301.562 Q1356.89 299.826 1353.78 299.826 Q1351.59 299.826 1349.13 300.59 Q1346.7 301.354 1343.92 302.905 L1343.92 298.182 Q1346.75 297.048 1349.2 296.47 Q1351.65 295.891 1353.69 295.891 Q1359.06 295.891 1362.26 298.576 Q1365.45 301.261 1365.45 305.752 Q1365.45 307.881 1364.64 309.803 Q1363.85 311.701 1361.75 314.293 Q1361.17 314.965 1358.07 318.182 Q1354.96 321.377 1349.32 327.141 Z" fill="#000000" fill-rule="nonzero" fill-opacity="1" /><path clip-path="url(#clip650)" d="M1385.45 299.594 Q1381.84 299.594 1380.01 303.159 Q1378.21 306.701 1378.21 313.831 Q1378.21 320.937 1380.01 324.502 Q1381.84 328.043 1385.45 328.043 Q1389.09 328.043 1390.89 324.502 Q1392.72 320.937 1392.72 313.831 Q1392.72 306.701 1390.89 303.159 Q1389.09 299.594 1385.45 299.594 M1385.45 295.891 Q1391.26 295.891 1394.32 300.497 Q1397.4 305.081 1397.4 313.831 Q1397.4 322.557 1394.32 327.164 Q1391.26 331.747 1385.45 331.747 Q1379.64 331.747 1376.56 327.164 Q1373.51 322.557 1373.51 313.831 Q1373.51 305.081 1376.56 300.497 Q1379.64 295.891 1385.45 295.891 Z" fill="#000000" fill-rule="nonzero" fill-opacity="1" /><path clip-path="url(#clip650)" d="M1415.61 314.664 Q1412.28 314.664 1410.36 316.446 Q1408.46 318.229 1408.46 321.354 Q1408.46 324.479 1410.36 326.261 Q1412.28 328.043 1415.61 328.043 Q1418.95 328.043 1420.87 326.261 Q1422.79 324.455 1422.79 321.354 Q1422.79 318.229 1420.87 316.446 Q1418.97 314.664 1415.61 314.664 M1410.94 312.673 Q1407.93 311.932 1406.24 309.872 Q1404.57 307.812 1404.57 304.849 Q1404.57 300.706 1407.51 298.298 Q1410.47 295.891 1415.61 295.891 Q1420.77 295.891 1423.71 298.298 Q1426.65 300.706 1426.65 304.849 Q1426.65 307.812 1424.96 309.872 Q1423.3 311.932 1420.31 312.673 Q1423.69 313.46 1425.57 315.752 Q1427.46 318.043 1427.46 321.354 Q1427.46 326.377 1424.39 329.062 Q1421.33 331.747 1415.61 331.747 Q1409.9 331.747 1406.82 329.062 Q1403.76 326.377 1403.76 321.354 Q1403.76 318.043 1405.66 315.752 Q1407.56 313.46 1410.94 312.673 M1409.22 305.289 Q1409.22 307.974 1410.89 309.479 Q1412.58 310.983 1415.61 310.983 Q1418.62 310.983 1420.31 309.479 Q1422.02 307.974 1422.02 305.289 Q1422.02 302.604 1420.31 301.099 Q1418.62 299.594 1415.61 299.594 Q1412.58 299.594 1410.89 301.099 Q1409.22 302.604 1409.22 305.289 Z" fill="#000000" fill-rule="nonzero" fill-opacity="1" /><path clip-path="url(#clip650)" d="M1445.77 299.594 Q1442.16 299.594 1440.33 303.159 Q1438.53 306.701 1438.53 313.831 Q1438.53 320.937 1440.33 324.502 Q1442.16 328.043 1445.77 328.043 Q1449.41 328.043 1451.21 324.502 Q1453.04 320.937 1453.04 313.831 Q1453.04 306.701 1451.21 303.159 Q1449.41 299.594 1445.77 299.594 M1445.77 295.891 Q1451.58 295.891 1454.64 300.497 Q1457.72 305.081 1457.72 313.831 Q1457.72 322.557 1454.64 327.164 Q1451.58 331.747 1445.77 331.747 Q1439.96 331.747 1436.89 327.164 Q1433.83 322.557 1433.83 313.831 Q1433.83 305.081 1436.89 300.497 Q1439.96 295.891 1445.77 295.891 Z" fill="#000000" fill-rule="nonzero" fill-opacity="1" /><path clip-path="url(#clip650)" d="M1480.59 296.516 L1485.27 296.516 L1485.27 310.682 L1502.26 310.682 L1502.26 296.516 L1506.93 296.516 L1506.93 331.076 L1502.26 331.076 L1502.26 314.618 L1485.27 314.618 L1485.27 331.076 L1480.59 331.076 L1480.59 296.516 Z" fill="#000000" fill-rule="nonzero" fill-opacity="1" /><path clip-path="url(#clip650)" d="M1526.1 308.136 Q1522.67 308.136 1520.68 310.821 Q1518.69 313.483 1518.69 318.136 Q1518.69 322.789 1520.66 325.474 Q1522.65 328.136 1526.1 328.136 Q1529.5 328.136 1531.49 325.451 Q1533.48 322.766 1533.48 318.136 Q1533.48 313.53 1531.49 310.844 Q1529.5 308.136 1526.1 308.136 M1526.1 304.525 Q1531.65 304.525 1534.83 308.136 Q1538 311.747 1538 318.136 Q1538 324.502 1534.83 328.136 Q1531.65 331.747 1526.1 331.747 Q1520.52 331.747 1517.35 328.136 Q1514.2 324.502 1514.2 318.136 Q1514.2 311.747 1517.35 308.136 Q1520.52 304.525 1526.1 304.525 Z" fill="#000000" fill-rule="nonzero" fill-opacity="1" /><path clip-path="url(#clip650)" d="M1544.62 320.844 L1544.62 305.15 L1548.88 305.15 L1548.88 320.682 Q1548.88 324.363 1550.31 326.215 Q1551.75 328.043 1554.62 328.043 Q1558.07 328.043 1560.06 325.844 Q1562.07 323.645 1562.07 319.849 L1562.07 305.15 L1566.33 305.15 L1566.33 331.076 L1562.07 331.076 L1562.07 327.094 Q1560.52 329.455 1558.46 330.613 Q1556.42 331.747 1553.71 331.747 Q1549.25 331.747 1546.93 328.969 Q1544.62 326.192 1544.62 320.844 M1555.33 304.525 L1555.33 304.525 Z" fill="#000000" fill-rule="nonzero" fill-opacity="1" /><path clip-path="url(#clip650)" d="M1591.63 305.914 L1591.63 309.942 Q1589.82 309.016 1587.88 308.553 Q1585.94 308.09 1583.85 308.09 Q1580.68 308.09 1579.08 309.062 Q1577.51 310.034 1577.51 311.979 Q1577.51 313.46 1578.64 314.317 Q1579.78 315.15 1583.2 315.914 L1584.66 316.238 Q1589.2 317.21 1591.1 318.993 Q1593.02 320.752 1593.02 323.923 Q1593.02 327.534 1590.15 329.641 Q1587.3 331.747 1582.3 331.747 Q1580.22 331.747 1577.95 331.33 Q1575.7 330.937 1573.2 330.127 L1573.2 325.729 Q1575.57 326.955 1577.86 327.58 Q1580.15 328.182 1582.39 328.182 Q1585.4 328.182 1587.02 327.164 Q1588.64 326.122 1588.64 324.247 Q1588.64 322.511 1587.46 321.585 Q1586.31 320.659 1582.35 319.803 L1580.87 319.455 Q1576.91 318.622 1575.15 316.909 Q1573.39 315.173 1573.39 312.164 Q1573.39 308.506 1575.98 306.516 Q1578.57 304.525 1583.34 304.525 Q1585.7 304.525 1587.79 304.872 Q1589.87 305.219 1591.63 305.914 Z" fill="#000000" fill-rule="nonzero" fill-opacity="1" /><path clip-path="url(#clip650)" d="M1621.98 317.048 L1621.98 319.131 L1602.39 319.131 Q1602.67 323.53 1605.03 325.844 Q1607.42 328.136 1611.65 328.136 Q1614.11 328.136 1616.4 327.534 Q1618.71 326.932 1620.98 325.729 L1620.98 329.756 Q1618.69 330.729 1616.28 331.238 Q1613.88 331.747 1611.4 331.747 Q1605.2 331.747 1601.56 328.136 Q1597.95 324.525 1597.95 318.368 Q1597.95 312.002 1601.38 308.275 Q1604.82 304.525 1610.66 304.525 Q1615.89 304.525 1618.92 307.905 Q1621.98 311.261 1621.98 317.048 M1617.72 315.798 Q1617.67 312.303 1615.75 310.219 Q1613.85 308.136 1610.7 308.136 Q1607.14 308.136 1604.99 310.15 Q1602.86 312.164 1602.53 315.821 L1617.72 315.798 Z" fill="#000000" fill-rule="nonzero" fill-opacity="1" /><path clip-path="url(#clip650)" d="M1648.9 300.358 L1648.9 327.233 L1654.55 327.233 Q1661.7 327.233 1665.01 323.993 Q1668.34 320.752 1668.34 313.761 Q1668.34 306.817 1665.01 303.599 Q1661.7 300.358 1654.55 300.358 L1648.9 300.358 M1644.22 296.516 L1653.83 296.516 Q1663.88 296.516 1668.57 300.706 Q1673.27 304.872 1673.27 313.761 Q1673.27 322.696 1668.55 326.886 Q1663.83 331.076 1653.83 331.076 L1644.22 331.076 L1644.22 296.516 Z" fill="#000000" fill-rule="nonzero" fill-opacity="1" /><path clip-path="url(#clip650)" d="M1680.54 305.15 L1684.8 305.15 L1684.8 331.076 L1680.54 331.076 L1680.54 305.15 M1680.54 295.057 L1684.8 295.057 L1684.8 300.451 L1680.54 300.451 L1680.54 295.057 Z" fill="#000000" fill-rule="nonzero" fill-opacity="1" /><path clip-path="url(#clip650)" d="M1710.24 305.914 L1710.24 309.942 Q1708.44 309.016 1706.49 308.553 Q1704.55 308.09 1702.46 308.09 Q1699.29 308.09 1697.69 309.062 Q1696.12 310.034 1696.12 311.979 Q1696.12 313.46 1697.25 314.317 Q1698.39 315.15 1701.81 315.914 L1703.27 316.238 Q1707.81 317.21 1709.71 318.993 Q1711.63 320.752 1711.63 323.923 Q1711.63 327.534 1708.76 329.641 Q1705.91 331.747 1700.91 331.747 Q1698.83 331.747 1696.56 331.33 Q1694.31 330.937 1691.81 330.127 L1691.81 325.729 Q1694.18 326.955 1696.47 327.58 Q1698.76 328.182 1701 328.182 Q1704.01 328.182 1705.63 327.164 Q1707.25 326.122 1707.25 324.247 Q1707.25 322.511 1706.07 321.585 Q1704.92 320.659 1700.96 319.803 L1699.48 319.455 Q1695.52 318.622 1693.76 316.909 Q1692 315.173 1692 312.164 Q1692 308.506 1694.59 306.516 Q1697.19 304.525 1701.95 304.525 Q1704.31 304.525 1706.4 304.872 Q1708.48 305.219 1710.24 305.914 Z" fill="#000000" fill-rule="nonzero" fill-opacity="1" /><path clip-path="url(#clip650)" d="M1722.62 297.789 L1722.62 305.15 L1731.4 305.15 L1731.4 308.46 L1722.62 308.46 L1722.62 322.534 Q1722.62 325.705 1723.48 326.608 Q1724.36 327.511 1727.02 327.511 L1731.4 327.511 L1731.4 331.076 L1727.02 331.076 Q1722.09 331.076 1720.22 329.247 Q1718.34 327.395 1718.34 322.534 L1718.34 308.46 L1715.22 308.46 L1715.22 305.15 L1718.34 305.15 L1718.34 297.789 L1722.62 297.789 Z" fill="#000000" fill-rule="nonzero" fill-opacity="1" /><path clip-path="url(#clip650)" d="M1752.02 309.131 Q1751.31 308.715 1750.45 308.53 Q1749.62 308.321 1748.6 308.321 Q1744.99 308.321 1743.04 310.682 Q1741.12 313.02 1741.12 317.418 L1741.12 331.076 L1736.84 331.076 L1736.84 305.15 L1741.12 305.15 L1741.12 309.178 Q1742.46 306.817 1744.62 305.682 Q1746.77 304.525 1749.85 304.525 Q1750.29 304.525 1750.82 304.594 Q1751.35 304.641 1752 304.756 L1752.02 309.131 Z" fill="#000000" fill-rule="nonzero" fill-opacity="1" /><path clip-path="url(#clip650)" d="M1756.49 305.15 L1760.75 305.15 L1760.75 331.076 L1756.49 331.076 L1756.49 305.15 M1756.49 295.057 L1760.75 295.057 L1760.75 300.451 L1756.49 300.451 L1756.49 295.057 Z" fill="#000000" fill-rule="nonzero" fill-opacity="1" /><path clip-path="url(#clip650)" d="M1788.27 318.136 Q1788.27 313.437 1786.33 310.775 Q1784.41 308.09 1781.03 308.09 Q1777.65 308.09 1775.7 310.775 Q1773.78 313.437 1773.78 318.136 Q1773.78 322.835 1775.7 325.52 Q1777.65 328.182 1781.03 328.182 Q1784.41 328.182 1786.33 325.52 Q1788.27 322.835 1788.27 318.136 M1773.78 309.085 Q1775.12 306.77 1777.16 305.659 Q1779.22 304.525 1782.07 304.525 Q1786.79 304.525 1789.73 308.275 Q1792.69 312.025 1792.69 318.136 Q1792.69 324.247 1789.73 327.997 Q1786.79 331.747 1782.07 331.747 Q1779.22 331.747 1777.16 330.636 Q1775.12 329.502 1773.78 327.187 L1773.78 331.076 L1769.5 331.076 L1769.5 295.057 L1773.78 295.057 L1773.78 309.085 Z" fill="#000000" fill-rule="nonzero" fill-opacity="1" /><path clip-path="url(#clip650)" d="M1799.31 320.844 L1799.31 305.15 L1803.57 305.15 L1803.57 320.682 Q1803.57 324.363 1805.01 326.215 Q1806.44 328.043 1809.31 328.043 Q1812.76 328.043 1814.75 325.844 Q1816.77 323.645 1816.77 319.849 L1816.77 305.15 L1821.03 305.15 L1821.03 331.076 L1816.77 331.076 L1816.77 327.094 Q1815.22 329.455 1813.16 330.613 Q1811.12 331.747 1808.41 331.747 Q1803.94 331.747 1801.63 328.969 Q1799.31 326.192 1799.31 320.844 M1810.03 304.525 L1810.03 304.525 Z" fill="#000000" fill-rule="nonzero" fill-opacity="1" /><path clip-path="url(#clip650)" d="M1834.01 297.789 L1834.01 305.15 L1842.79 305.15 L1842.79 308.46 L1834.01 308.46 L1834.01 322.534 Q1834.01 325.705 1834.87 326.608 Q1835.75 327.511 1838.41 327.511 L1842.79 327.511 L1842.79 331.076 L1838.41 331.076 Q1833.48 331.076 1831.61 329.247 Q1829.73 327.395 1829.73 322.534 L1829.73 308.46 L1826.61 308.46 L1826.61 305.15 L1829.73 305.15 L1829.73 297.789 L1834.01 297.789 Z" fill="#000000" fill-rule="nonzero" fill-opacity="1" /><path clip-path="url(#clip650)" d="M1848.39 305.15 L1852.65 305.15 L1852.65 331.076 L1848.39 331.076 L1848.39 305.15 M1848.39 295.057 L1852.65 295.057 L1852.65 300.451 L1848.39 300.451 L1848.39 295.057 Z" fill="#000000" fill-rule="nonzero" fill-opacity="1" /><path clip-path="url(#clip650)" d="M1871.61 308.136 Q1868.18 308.136 1866.19 310.821 Q1864.2 313.483 1864.2 318.136 Q1864.2 322.789 1866.17 325.474 Q1868.16 328.136 1871.61 328.136 Q1875.01 328.136 1877 325.451 Q1878.99 322.766 1878.99 318.136 Q1878.99 313.53 1877 310.844 Q1875.01 308.136 1871.61 308.136 M1871.61 304.525 Q1877.16 304.525 1880.33 308.136 Q1883.5 311.747 1883.5 318.136 Q1883.5 324.502 1880.33 328.136 Q1877.16 331.747 1871.61 331.747 Q1866.03 331.747 1862.86 328.136 Q1859.71 324.502 1859.71 318.136 Q1859.71 311.747 1862.86 308.136 Q1866.03 304.525 1871.61 304.525 Z" fill="#000000" fill-rule="nonzero" fill-opacity="1" /><path clip-path="url(#clip650)" d="M1912.11 315.428 L1912.11 331.076 L1907.86 331.076 L1907.86 315.567 Q1907.86 311.886 1906.42 310.057 Q1904.99 308.229 1902.11 308.229 Q1898.67 308.229 1896.67 310.428 Q1894.68 312.627 1894.68 316.423 L1894.68 331.076 L1890.4 331.076 L1890.4 305.15 L1894.68 305.15 L1894.68 309.178 Q1896.21 306.84 1898.27 305.682 Q1900.36 304.525 1903.06 304.525 Q1907.53 304.525 1909.82 307.303 Q1912.11 310.057 1912.11 315.428 Z" fill="#000000" fill-rule="nonzero" fill-opacity="1" /></svg>
