<?xml version="1.0" encoding="utf-8"?>
<svg xmlns="http://www.w3.org/2000/svg" xmlns:xlink="http://www.w3.org/1999/xlink" width="700" height="500" viewBox="0 0 2800 2000">
<defs>
  <clipPath id="clip350">
    <rect x="0" y="0" width="2800" height="2000"/>
  </clipPath>
</defs>
<path clip-path="url(#clip350)" d="M0 2000 L2800 2000 L2800 0 L0 0  Z" fill="#ffffff" fill-rule="evenodd" fill-opacity="1"/>
<defs>
  <clipPath id="clip351">
    <rect x="560" y="0" width="1961" height="1961"/>
  </clipPath>
</defs>
<path clip-path="url(#clip350)" d="M291.255 1734.58 L2674.02 1734.58 L2674.02 125.984 L291.255 125.984  Z" fill="#ffffff" fill-rule="evenodd" fill-opacity="1"/>
<defs>
  <clipPath id="clip352">
    <rect x="291" y="125" width="2384" height="1610"/>
  </clipPath>
</defs>
<polyline clip-path="url(#clip352)" style="stroke:#000000; stroke-linecap:round; stroke-linejoin:round; stroke-width:2; stroke-opacity:0.1; fill:none" points="679.819,1734.58 679.819,125.984 "/>
<polyline clip-path="url(#clip352)" style="stroke:#000000; stroke-linecap:round; stroke-linejoin:round; stroke-width:2; stroke-opacity:0.1; fill:none" points="1081.23,1734.58 1081.23,125.984 "/>
<polyline clip-path="url(#clip352)" style="stroke:#000000; stroke-linecap:round; stroke-linejoin:round; stroke-width:2; stroke-opacity:0.1; fill:none" points="1482.64,1734.58 1482.64,125.984 "/>
<polyline clip-path="url(#clip352)" style="stroke:#000000; stroke-linecap:round; stroke-linejoin:round; stroke-width:2; stroke-opacity:0.1; fill:none" points="1884.04,1734.58 1884.04,125.984 "/>
<polyline clip-path="url(#clip352)" style="stroke:#000000; stroke-linecap:round; stroke-linejoin:round; stroke-width:2; stroke-opacity:0.1; fill:none" points="2285.45,1734.58 2285.45,125.984 "/>
<polyline clip-path="url(#clip350)" style="stroke:#000000; stroke-linecap:round; stroke-linejoin:round; stroke-width:4; stroke-opacity:1; fill:none" points="291.255,1734.58 2674.02,1734.58 "/>
<polyline clip-path="url(#clip350)" style="stroke:#000000; stroke-linecap:round; stroke-linejoin:round; stroke-width:4; stroke-opacity:1; fill:none" points="679.819,1734.58 679.819,1715.68 "/>
<polyline clip-path="url(#clip350)" style="stroke:#000000; stroke-linecap:round; stroke-linejoin:round; stroke-width:4; stroke-opacity:1; fill:none" points="1081.23,1734.58 1081.23,1715.68 "/>
<polyline clip-path="url(#clip350)" style="stroke:#000000; stroke-linecap:round; stroke-linejoin:round; stroke-width:4; stroke-opacity:1; fill:none" points="1482.64,1734.58 1482.64,1715.68 "/>
<polyline clip-path="url(#clip350)" style="stroke:#000000; stroke-linecap:round; stroke-linejoin:round; stroke-width:4; stroke-opacity:1; fill:none" points="1884.04,1734.58 1884.04,1715.68 "/>
<polyline clip-path="url(#clip350)" style="stroke:#000000; stroke-linecap:round; stroke-linejoin:round; stroke-width:4; stroke-opacity:1; fill:none" points="2285.45,1734.58 2285.45,1715.68 "/>
<path clip-path="url(#clip350)" d="M679.819 1768.7 Q676.208 1768.7 674.379 1772.26 Q672.573 1775.8 672.573 1782.93 Q672.573 1790.04 674.379 1793.6 Q676.208 1797.14 679.819 1797.14 Q683.453 1797.14 685.259 1793.6 Q687.087 1790.04 687.087 1782.93 Q687.087 1775.8 685.259 1772.26 Q683.453 1768.7 679.819 1768.7 M679.819 1764.99 Q685.629 1764.99 688.684 1769.6 Q691.763 1774.18 691.763 1782.93 Q691.763 1791.66 688.684 1796.26 Q685.629 1800.85 679.819 1800.85 Q674.009 1800.85 670.93 1796.26 Q667.874 1791.66 667.874 1782.93 Q667.874 1774.18 670.93 1769.6 Q674.009 1764.99 679.819 1764.99 Z" fill="#000000" fill-rule="nonzero" fill-opacity="1" /><path clip-path="url(#clip350)" d="M1071.51 1765.62 L1089.86 1765.62 L1089.86 1769.55 L1075.79 1769.55 L1075.79 1778.02 Q1076.81 1777.68 1077.82 1777.51 Q1078.84 1777.33 1079.86 1777.33 Q1085.65 1777.33 1089.03 1780.5 Q1092.41 1783.67 1092.41 1789.09 Q1092.41 1794.67 1088.94 1797.77 Q1085.46 1800.85 1079.14 1800.85 Q1076.97 1800.85 1074.7 1800.48 Q1072.45 1800.11 1070.05 1799.37 L1070.05 1794.67 Q1072.13 1795.8 1074.35 1796.36 Q1076.57 1796.91 1079.05 1796.91 Q1083.06 1796.91 1085.39 1794.81 Q1087.73 1792.7 1087.73 1789.09 Q1087.73 1785.48 1085.39 1783.37 Q1083.06 1781.26 1079.05 1781.26 Q1077.18 1781.26 1075.3 1781.68 Q1073.45 1782.1 1071.51 1782.98 L1071.51 1765.62 Z" fill="#000000" fill-rule="nonzero" fill-opacity="1" /><path clip-path="url(#clip350)" d="M1457.32 1796.24 L1464.96 1796.24 L1464.96 1769.88 L1456.65 1771.54 L1456.65 1767.28 L1464.92 1765.62 L1469.59 1765.62 L1469.59 1796.24 L1477.23 1796.24 L1477.23 1800.18 L1457.32 1800.18 L1457.32 1796.24 Z" fill="#000000" fill-rule="nonzero" fill-opacity="1" /><path clip-path="url(#clip350)" d="M1496.67 1768.7 Q1493.06 1768.7 1491.24 1772.26 Q1489.43 1775.8 1489.43 1782.93 Q1489.43 1790.04 1491.24 1793.6 Q1493.06 1797.14 1496.67 1797.14 Q1500.31 1797.14 1502.11 1793.6 Q1503.94 1790.04 1503.94 1782.93 Q1503.94 1775.8 1502.11 1772.26 Q1500.31 1768.7 1496.67 1768.7 M1496.67 1764.99 Q1502.49 1764.99 1505.54 1769.6 Q1508.62 1774.18 1508.62 1782.93 Q1508.62 1791.66 1505.54 1796.26 Q1502.49 1800.85 1496.67 1800.85 Q1490.86 1800.85 1487.79 1796.26 Q1484.73 1791.66 1484.73 1782.93 Q1484.73 1774.18 1487.79 1769.6 Q1490.86 1764.99 1496.67 1764.99 Z" fill="#000000" fill-rule="nonzero" fill-opacity="1" /><path clip-path="url(#clip350)" d="M1859.23 1796.24 L1866.87 1796.24 L1866.87 1769.88 L1858.56 1771.54 L1858.56 1767.28 L1866.82 1765.62 L1871.5 1765.62 L1871.5 1796.24 L1879.14 1796.24 L1879.14 1800.18 L1859.23 1800.18 L1859.23 1796.24 Z" fill="#000000" fill-rule="nonzero" fill-opacity="1" /><path clip-path="url(#clip350)" d="M1888.63 1765.62 L1906.98 1765.62 L1906.98 1769.55 L1892.91 1769.55 L1892.91 1778.02 Q1893.93 1777.68 1894.95 1777.51 Q1895.97 1777.33 1896.98 1777.33 Q1902.77 1777.33 1906.15 1780.5 Q1909.53 1783.67 1909.53 1789.09 Q1909.53 1794.67 1906.06 1797.77 Q1902.59 1800.85 1896.27 1800.85 Q1894.09 1800.85 1891.82 1800.48 Q1889.58 1800.11 1887.17 1799.37 L1887.17 1794.67 Q1889.25 1795.8 1891.47 1796.36 Q1893.7 1796.91 1896.17 1796.91 Q1900.18 1796.91 1902.52 1794.81 Q1904.85 1792.7 1904.85 1789.09 Q1904.85 1785.48 1902.52 1783.37 Q1900.18 1781.26 1896.17 1781.26 Q1894.3 1781.26 1892.42 1781.68 Q1890.57 1782.1 1888.63 1782.98 L1888.63 1765.62 Z" fill="#000000" fill-rule="nonzero" fill-opacity="1" /><path clip-path="url(#clip350)" d="M2264.23 1796.24 L2280.55 1796.24 L2280.55 1800.18 L2258.6 1800.18 L2258.6 1796.24 Q2261.26 1793.49 2265.85 1788.86 Q2270.45 1784.2 2271.63 1782.86 Q2273.88 1780.34 2274.76 1778.6 Q2275.66 1776.84 2275.66 1775.15 Q2275.66 1772.4 2273.72 1770.66 Q2271.8 1768.93 2268.69 1768.93 Q2266.49 1768.93 2264.04 1769.69 Q2261.61 1770.45 2258.83 1772.01 L2258.83 1767.28 Q2261.66 1766.15 2264.11 1765.57 Q2266.56 1764.99 2268.6 1764.99 Q2273.97 1764.99 2277.17 1767.68 Q2280.36 1770.36 2280.36 1774.85 Q2280.36 1776.98 2279.55 1778.9 Q2278.76 1780.8 2276.66 1783.39 Q2276.08 1784.07 2272.98 1787.28 Q2269.87 1790.48 2264.23 1796.24 Z" fill="#000000" fill-rule="nonzero" fill-opacity="1" /><path clip-path="url(#clip350)" d="M2300.36 1768.7 Q2296.75 1768.7 2294.92 1772.26 Q2293.11 1775.8 2293.11 1782.93 Q2293.11 1790.04 2294.92 1793.6 Q2296.75 1797.14 2300.36 1797.14 Q2303.99 1797.14 2305.8 1793.6 Q2307.63 1790.04 2307.63 1782.93 Q2307.63 1775.8 2305.8 1772.26 Q2303.99 1768.7 2300.36 1768.7 M2300.36 1764.99 Q2306.17 1764.99 2309.23 1769.6 Q2312.3 1774.18 2312.3 1782.93 Q2312.3 1791.66 2309.23 1796.26 Q2306.17 1800.85 2300.36 1800.85 Q2294.55 1800.85 2291.47 1796.26 Q2288.42 1791.66 2288.42 1782.93 Q2288.42 1774.18 2291.47 1769.6 Q2294.55 1764.99 2300.36 1764.99 Z" fill="#000000" fill-rule="nonzero" fill-opacity="1" /><path clip-path="url(#clip350)" d="M1075.55 1837.92 L1102.86 1837.92 L1102.86 1843.33 L1081.98 1843.33 L1081.98 1857.34 L1100.82 1857.34 L1100.82 1862.75 L1081.98 1862.75 L1081.98 1885.44 L1075.55 1885.44 L1075.55 1837.92 Z" fill="#000000" fill-rule="nonzero" fill-opacity="1" /><path clip-path="url(#clip350)" d="M1112.79 1835.92 L1118.64 1835.92 L1118.64 1885.44 L1112.79 1885.44 L1112.79 1835.92 Z" fill="#000000" fill-rule="nonzero" fill-opacity="1" /><path clip-path="url(#clip350)" d="M1144.71 1853.9 Q1140 1853.9 1137.26 1857.59 Q1134.53 1861.25 1134.53 1867.65 Q1134.53 1874.05 1137.23 1877.74 Q1139.97 1881.4 1144.71 1881.4 Q1149.39 1881.4 1152.13 1877.71 Q1154.87 1874.01 1154.87 1867.65 Q1154.87 1861.31 1152.13 1857.62 Q1149.39 1853.9 1144.71 1853.9 M1144.71 1848.93 Q1152.35 1848.93 1156.71 1853.9 Q1161.07 1858.86 1161.07 1867.65 Q1161.07 1876.4 1156.71 1881.4 Q1152.35 1886.36 1144.71 1886.36 Q1137.04 1886.36 1132.68 1881.4 Q1128.35 1876.4 1128.35 1867.65 Q1128.35 1858.86 1132.68 1853.9 Q1137.04 1848.93 1144.71 1848.93 Z" fill="#000000" fill-rule="nonzero" fill-opacity="1" /><path clip-path="url(#clip350)" d="M1184.59 1853.9 Q1179.88 1853.9 1177.15 1857.59 Q1174.41 1861.25 1174.41 1867.65 Q1174.41 1874.05 1177.11 1877.74 Q1179.85 1881.4 1184.59 1881.4 Q1189.27 1881.4 1192.01 1877.71 Q1194.75 1874.01 1194.75 1867.65 Q1194.75 1861.31 1192.01 1857.62 Q1189.27 1853.9 1184.59 1853.9 M1184.59 1848.93 Q1192.23 1848.93 1196.59 1853.9 Q1200.95 1858.86 1200.95 1867.65 Q1200.95 1876.4 1196.59 1881.4 Q1192.23 1886.36 1184.59 1886.36 Q1176.92 1886.36 1172.56 1881.4 Q1168.23 1876.4 1168.23 1867.65 Q1168.23 1858.86 1172.56 1853.9 Q1176.92 1848.93 1184.59 1848.93 Z" fill="#000000" fill-rule="nonzero" fill-opacity="1" /><path clip-path="url(#clip350)" d="M1234.12 1855.2 L1234.12 1835.92 L1239.97 1835.92 L1239.97 1885.44 L1234.12 1885.44 L1234.12 1880.09 Q1232.27 1883.28 1229.44 1884.84 Q1226.64 1886.36 1222.69 1886.36 Q1216.23 1886.36 1212.16 1881.21 Q1208.11 1876.05 1208.11 1867.65 Q1208.11 1859.25 1212.16 1854.09 Q1216.23 1848.93 1222.69 1848.93 Q1226.64 1848.93 1229.44 1850.49 Q1232.27 1852.02 1234.12 1855.2 M1214.16 1867.65 Q1214.16 1874.11 1216.8 1877.8 Q1219.48 1881.46 1224.12 1881.46 Q1228.77 1881.46 1231.44 1877.8 Q1234.12 1874.11 1234.12 1867.65 Q1234.12 1861.19 1231.44 1857.53 Q1228.77 1853.84 1224.12 1853.84 Q1219.48 1853.84 1216.8 1857.53 Q1214.16 1861.19 1214.16 1867.65 Z" fill="#000000" fill-rule="nonzero" fill-opacity="1" /><path clip-path="url(#clip350)" d="M1279.44 1843.2 L1279.44 1880.16 L1287.21 1880.16 Q1297.04 1880.16 1301.59 1875.7 Q1306.18 1871.25 1306.18 1861.63 Q1306.18 1852.08 1301.59 1847.66 Q1297.04 1843.2 1287.21 1843.2 L1279.44 1843.2 M1273.01 1837.92 L1286.22 1837.92 Q1300.04 1837.92 1306.5 1843.68 Q1312.96 1849.41 1312.96 1861.63 Q1312.96 1873.92 1306.46 1879.68 Q1299.97 1885.44 1286.22 1885.44 L1273.01 1885.44 L1273.01 1837.92 Z" fill="#000000" fill-rule="nonzero" fill-opacity="1" /><path clip-path="url(#clip350)" d="M1353.44 1866.15 L1353.44 1869.02 L1326.52 1869.02 Q1326.9 1875.06 1330.15 1878.25 Q1333.42 1881.4 1339.25 1881.4 Q1342.62 1881.4 1345.77 1880.57 Q1348.96 1879.74 1352.07 1878.09 L1352.07 1883.63 Q1348.92 1884.96 1345.61 1885.66 Q1342.3 1886.36 1338.9 1886.36 Q1330.37 1886.36 1325.37 1881.4 Q1320.41 1876.43 1320.41 1867.97 Q1320.41 1859.21 1325.12 1854.09 Q1329.86 1848.93 1337.88 1848.93 Q1345.07 1848.93 1349.24 1853.58 Q1353.44 1858.2 1353.44 1866.15 M1347.59 1864.43 Q1347.52 1859.63 1344.88 1856.76 Q1342.27 1853.9 1337.94 1853.9 Q1333.04 1853.9 1330.08 1856.67 Q1327.15 1859.44 1326.71 1864.47 L1347.59 1864.43 Z" fill="#000000" fill-rule="nonzero" fill-opacity="1" /><path clip-path="url(#clip350)" d="M1368.72 1880.09 L1368.72 1899 L1362.83 1899 L1362.83 1849.79 L1368.72 1849.79 L1368.72 1855.2 Q1370.57 1852.02 1373.37 1850.49 Q1376.2 1848.93 1380.12 1848.93 Q1386.61 1848.93 1390.65 1854.09 Q1394.73 1859.25 1394.73 1867.65 Q1394.73 1876.05 1390.65 1881.21 Q1386.61 1886.36 1380.12 1886.36 Q1376.2 1886.36 1373.37 1884.84 Q1370.57 1883.28 1368.72 1880.09 M1388.65 1867.65 Q1388.65 1861.19 1385.97 1857.53 Q1383.33 1853.84 1378.68 1853.84 Q1374.04 1853.84 1371.36 1857.53 Q1368.72 1861.19 1368.72 1867.65 Q1368.72 1874.11 1371.36 1877.8 Q1374.04 1881.46 1378.68 1881.46 Q1383.33 1881.46 1385.97 1877.8 Q1388.65 1874.11 1388.65 1867.65 Z" fill="#000000" fill-rule="nonzero" fill-opacity="1" /><path clip-path="url(#clip350)" d="M1410.23 1839.67 L1410.23 1849.79 L1422.29 1849.79 L1422.29 1854.34 L1410.23 1854.34 L1410.23 1873.7 Q1410.23 1878.06 1411.4 1879.3 Q1412.61 1880.54 1416.27 1880.54 L1422.29 1880.54 L1422.29 1885.44 L1416.27 1885.44 Q1409.49 1885.44 1406.92 1882.93 Q1404.34 1880.38 1404.34 1873.7 L1404.34 1854.34 L1400.04 1854.34 L1400.04 1849.79 L1404.34 1849.79 L1404.34 1839.67 L1410.23 1839.67 Z" fill="#000000" fill-rule="nonzero" fill-opacity="1" /><path clip-path="url(#clip350)" d="M1459.62 1863.92 L1459.62 1885.44 L1453.77 1885.44 L1453.77 1864.12 Q1453.77 1859.05 1451.79 1856.54 Q1449.82 1854.03 1445.87 1854.03 Q1441.13 1854.03 1438.39 1857.05 Q1435.66 1860.07 1435.66 1865.29 L1435.66 1885.44 L1429.77 1885.44 L1429.77 1835.92 L1435.66 1835.92 L1435.66 1855.33 Q1437.76 1852.12 1440.59 1850.52 Q1443.45 1848.93 1447.18 1848.93 Q1453.32 1848.93 1456.47 1852.75 Q1459.62 1856.54 1459.62 1863.92 Z" fill="#000000" fill-rule="nonzero" fill-opacity="1" /><path clip-path="url(#clip350)" d="M1508.23 1867.52 Q1501.13 1867.52 1498.39 1869.14 Q1495.65 1870.77 1495.65 1874.68 Q1495.65 1877.8 1497.69 1879.65 Q1499.76 1881.46 1503.29 1881.46 Q1508.16 1881.46 1511.09 1878.02 Q1514.05 1874.56 1514.05 1868.83 L1514.05 1867.52 L1508.23 1867.52 M1519.91 1865.1 L1519.91 1885.44 L1514.05 1885.44 L1514.05 1880.03 Q1512.05 1883.28 1509.05 1884.84 Q1506.06 1886.36 1501.73 1886.36 Q1496.26 1886.36 1493.01 1883.31 Q1489.8 1880.22 1489.8 1875.06 Q1489.8 1869.05 1493.81 1865.99 Q1497.85 1862.94 1505.84 1862.94 L1514.05 1862.94 L1514.05 1862.37 Q1514.05 1858.32 1511.38 1856.13 Q1508.73 1853.9 1503.93 1853.9 Q1500.87 1853.9 1497.98 1854.63 Q1495.08 1855.36 1492.41 1856.83 L1492.41 1851.42 Q1495.62 1850.17 1498.65 1849.57 Q1501.67 1848.93 1504.53 1848.93 Q1512.27 1848.93 1516.09 1852.94 Q1519.91 1856.95 1519.91 1865.1 Z" fill="#000000" fill-rule="nonzero" fill-opacity="1" /><path clip-path="url(#clip350)" d="M1537.76 1839.67 L1537.76 1849.79 L1549.83 1849.79 L1549.83 1854.34 L1537.76 1854.34 L1537.76 1873.7 Q1537.76 1878.06 1538.94 1879.3 Q1540.15 1880.54 1543.81 1880.54 L1549.83 1880.54 L1549.83 1885.44 L1543.81 1885.44 Q1537.03 1885.44 1534.45 1882.93 Q1531.87 1880.38 1531.87 1873.7 L1531.87 1854.34 L1527.58 1854.34 L1527.58 1849.79 L1531.87 1849.79 L1531.87 1839.67 L1537.76 1839.67 Z" fill="#000000" fill-rule="nonzero" fill-opacity="1" /><path clip-path="url(#clip350)" d="M1578.5 1837.92 L1584.93 1837.92 L1584.93 1857.4 L1608.29 1857.4 L1608.29 1837.92 L1614.72 1837.92 L1614.72 1885.44 L1608.29 1885.44 L1608.29 1862.81 L1584.93 1862.81 L1584.93 1885.44 L1578.5 1885.44 L1578.5 1837.92 Z" fill="#000000" fill-rule="nonzero" fill-opacity="1" /><path clip-path="url(#clip350)" d="M1641.08 1853.9 Q1636.37 1853.9 1633.63 1857.59 Q1630.89 1861.25 1630.89 1867.65 Q1630.89 1874.05 1633.6 1877.74 Q1636.34 1881.4 1641.08 1881.4 Q1645.76 1881.4 1648.49 1877.71 Q1651.23 1874.01 1651.23 1867.65 Q1651.23 1861.31 1648.49 1857.62 Q1645.76 1853.9 1641.08 1853.9 M1641.08 1848.93 Q1648.72 1848.93 1653.08 1853.9 Q1657.44 1858.86 1657.44 1867.65 Q1657.44 1876.4 1653.08 1881.4 Q1648.72 1886.36 1641.08 1886.36 Q1633.41 1886.36 1629.05 1881.4 Q1624.72 1876.4 1624.72 1867.65 Q1624.72 1858.86 1629.05 1853.9 Q1633.41 1848.93 1641.08 1848.93 Z" fill="#000000" fill-rule="nonzero" fill-opacity="1" /><path clip-path="url(#clip350)" d="M1666.54 1871.37 L1666.54 1849.79 L1672.4 1849.79 L1672.4 1871.15 Q1672.4 1876.21 1674.37 1878.76 Q1676.34 1881.27 1680.29 1881.27 Q1685.03 1881.27 1687.77 1878.25 Q1690.54 1875.22 1690.54 1870 L1690.54 1849.79 L1696.4 1849.79 L1696.4 1885.44 L1690.54 1885.44 L1690.54 1879.97 Q1688.41 1883.21 1685.57 1884.8 Q1682.77 1886.36 1679.05 1886.36 Q1672.91 1886.36 1669.72 1882.54 Q1666.54 1878.73 1666.54 1871.37 M1681.28 1848.93 L1681.28 1848.93 Z" fill="#000000" fill-rule="nonzero" fill-opacity="1" /><path clip-path="url(#clip350)" d="M1731.18 1850.84 L1731.18 1856.38 Q1728.7 1855.11 1726.03 1854.47 Q1723.35 1853.84 1720.49 1853.84 Q1716.13 1853.84 1713.93 1855.17 Q1711.77 1856.51 1711.77 1859.18 Q1711.77 1861.22 1713.33 1862.4 Q1714.89 1863.54 1719.6 1864.59 L1721.6 1865.04 Q1727.84 1866.38 1730.45 1868.83 Q1733.09 1871.25 1733.09 1875.61 Q1733.09 1880.57 1729.15 1883.47 Q1725.23 1886.36 1718.36 1886.36 Q1715.49 1886.36 1712.37 1885.79 Q1709.29 1885.25 1705.85 1884.14 L1705.85 1878.09 Q1709.1 1879.78 1712.25 1880.63 Q1715.4 1881.46 1718.49 1881.46 Q1722.62 1881.46 1724.85 1880.06 Q1727.08 1878.63 1727.08 1876.05 Q1727.08 1873.66 1725.46 1872.39 Q1723.86 1871.12 1718.42 1869.94 L1716.38 1869.46 Q1710.94 1868.32 1708.52 1865.96 Q1706.1 1863.57 1706.1 1859.44 Q1706.1 1854.41 1709.67 1851.67 Q1713.23 1848.93 1719.79 1848.93 Q1723.04 1848.93 1725.9 1849.41 Q1728.77 1849.89 1731.18 1850.84 Z" fill="#000000" fill-rule="nonzero" fill-opacity="1" /><path clip-path="url(#clip350)" d="M1772.91 1866.15 L1772.91 1869.02 L1745.98 1869.02 Q1746.37 1875.06 1749.61 1878.25 Q1752.89 1881.4 1758.72 1881.4 Q1762.09 1881.4 1765.24 1880.57 Q1768.42 1879.74 1771.54 1878.09 L1771.54 1883.63 Q1768.39 1884.96 1765.08 1885.66 Q1761.77 1886.36 1758.37 1886.36 Q1749.84 1886.36 1744.84 1881.4 Q1739.87 1876.43 1739.87 1867.97 Q1739.87 1859.21 1744.58 1854.09 Q1749.33 1848.93 1757.35 1848.93 Q1764.54 1848.93 1768.71 1853.58 Q1772.91 1858.2 1772.91 1866.15 M1767.06 1864.43 Q1766.99 1859.63 1764.35 1856.76 Q1761.74 1853.9 1757.41 1853.9 Q1752.51 1853.9 1749.55 1856.67 Q1746.62 1859.44 1746.18 1864.47 L1767.06 1864.43 Z" fill="#000000" fill-rule="nonzero" fill-opacity="1" /><path clip-path="url(#clip350)" d="M1817.31 1835.98 Q1813.05 1843.3 1810.98 1850.46 Q1808.91 1857.62 1808.91 1864.98 Q1808.91 1872.33 1810.98 1879.55 Q1813.08 1886.75 1817.31 1894.03 L1812.22 1894.03 Q1807.45 1886.55 1805.06 1879.33 Q1802.7 1872.1 1802.7 1864.98 Q1802.7 1857.88 1805.06 1850.68 Q1807.41 1843.49 1812.22 1835.98 L1817.31 1835.98 Z" fill="#000000" fill-rule="nonzero" fill-opacity="1" /><path clip-path="url(#clip350)" d="M1846.72 1835.92 L1846.72 1840.79 L1841.12 1840.79 Q1837.97 1840.79 1836.73 1842.06 Q1835.52 1843.33 1835.52 1846.64 L1835.52 1849.79 L1845.16 1849.79 L1845.16 1854.34 L1835.52 1854.34 L1835.52 1885.44 L1829.63 1885.44 L1829.63 1854.34 L1824.03 1854.34 L1824.03 1849.79 L1829.63 1849.79 L1829.63 1847.31 Q1829.63 1841.36 1832.4 1838.65 Q1835.17 1835.92 1841.18 1835.92 L1846.72 1835.92 Z" fill="#000000" fill-rule="nonzero" fill-opacity="1" /><path clip-path="url(#clip350)" d="M1856.27 1839.67 L1856.27 1849.79 L1868.33 1849.79 L1868.33 1854.34 L1856.27 1854.34 L1856.27 1873.7 Q1856.27 1878.06 1857.45 1879.3 Q1858.66 1880.54 1862.32 1880.54 L1868.33 1880.54 L1868.33 1885.44 L1862.32 1885.44 Q1855.54 1885.44 1852.96 1882.93 Q1850.38 1880.38 1850.38 1873.7 L1850.38 1854.34 L1846.09 1854.34 L1846.09 1849.79 L1850.38 1849.79 L1850.38 1839.67 L1856.27 1839.67 Z" fill="#000000" fill-rule="nonzero" fill-opacity="1" /><path clip-path="url(#clip350)" d="M1875.11 1835.98 L1880.21 1835.98 Q1884.98 1843.49 1887.34 1850.68 Q1889.72 1857.88 1889.72 1864.98 Q1889.72 1872.1 1887.34 1879.33 Q1884.98 1886.55 1880.21 1894.03 L1875.11 1894.03 Q1879.35 1886.75 1881.42 1879.55 Q1883.52 1872.33 1883.52 1864.98 Q1883.52 1857.62 1881.42 1850.46 Q1879.35 1843.3 1875.11 1835.98 Z" fill="#000000" fill-rule="nonzero" fill-opacity="1" /><polyline clip-path="url(#clip352)" style="stroke:#000000; stroke-linecap:round; stroke-linejoin:round; stroke-width:2; stroke-opacity:0.1; fill:none" points="291.255,1689.05 2674.02,1689.05 "/>
<polyline clip-path="url(#clip352)" style="stroke:#000000; stroke-linecap:round; stroke-linejoin:round; stroke-width:2; stroke-opacity:0.1; fill:none" points="291.255,1294.88 2674.02,1294.88 "/>
<polyline clip-path="url(#clip352)" style="stroke:#000000; stroke-linecap:round; stroke-linejoin:round; stroke-width:2; stroke-opacity:0.1; fill:none" points="291.255,900.718 2674.02,900.718 "/>
<polyline clip-path="url(#clip352)" style="stroke:#000000; stroke-linecap:round; stroke-linejoin:round; stroke-width:2; stroke-opacity:0.1; fill:none" points="291.255,506.552 2674.02,506.552 "/>
<polyline clip-path="url(#clip350)" style="stroke:#000000; stroke-linecap:round; stroke-linejoin:round; stroke-width:4; stroke-opacity:1; fill:none" points="291.255,1734.58 291.255,125.984 "/>
<polyline clip-path="url(#clip350)" style="stroke:#000000; stroke-linecap:round; stroke-linejoin:round; stroke-width:4; stroke-opacity:1; fill:none" points="291.255,1689.05 310.153,1689.05 "/>
<polyline clip-path="url(#clip350)" style="stroke:#000000; stroke-linecap:round; stroke-linejoin:round; stroke-width:4; stroke-opacity:1; fill:none" points="291.255,1294.88 310.153,1294.88 "/>
<polyline clip-path="url(#clip350)" style="stroke:#000000; stroke-linecap:round; stroke-linejoin:round; stroke-width:4; stroke-opacity:1; fill:none" points="291.255,900.718 310.153,900.718 "/>
<polyline clip-path="url(#clip350)" style="stroke:#000000; stroke-linecap:round; stroke-linejoin:round; stroke-width:4; stroke-opacity:1; fill:none" points="291.255,506.552 310.153,506.552 "/>
<path clip-path="url(#clip350)" d="M237.311 1674.85 Q233.7 1674.85 231.871 1678.41 Q230.066 1681.96 230.066 1689.09 Q230.066 1696.19 231.871 1699.76 Q233.7 1703.3 237.311 1703.3 Q240.945 1703.3 242.751 1699.76 Q244.58 1696.19 244.58 1689.09 Q244.58 1681.96 242.751 1678.41 Q240.945 1674.85 237.311 1674.85 M237.311 1671.15 Q243.121 1671.15 246.177 1675.75 Q249.255 1680.34 249.255 1689.09 Q249.255 1697.81 246.177 1702.42 Q243.121 1707 237.311 1707 Q231.501 1707 228.422 1702.42 Q225.367 1697.81 225.367 1689.09 Q225.367 1680.34 228.422 1675.75 Q231.501 1671.15 237.311 1671.15 Z" fill="#000000" fill-rule="nonzero" fill-opacity="1" /><path clip-path="url(#clip350)" d="M201.177 1308.23 L217.496 1308.23 L217.496 1312.16 L195.552 1312.16 L195.552 1308.23 Q198.214 1305.47 202.797 1300.84 Q207.404 1296.19 208.584 1294.85 Q210.83 1292.33 211.709 1290.59 Q212.612 1288.83 212.612 1287.14 Q212.612 1284.39 210.668 1282.65 Q208.746 1280.91 205.645 1280.91 Q203.445 1280.91 200.992 1281.68 Q198.561 1282.44 195.783 1283.99 L195.783 1279.27 Q198.608 1278.14 201.061 1277.56 Q203.515 1276.98 205.552 1276.98 Q210.922 1276.98 214.117 1279.66 Q217.311 1282.35 217.311 1286.84 Q217.311 1288.97 216.501 1290.89 Q215.714 1292.79 213.607 1295.38 Q213.029 1296.05 209.927 1299.27 Q206.825 1302.47 201.177 1308.23 Z" fill="#000000" fill-rule="nonzero" fill-opacity="1" /><path clip-path="url(#clip350)" d="M237.311 1280.68 Q233.7 1280.68 231.871 1284.25 Q230.066 1287.79 230.066 1294.92 Q230.066 1302.03 231.871 1305.59 Q233.7 1309.13 237.311 1309.13 Q240.945 1309.13 242.751 1305.59 Q244.58 1302.03 244.58 1294.92 Q244.58 1287.79 242.751 1284.25 Q240.945 1280.68 237.311 1280.68 M237.311 1276.98 Q243.121 1276.98 246.177 1281.59 Q249.255 1286.17 249.255 1294.92 Q249.255 1303.65 246.177 1308.25 Q243.121 1312.84 237.311 1312.84 Q231.501 1312.84 228.422 1308.25 Q225.367 1303.65 225.367 1294.92 Q225.367 1286.17 228.422 1281.59 Q231.501 1276.98 237.311 1276.98 Z" fill="#000000" fill-rule="nonzero" fill-opacity="1" /><path clip-path="url(#clip350)" d="M209.996 887.512 L198.191 905.961 L209.996 905.961 L209.996 887.512 M208.77 883.438 L214.649 883.438 L214.649 905.961 L219.58 905.961 L219.58 909.85 L214.649 909.85 L214.649 917.998 L209.996 917.998 L209.996 909.85 L194.395 909.85 L194.395 905.336 L208.77 883.438 Z" fill="#000000" fill-rule="nonzero" fill-opacity="1" /><path clip-path="url(#clip350)" d="M237.311 886.517 Q233.7 886.517 231.871 890.082 Q230.066 893.623 230.066 900.753 Q230.066 907.859 231.871 911.424 Q233.7 914.966 237.311 914.966 Q240.945 914.966 242.751 911.424 Q244.58 907.859 244.58 900.753 Q244.58 893.623 242.751 890.082 Q240.945 886.517 237.311 886.517 M237.311 882.813 Q243.121 882.813 246.177 887.42 Q249.255 892.003 249.255 900.753 Q249.255 909.48 246.177 914.086 Q243.121 918.669 237.311 918.669 Q231.501 918.669 228.422 914.086 Q225.367 909.48 225.367 900.753 Q225.367 892.003 228.422 887.42 Q231.501 882.813 237.311 882.813 Z" fill="#000000" fill-rule="nonzero" fill-opacity="1" /><path clip-path="url(#clip350)" d="M207.728 504.688 Q204.58 504.688 202.728 506.841 Q200.899 508.994 200.899 512.744 Q200.899 516.471 202.728 518.647 Q204.58 520.799 207.728 520.799 Q210.876 520.799 212.705 518.647 Q214.557 516.471 214.557 512.744 Q214.557 508.994 212.705 506.841 Q210.876 504.688 207.728 504.688 M217.01 490.036 L217.01 494.295 Q215.251 493.462 213.445 493.022 Q211.663 492.582 209.904 492.582 Q205.274 492.582 202.82 495.707 Q200.39 498.832 200.043 505.151 Q201.408 503.137 203.469 502.073 Q205.529 500.985 208.006 500.985 Q213.214 500.985 216.223 504.156 Q219.256 507.304 219.256 512.744 Q219.256 518.068 216.107 521.286 Q212.959 524.503 207.728 524.503 Q201.733 524.503 198.561 519.92 Q195.39 515.313 195.39 506.587 Q195.39 498.392 199.279 493.531 Q203.168 488.647 209.719 488.647 Q211.478 488.647 213.26 488.994 Q215.066 489.341 217.01 490.036 Z" fill="#000000" fill-rule="nonzero" fill-opacity="1" /><path clip-path="url(#clip350)" d="M237.311 492.35 Q233.7 492.35 231.871 495.915 Q230.066 499.457 230.066 506.587 Q230.066 513.693 231.871 517.258 Q233.7 520.799 237.311 520.799 Q240.945 520.799 242.751 517.258 Q244.58 513.693 244.58 506.587 Q244.58 499.457 242.751 495.915 Q240.945 492.35 237.311 492.35 M237.311 488.647 Q243.121 488.647 246.177 493.253 Q249.255 497.837 249.255 506.587 Q249.255 515.313 246.177 519.92 Q243.121 524.503 237.311 524.503 Q231.501 524.503 228.422 519.92 Q225.367 515.313 225.367 506.587 Q225.367 497.837 228.422 493.253 Q231.501 488.647 237.311 488.647 Z" fill="#000000" fill-rule="nonzero" fill-opacity="1" /><path clip-path="url(#clip350)" d="M95.9021 1122.14 L132.855 1122.14 L132.855 1114.38 Q132.855 1104.54 128.399 1099.99 Q123.943 1095.41 114.331 1095.41 Q104.782 1095.41 100.358 1099.99 Q95.9021 1104.54 95.9021 1114.38 L95.9021 1122.14 M90.6186 1128.57 L90.6186 1115.36 Q90.6186 1101.55 96.3796 1095.09 Q102.109 1088.63 114.331 1088.63 Q126.617 1088.63 132.378 1095.12 Q138.139 1101.61 138.139 1115.36 L138.139 1128.57 L90.6186 1128.57 Z" fill="#000000" fill-rule="nonzero" fill-opacity="1" /><path clip-path="url(#clip350)" d="M120.219 1062.43 Q120.219 1069.53 121.842 1072.27 Q123.466 1075 127.381 1075 Q130.5 1075 132.346 1072.97 Q134.16 1070.9 134.16 1067.37 Q134.16 1062.5 130.723 1059.57 Q127.253 1056.61 121.524 1056.61 L120.219 1056.61 L120.219 1062.43 M117.8 1050.75 L138.139 1050.75 L138.139 1056.61 L132.728 1056.61 Q135.974 1058.61 137.534 1061.61 Q139.062 1064.6 139.062 1068.93 Q139.062 1074.4 136.006 1077.65 Q132.919 1080.86 127.762 1080.86 Q121.747 1080.86 118.691 1076.85 Q115.636 1072.81 115.636 1064.82 L115.636 1056.61 L115.063 1056.61 Q111.021 1056.61 108.825 1059.28 Q106.597 1061.92 106.597 1066.73 Q106.597 1069.79 107.329 1072.68 Q108.061 1075.58 109.525 1078.25 L104.114 1078.25 Q102.873 1075.04 102.268 1072.01 Q101.631 1068.99 101.631 1066.12 Q101.631 1058.39 105.642 1054.57 Q109.652 1050.75 117.8 1050.75 Z" fill="#000000" fill-rule="nonzero" fill-opacity="1" /><path clip-path="url(#clip350)" d="M109.334 1010.93 Q105.387 1008.74 103.509 1005.68 Q101.631 1002.63 101.631 998.489 Q101.631 992.919 105.546 989.895 Q109.429 986.872 116.623 986.872 L138.139 986.872 L138.139 992.76 L116.813 992.76 Q111.689 992.76 109.206 994.574 Q106.724 996.388 106.724 1000.11 Q106.724 1004.66 109.748 1007.31 Q112.771 1009.95 117.991 1009.95 L138.139 1009.95 L138.139 1015.84 L116.813 1015.84 Q111.657 1015.84 109.206 1017.65 Q106.724 1019.46 106.724 1023.25 Q106.724 1027.74 109.779 1030.38 Q112.803 1033.02 117.991 1033.02 L138.139 1033.02 L138.139 1038.91 L102.491 1038.91 L102.491 1033.02 L108.029 1033.02 Q104.75 1031.02 103.191 1028.22 Q101.631 1025.42 101.631 1021.56 Q101.631 1017.68 103.605 1014.98 Q105.578 1012.24 109.334 1010.93 Z" fill="#000000" fill-rule="nonzero" fill-opacity="1" /><path clip-path="url(#clip350)" d="M120.219 958.99 Q120.219 966.088 121.842 968.825 Q123.466 971.562 127.381 971.562 Q130.5 971.562 132.346 969.525 Q134.16 967.456 134.16 963.923 Q134.16 959.054 130.723 956.125 Q127.253 953.165 121.524 953.165 L120.219 953.165 L120.219 958.99 M117.8 947.309 L138.139 947.309 L138.139 953.165 L132.728 953.165 Q135.974 955.17 137.534 958.162 Q139.062 961.154 139.062 965.483 Q139.062 970.957 136.006 974.204 Q132.919 977.419 127.762 977.419 Q121.747 977.419 118.691 973.408 Q115.636 969.366 115.636 961.377 L115.636 953.165 L115.063 953.165 Q111.021 953.165 108.825 955.839 Q106.597 958.481 106.597 963.287 Q106.597 966.342 107.329 969.239 Q108.061 972.135 109.525 974.809 L104.114 974.809 Q102.873 971.594 102.268 968.57 Q101.631 965.547 101.631 962.682 Q101.631 954.948 105.642 951.128 Q109.652 947.309 117.8 947.309 Z" fill="#000000" fill-rule="nonzero" fill-opacity="1" /><path clip-path="url(#clip350)" d="M119.901 911.788 Q113.535 911.788 110.034 914.43 Q106.533 917.04 106.533 921.782 Q106.533 926.493 110.034 929.135 Q113.535 931.745 119.901 931.745 Q126.235 931.745 129.736 929.135 Q133.237 926.493 133.237 921.782 Q133.237 917.04 129.736 914.43 Q126.235 911.788 119.901 911.788 M133.714 905.932 Q142.817 905.932 147.242 909.974 Q151.698 914.016 151.698 922.355 Q151.698 925.443 151.22 928.18 Q150.775 930.917 149.82 933.495 L144.122 933.495 Q145.523 930.917 146.191 928.403 Q146.86 925.888 146.86 923.278 Q146.86 917.517 143.836 914.653 Q140.844 911.788 134.765 911.788 L131.868 911.788 Q135.019 913.602 136.579 916.435 Q138.139 919.268 138.139 923.215 Q138.139 929.771 133.142 933.782 Q128.144 937.792 119.901 937.792 Q111.625 937.792 106.628 933.782 Q101.631 929.771 101.631 923.215 Q101.631 919.268 103.191 916.435 Q104.75 913.602 107.901 911.788 L102.491 911.788 L102.491 905.932 L133.714 905.932 Z" fill="#000000" fill-rule="nonzero" fill-opacity="1" /><path clip-path="url(#clip350)" d="M118.851 863.377 L121.715 863.377 L121.715 890.304 Q127.762 889.922 130.945 886.675 Q134.096 883.397 134.096 877.572 Q134.096 874.199 133.269 871.048 Q132.441 867.865 130.786 864.746 L136.324 864.746 Q137.661 867.897 138.361 871.207 Q139.062 874.517 139.062 877.923 Q139.062 886.453 134.096 891.45 Q129.131 896.415 120.665 896.415 Q111.912 896.415 106.787 891.704 Q101.631 886.962 101.631 878.941 Q101.631 871.748 106.278 867.578 Q110.893 863.377 118.851 863.377 M117.132 869.233 Q112.326 869.297 109.461 871.939 Q106.597 874.549 106.597 878.877 Q106.597 883.779 109.366 886.739 Q112.135 889.667 117.164 890.113 L117.132 869.233 Z" fill="#000000" fill-rule="nonzero" fill-opacity="1" /><path clip-path="url(#clip350)" d="M88.6771 818.976 Q95.9976 823.241 103.159 825.31 Q110.32 827.379 117.673 827.379 Q125.025 827.379 132.25 825.31 Q139.444 823.209 146.732 818.976 L146.732 824.069 Q139.253 828.843 132.028 831.23 Q124.802 833.585 117.673 833.585 Q110.575 833.585 103.382 831.23 Q96.1886 828.875 88.6771 824.069 L88.6771 818.976 Z" fill="#000000" fill-rule="nonzero" fill-opacity="1" /><path clip-path="url(#clip350)" d="M117.227 766.364 Q117.227 769.133 119.583 770.724 Q121.938 772.284 126.139 772.284 Q130.277 772.284 132.664 770.724 Q135.019 769.133 135.019 766.364 Q135.019 763.658 132.664 762.099 Q130.277 760.507 126.139 760.507 Q121.97 760.507 119.614 762.099 Q117.227 763.658 117.227 766.364 M113.185 766.364 Q113.185 761.335 116.686 758.375 Q120.187 755.415 126.139 755.415 Q132.091 755.415 135.592 758.406 Q139.062 761.367 139.062 766.364 Q139.062 771.456 135.592 774.416 Q132.091 777.376 126.139 777.376 Q120.155 777.376 116.686 774.416 Q113.185 771.424 113.185 766.364 M93.8015 799.211 Q93.8015 801.948 96.1886 803.539 Q98.5439 805.099 102.682 805.099 Q106.883 805.099 109.238 803.539 Q111.594 801.98 111.594 799.211 Q111.594 796.442 109.238 794.882 Q106.883 793.291 102.682 793.291 Q98.5757 793.291 96.1886 794.882 Q93.8015 796.473 93.8015 799.211 M89.7592 770.469 L89.7592 765.377 L139.062 795.105 L139.062 800.197 L89.7592 770.469 M89.7592 799.211 Q89.7592 794.182 93.2604 791.19 Q96.7297 788.198 102.682 788.198 Q108.697 788.198 112.167 791.19 Q115.636 794.15 115.636 799.211 Q115.636 804.271 112.167 807.231 Q108.665 810.16 102.682 810.16 Q96.7615 810.16 93.2604 807.2 Q89.7592 804.24 89.7592 799.211 Z" fill="#000000" fill-rule="nonzero" fill-opacity="1" /><path clip-path="url(#clip350)" d="M88.6771 746.598 L88.6771 741.506 Q96.1886 736.731 103.382 734.376 Q110.575 731.989 117.673 731.989 Q124.802 731.989 132.028 734.376 Q139.253 736.731 146.732 741.506 L146.732 746.598 Q139.444 742.365 132.25 740.296 Q125.025 738.195 117.673 738.195 Q110.32 738.195 103.159 740.296 Q95.9976 742.365 88.6771 746.598 Z" fill="#000000" fill-rule="nonzero" fill-opacity="1" /><circle clip-path="url(#clip352)" cx="358.692" cy="1689.05" r="14.4" fill="#009af9" fill-rule="evenodd" fill-opacity="1" stroke="#000000" stroke-opacity="1" stroke-width="4"/>
<circle clip-path="url(#clip352)" cx="438.974" cy="1689.05" r="14.4" fill="#009af9" fill-rule="evenodd" fill-opacity="1" stroke="#000000" stroke-opacity="1" stroke-width="4"/>
<circle clip-path="url(#clip352)" cx="519.255" cy="1689.05" r="14.4" fill="#009af9" fill-rule="evenodd" fill-opacity="1" stroke="#000000" stroke-opacity="1" stroke-width="4"/>
<circle clip-path="url(#clip352)" cx="599.537" cy="1689.05" r="14.4" fill="#009af9" fill-rule="evenodd" fill-opacity="1" stroke="#000000" stroke-opacity="1" stroke-width="4"/>
<circle clip-path="url(#clip352)" cx="679.819" cy="1590.51" r="14.4" fill="#009af9" fill-rule="evenodd" fill-opacity="1" stroke="#000000" stroke-opacity="1" stroke-width="4"/>
<circle clip-path="url(#clip352)" cx="760.1" cy="1275.18" r="14.4" fill="#009af9" fill-rule="evenodd" fill-opacity="1" stroke="#000000" stroke-opacity="1" stroke-width="4"/>
<circle clip-path="url(#clip352)" cx="840.382" cy="1156.93" r="14.4" fill="#009af9" fill-rule="evenodd" fill-opacity="1" stroke="#000000" stroke-opacity="1" stroke-width="4"/>
<circle clip-path="url(#clip352)" cx="920.664" cy="1078.09" r="14.4" fill="#009af9" fill-rule="evenodd" fill-opacity="1" stroke="#000000" stroke-opacity="1" stroke-width="4"/>
<circle clip-path="url(#clip352)" cx="1000.95" cy="1018.97" r="14.4" fill="#009af9" fill-rule="evenodd" fill-opacity="1" stroke="#000000" stroke-opacity="1" stroke-width="4"/>
<circle clip-path="url(#clip352)" cx="1081.23" cy="959.843" r="14.4" fill="#009af9" fill-rule="evenodd" fill-opacity="1" stroke="#000000" stroke-opacity="1" stroke-width="4"/>
<circle clip-path="url(#clip352)" cx="1161.51" cy="920.426" r="14.4" fill="#009af9" fill-rule="evenodd" fill-opacity="1" stroke="#000000" stroke-opacity="1" stroke-width="4"/>
<circle clip-path="url(#clip352)" cx="1241.79" cy="900.718" r="14.4" fill="#009af9" fill-rule="evenodd" fill-opacity="1" stroke="#000000" stroke-opacity="1" stroke-width="4"/>
<circle clip-path="url(#clip352)" cx="1322.07" cy="900.718" r="14.4" fill="#009af9" fill-rule="evenodd" fill-opacity="1" stroke="#000000" stroke-opacity="1" stroke-width="4"/>
<circle clip-path="url(#clip352)" cx="1402.35" cy="861.301" r="14.4" fill="#009af9" fill-rule="evenodd" fill-opacity="1" stroke="#000000" stroke-opacity="1" stroke-width="4"/>
<circle clip-path="url(#clip352)" cx="1482.64" cy="821.885" r="14.4" fill="#009af9" fill-rule="evenodd" fill-opacity="1" stroke="#000000" stroke-opacity="1" stroke-width="4"/>
<circle clip-path="url(#clip352)" cx="1562.92" cy="762.76" r="14.4" fill="#009af9" fill-rule="evenodd" fill-opacity="1" stroke="#000000" stroke-opacity="1" stroke-width="4"/>
<circle clip-path="url(#clip352)" cx="1643.2" cy="723.343" r="14.4" fill="#009af9" fill-rule="evenodd" fill-opacity="1" stroke="#000000" stroke-opacity="1" stroke-width="4"/>
<circle clip-path="url(#clip352)" cx="1723.48" cy="664.218" r="14.4" fill="#009af9" fill-rule="evenodd" fill-opacity="1" stroke="#000000" stroke-opacity="1" stroke-width="4"/>
<circle clip-path="url(#clip352)" cx="1803.76" cy="605.093" r="14.4" fill="#009af9" fill-rule="evenodd" fill-opacity="1" stroke="#000000" stroke-opacity="1" stroke-width="4"/>
<circle clip-path="url(#clip352)" cx="1884.04" cy="545.968" r="14.4" fill="#009af9" fill-rule="evenodd" fill-opacity="1" stroke="#000000" stroke-opacity="1" stroke-width="4"/>
<circle clip-path="url(#clip352)" cx="1964.33" cy="506.552" r="14.4" fill="#009af9" fill-rule="evenodd" fill-opacity="1" stroke="#000000" stroke-opacity="1" stroke-width="4"/>
<circle clip-path="url(#clip352)" cx="2044.61" cy="467.135" r="14.4" fill="#009af9" fill-rule="evenodd" fill-opacity="1" stroke="#000000" stroke-opacity="1" stroke-width="4"/>
<circle clip-path="url(#clip352)" cx="2124.89" cy="408.01" r="14.4" fill="#009af9" fill-rule="evenodd" fill-opacity="1" stroke="#000000" stroke-opacity="1" stroke-width="4"/>
<circle clip-path="url(#clip352)" cx="2205.17" cy="368.594" r="14.4" fill="#009af9" fill-rule="evenodd" fill-opacity="1" stroke="#000000" stroke-opacity="1" stroke-width="4"/>
<circle clip-path="url(#clip352)" cx="2285.45" cy="329.177" r="14.4" fill="#009af9" fill-rule="evenodd" fill-opacity="1" stroke="#000000" stroke-opacity="1" stroke-width="4"/>
<circle clip-path="url(#clip352)" cx="2365.73" cy="289.76" r="14.4" fill="#009af9" fill-rule="evenodd" fill-opacity="1" stroke="#000000" stroke-opacity="1" stroke-width="4"/>
<circle clip-path="url(#clip352)" cx="2446.02" cy="250.344" r="14.4" fill="#009af9" fill-rule="evenodd" fill-opacity="1" stroke="#000000" stroke-opacity="1" stroke-width="4"/>
<circle clip-path="url(#clip352)" cx="2526.3" cy="210.927" r="14.4" fill="#009af9" fill-rule="evenodd" fill-opacity="1" stroke="#000000" stroke-opacity="1" stroke-width="4"/>
<circle clip-path="url(#clip352)" cx="2606.58" cy="171.51" r="14.4" fill="#009af9" fill-rule="evenodd" fill-opacity="1" stroke="#000000" stroke-opacity="1" stroke-width="4"/>
<path clip-path="url(#clip350)" d="M1050.33 1680.96 L2594.59 1680.96 L2594.59 1577.28 L1050.33 1577.28  Z" fill="#ffffff" fill-rule="evenodd" fill-opacity="1"/>
<polyline clip-path="url(#clip350)" style="stroke:#000000; stroke-linecap:round; stroke-linejoin:round; stroke-width:4; stroke-opacity:1; fill:none" points="1050.33,1680.96 2594.59,1680.96 2594.59,1577.28 1050.33,1577.28 1050.33,1680.96 "/>
<circle clip-path="url(#clip350)" cx="1156.23" cy="1629.12" r="20.48" fill="#009af9" fill-rule="evenodd" fill-opacity="1" stroke="#000000" stroke-opacity="1" stroke-width="5.68889"/>
<path clip-path="url(#clip350)" d="M1269.53 1613.11 L1269.53 1620.47 L1278.31 1620.47 L1278.31 1623.78 L1269.53 1623.78 L1269.53 1637.86 Q1269.53 1641.03 1270.39 1641.93 Q1271.27 1642.83 1273.93 1642.83 L1278.31 1642.83 L1278.31 1646.4 L1273.93 1646.4 Q1269 1646.4 1267.13 1644.57 Q1265.25 1642.72 1265.25 1637.86 L1265.25 1623.78 L1262.13 1623.78 L1262.13 1620.47 L1265.25 1620.47 L1265.25 1613.11 L1269.53 1613.11 Z" fill="#000000" fill-rule="nonzero" fill-opacity="1" /><path clip-path="url(#clip350)" d="M1281.43 1620.47 L1285.69 1620.47 L1291.02 1640.7 L1296.32 1620.47 L1301.34 1620.47 L1306.66 1640.7 L1311.96 1620.47 L1316.22 1620.47 L1309.44 1646.4 L1304.42 1646.4 L1298.84 1625.15 L1293.24 1646.4 L1288.21 1646.4 L1281.43 1620.47 Z" fill="#000000" fill-rule="nonzero" fill-opacity="1" /><path clip-path="url(#clip350)" d="M1332.73 1623.46 Q1329.3 1623.46 1327.31 1626.14 Q1325.32 1628.8 1325.32 1633.46 Q1325.32 1638.11 1327.29 1640.8 Q1329.28 1643.46 1332.73 1643.46 Q1336.13 1643.46 1338.12 1640.77 Q1340.11 1638.09 1340.11 1633.46 Q1340.11 1628.85 1338.12 1626.17 Q1336.13 1623.46 1332.73 1623.46 M1332.73 1619.85 Q1338.28 1619.85 1341.46 1623.46 Q1344.63 1627.07 1344.63 1633.46 Q1344.63 1639.82 1341.46 1643.46 Q1338.28 1647.07 1332.73 1647.07 Q1327.15 1647.07 1323.98 1643.46 Q1320.83 1639.82 1320.83 1633.46 Q1320.83 1627.07 1323.98 1623.46 Q1327.15 1619.85 1332.73 1619.85 Z" fill="#000000" fill-rule="nonzero" fill-opacity="1" /><path clip-path="url(#clip350)" d="M1383.28 1621.24 L1383.28 1625.26 Q1381.48 1624.34 1379.53 1623.87 Q1377.59 1623.41 1375.51 1623.41 Q1372.33 1623.41 1370.74 1624.38 Q1369.16 1625.36 1369.16 1627.3 Q1369.16 1628.78 1370.3 1629.64 Q1371.43 1630.47 1374.86 1631.24 L1376.32 1631.56 Q1380.85 1632.53 1382.75 1634.31 Q1384.67 1636.07 1384.67 1639.24 Q1384.67 1642.86 1381.8 1644.96 Q1378.95 1647.07 1373.96 1647.07 Q1371.87 1647.07 1369.6 1646.65 Q1367.36 1646.26 1364.86 1645.45 L1364.86 1641.05 Q1367.22 1642.28 1369.51 1642.9 Q1371.8 1643.5 1374.05 1643.5 Q1377.06 1643.5 1378.68 1642.49 Q1380.3 1641.44 1380.3 1639.57 Q1380.3 1637.83 1379.12 1636.91 Q1377.96 1635.98 1374 1635.12 L1372.52 1634.78 Q1368.56 1633.94 1366.8 1632.23 Q1365.04 1630.49 1365.04 1627.49 Q1365.04 1623.83 1367.64 1621.84 Q1370.23 1619.85 1375 1619.85 Q1377.36 1619.85 1379.44 1620.19 Q1381.52 1620.54 1383.28 1621.24 Z" fill="#000000" fill-rule="nonzero" fill-opacity="1" /><path clip-path="url(#clip350)" d="M1395.67 1613.11 L1395.67 1620.47 L1404.44 1620.47 L1404.44 1623.78 L1395.67 1623.78 L1395.67 1637.86 Q1395.67 1641.03 1396.52 1641.93 Q1397.4 1642.83 1400.07 1642.83 L1404.44 1642.83 L1404.44 1646.4 L1400.07 1646.4 Q1395.14 1646.4 1393.26 1644.57 Q1391.39 1642.72 1391.39 1637.86 L1391.39 1623.78 L1388.26 1623.78 L1388.26 1620.47 L1391.39 1620.47 L1391.39 1613.11 L1395.67 1613.11 Z" fill="#000000" fill-rule="nonzero" fill-opacity="1" /><path clip-path="url(#clip350)" d="M1420.09 1623.46 Q1416.66 1623.46 1414.67 1626.14 Q1412.68 1628.8 1412.68 1633.46 Q1412.68 1638.11 1414.65 1640.8 Q1416.64 1643.46 1420.09 1643.46 Q1423.49 1643.46 1425.48 1640.77 Q1427.47 1638.09 1427.47 1633.46 Q1427.47 1628.85 1425.48 1626.17 Q1423.49 1623.46 1420.09 1623.46 M1420.09 1619.85 Q1425.64 1619.85 1428.82 1623.46 Q1431.99 1627.07 1431.99 1633.46 Q1431.99 1639.82 1428.82 1643.46 Q1425.64 1647.07 1420.09 1647.07 Q1414.51 1647.07 1411.34 1643.46 Q1408.19 1639.82 1408.19 1633.46 Q1408.19 1627.07 1411.34 1623.46 Q1414.51 1619.85 1420.09 1619.85 Z" fill="#000000" fill-rule="nonzero" fill-opacity="1" /><path clip-path="url(#clip350)" d="M1454.07 1624.45 Q1453.35 1624.04 1452.5 1623.85 Q1451.66 1623.64 1450.64 1623.64 Q1447.03 1623.64 1445.09 1626 Q1443.17 1628.34 1443.17 1632.74 L1443.17 1646.4 L1438.89 1646.4 L1438.89 1620.47 L1443.17 1620.47 L1443.17 1624.5 Q1444.51 1622.14 1446.66 1621 Q1448.82 1619.85 1451.89 1619.85 Q1452.33 1619.85 1452.87 1619.92 Q1453.4 1619.96 1454.05 1620.08 L1454.07 1624.45 Z" fill="#000000" fill-rule="nonzero" fill-opacity="1" /><path clip-path="url(#clip350)" d="M1469.32 1648.8 Q1467.52 1653.43 1465.81 1654.85 Q1464.09 1656.26 1461.22 1656.26 L1457.82 1656.26 L1457.82 1652.69 L1460.32 1652.69 Q1462.08 1652.69 1463.05 1651.86 Q1464.02 1651.03 1465.2 1647.92 L1465.97 1645.98 L1455.48 1620.47 L1460 1620.47 L1468.1 1640.75 L1476.2 1620.47 L1480.71 1620.47 L1469.32 1648.8 Z" fill="#000000" fill-rule="nonzero" fill-opacity="1" /><path clip-path="url(#clip350)" d="M1487.68 1640.52 L1492.57 1640.52 L1492.57 1644.5 L1488.77 1651.91 L1485.78 1651.91 L1487.68 1644.5 L1487.68 1640.52 Z" fill="#000000" fill-rule="nonzero" fill-opacity="1" /><path clip-path="url(#clip350)" d="M1538.28 1630.75 L1538.28 1646.4 L1534.02 1646.4 L1534.02 1630.89 Q1534.02 1627.21 1532.59 1625.38 Q1531.15 1623.55 1528.28 1623.55 Q1524.83 1623.55 1522.84 1625.75 Q1520.85 1627.95 1520.85 1631.74 L1520.85 1646.4 L1516.57 1646.4 L1516.57 1620.47 L1520.85 1620.47 L1520.85 1624.5 Q1522.38 1622.16 1524.44 1621 Q1526.52 1619.85 1529.23 1619.85 Q1533.7 1619.85 1535.99 1622.62 Q1538.28 1625.38 1538.28 1630.75 Z" fill="#000000" fill-rule="nonzero" fill-opacity="1" /><path clip-path="url(#clip350)" d="M1556.82 1623.46 Q1553.4 1623.46 1551.41 1626.14 Q1549.42 1628.8 1549.42 1633.46 Q1549.42 1638.11 1551.38 1640.8 Q1553.38 1643.46 1556.82 1643.46 Q1560.23 1643.46 1562.22 1640.77 Q1564.21 1638.09 1564.21 1633.46 Q1564.21 1628.85 1562.22 1626.17 Q1560.23 1623.46 1556.82 1623.46 M1556.82 1619.85 Q1562.38 1619.85 1565.55 1623.46 Q1568.72 1627.07 1568.72 1633.46 Q1568.72 1639.82 1565.55 1643.46 Q1562.38 1647.07 1556.82 1647.07 Q1551.25 1647.07 1548.07 1643.46 Q1544.93 1639.82 1544.93 1633.46 Q1544.93 1627.07 1548.07 1623.46 Q1551.25 1619.85 1556.82 1619.85 Z" fill="#000000" fill-rule="nonzero" fill-opacity="1" /><path clip-path="url(#clip350)" d="M1609.46 1633.46 Q1609.46 1628.76 1607.52 1626.1 Q1605.6 1623.41 1602.22 1623.41 Q1598.84 1623.41 1596.89 1626.1 Q1594.97 1628.76 1594.97 1633.46 Q1594.97 1638.16 1596.89 1640.84 Q1598.84 1643.5 1602.22 1643.5 Q1605.6 1643.5 1607.52 1640.84 Q1609.46 1638.16 1609.46 1633.46 M1594.97 1624.41 Q1596.31 1622.09 1598.35 1620.98 Q1600.41 1619.85 1603.26 1619.85 Q1607.98 1619.85 1610.92 1623.6 Q1613.88 1627.35 1613.88 1633.46 Q1613.88 1639.57 1610.92 1643.32 Q1607.98 1647.07 1603.26 1647.07 Q1600.41 1647.07 1598.35 1645.96 Q1596.31 1644.82 1594.97 1642.51 L1594.97 1646.4 L1590.69 1646.4 L1590.69 1610.38 L1594.97 1610.38 L1594.97 1624.41 Z" fill="#000000" fill-rule="nonzero" fill-opacity="1" /><path clip-path="url(#clip350)" d="M1632.73 1633.36 Q1627.56 1633.36 1625.57 1634.55 Q1623.58 1635.73 1623.58 1638.57 Q1623.58 1640.84 1625.06 1642.18 Q1626.57 1643.5 1629.14 1643.5 Q1632.68 1643.5 1634.81 1641 Q1636.96 1638.48 1636.96 1634.31 L1636.96 1633.36 L1632.73 1633.36 M1641.22 1631.61 L1641.22 1646.4 L1636.96 1646.4 L1636.96 1642.46 Q1635.5 1644.82 1633.33 1645.96 Q1631.15 1647.07 1628 1647.07 Q1624.02 1647.07 1621.66 1644.85 Q1619.32 1642.6 1619.32 1638.85 Q1619.32 1634.48 1622.24 1632.25 Q1625.18 1630.03 1630.99 1630.03 L1636.96 1630.03 L1636.96 1629.61 Q1636.96 1626.67 1635.02 1625.08 Q1633.1 1623.46 1629.6 1623.46 Q1627.38 1623.46 1625.27 1623.99 Q1623.17 1624.52 1621.22 1625.59 L1621.22 1621.65 Q1623.56 1620.75 1625.76 1620.31 Q1627.96 1619.85 1630.04 1619.85 Q1635.67 1619.85 1638.44 1622.76 Q1641.22 1625.68 1641.22 1631.61 Z" fill="#000000" fill-rule="nonzero" fill-opacity="1" /><path clip-path="url(#clip350)" d="M1666.52 1621.24 L1666.52 1625.26 Q1664.72 1624.34 1662.77 1623.87 Q1660.83 1623.41 1658.75 1623.41 Q1655.57 1623.41 1653.98 1624.38 Q1652.4 1625.36 1652.4 1627.3 Q1652.4 1628.78 1653.54 1629.64 Q1654.67 1630.47 1658.1 1631.24 L1659.56 1631.56 Q1664.09 1632.53 1665.99 1634.31 Q1667.91 1636.07 1667.91 1639.24 Q1667.91 1642.86 1665.04 1644.96 Q1662.19 1647.07 1657.19 1647.07 Q1655.11 1647.07 1652.84 1646.65 Q1650.6 1646.26 1648.1 1645.45 L1648.1 1641.05 Q1650.46 1642.28 1652.75 1642.9 Q1655.04 1643.5 1657.29 1643.5 Q1660.3 1643.5 1661.92 1642.49 Q1663.54 1641.44 1663.54 1639.57 Q1663.54 1637.83 1662.36 1636.91 Q1661.2 1635.98 1657.24 1635.12 L1655.76 1634.78 Q1651.8 1633.94 1650.04 1632.23 Q1648.28 1630.49 1648.28 1627.49 Q1648.28 1623.83 1650.87 1621.84 Q1653.47 1619.85 1658.24 1619.85 Q1660.6 1619.85 1662.68 1620.19 Q1664.76 1620.54 1666.52 1621.24 Z" fill="#000000" fill-rule="nonzero" fill-opacity="1" /><path clip-path="url(#clip350)" d="M1696.87 1632.37 L1696.87 1634.45 L1677.29 1634.45 Q1677.56 1638.85 1679.93 1641.17 Q1682.31 1643.46 1686.55 1643.46 Q1689 1643.46 1691.29 1642.86 Q1693.61 1642.25 1695.87 1641.05 L1695.87 1645.08 Q1693.58 1646.05 1691.18 1646.56 Q1688.77 1647.07 1686.29 1647.07 Q1680.09 1647.07 1676.45 1643.46 Q1672.84 1639.85 1672.84 1633.69 Q1672.84 1627.32 1676.27 1623.6 Q1679.72 1619.85 1685.55 1619.85 Q1690.78 1619.85 1693.81 1623.23 Q1696.87 1626.58 1696.87 1632.37 M1692.61 1631.12 Q1692.56 1627.62 1690.64 1625.54 Q1688.75 1623.46 1685.6 1623.46 Q1682.03 1623.46 1679.88 1625.47 Q1677.75 1627.49 1677.43 1631.14 L1692.61 1631.12 Z" fill="#000000" fill-rule="nonzero" fill-opacity="1" /><path clip-path="url(#clip350)" d="M1724.05 1625.45 Q1725.64 1622.58 1727.87 1621.21 Q1730.09 1619.85 1733.1 1619.85 Q1737.15 1619.85 1739.35 1622.69 Q1741.55 1625.52 1741.55 1630.75 L1741.55 1646.4 L1737.26 1646.4 L1737.26 1630.89 Q1737.26 1627.16 1735.94 1625.36 Q1734.62 1623.55 1731.92 1623.55 Q1728.61 1623.55 1726.68 1625.75 Q1724.76 1627.95 1724.76 1631.74 L1724.76 1646.4 L1720.48 1646.4 L1720.48 1630.89 Q1720.48 1627.14 1719.16 1625.36 Q1717.84 1623.55 1715.09 1623.55 Q1711.82 1623.55 1709.9 1625.77 Q1707.98 1627.97 1707.98 1631.74 L1707.98 1646.4 L1703.7 1646.4 L1703.7 1620.47 L1707.98 1620.47 L1707.98 1624.5 Q1709.44 1622.11 1711.48 1620.98 Q1713.51 1619.85 1716.31 1619.85 Q1719.14 1619.85 1721.11 1621.28 Q1723.1 1622.72 1724.05 1625.45 Z" fill="#000000" fill-rule="nonzero" fill-opacity="1" /><path clip-path="url(#clip350)" d="M1772.22 1632.37 L1772.22 1634.45 L1752.63 1634.45 Q1752.91 1638.85 1755.27 1641.17 Q1757.66 1643.46 1761.89 1643.46 Q1764.35 1643.46 1766.64 1642.86 Q1768.95 1642.25 1771.22 1641.05 L1771.22 1645.08 Q1768.93 1646.05 1766.52 1646.56 Q1764.11 1647.07 1761.64 1647.07 Q1755.43 1647.07 1751.8 1643.46 Q1748.19 1639.85 1748.19 1633.69 Q1748.19 1627.32 1751.62 1623.6 Q1755.06 1619.85 1760.9 1619.85 Q1766.13 1619.85 1769.16 1623.23 Q1772.22 1626.58 1772.22 1632.37 M1767.96 1631.12 Q1767.91 1627.62 1765.99 1625.54 Q1764.09 1623.46 1760.94 1623.46 Q1757.38 1623.46 1755.23 1625.47 Q1753.1 1627.49 1752.77 1631.14 L1767.96 1631.12 Z" fill="#000000" fill-rule="nonzero" fill-opacity="1" /><path clip-path="url(#clip350)" d="M1800.76 1630.75 L1800.76 1646.4 L1796.5 1646.4 L1796.5 1630.89 Q1796.5 1627.21 1795.06 1625.38 Q1793.63 1623.55 1790.76 1623.55 Q1787.31 1623.55 1785.32 1625.75 Q1783.33 1627.95 1783.33 1631.74 L1783.33 1646.4 L1779.05 1646.4 L1779.05 1620.47 L1783.33 1620.47 L1783.33 1624.5 Q1784.86 1622.16 1786.92 1621 Q1789 1619.85 1791.71 1619.85 Q1796.17 1619.85 1798.47 1622.62 Q1800.76 1625.38 1800.76 1630.75 Z" fill="#000000" fill-rule="nonzero" fill-opacity="1" /><path clip-path="url(#clip350)" d="M1813.47 1613.11 L1813.47 1620.47 L1822.24 1620.47 L1822.24 1623.78 L1813.47 1623.78 L1813.47 1637.86 Q1813.47 1641.03 1814.32 1641.93 Q1815.2 1642.83 1817.86 1642.83 L1822.24 1642.83 L1822.24 1646.4 L1817.86 1646.4 Q1812.93 1646.4 1811.06 1644.57 Q1809.18 1642.72 1809.18 1637.86 L1809.18 1623.78 L1806.06 1623.78 L1806.06 1620.47 L1809.18 1620.47 L1809.18 1613.11 L1813.47 1613.11 Z" fill="#000000" fill-rule="nonzero" fill-opacity="1" /><path clip-path="url(#clip350)" d="M1828.93 1640.52 L1833.81 1640.52 L1833.81 1644.5 L1830.02 1651.91 L1827.03 1651.91 L1828.93 1644.5 L1828.93 1640.52 Z" fill="#000000" fill-rule="nonzero" fill-opacity="1" /><path clip-path="url(#clip350)" d="M1878.88 1612.97 L1878.88 1617.53 Q1876.22 1616.26 1873.86 1615.63 Q1871.5 1615.01 1869.3 1615.01 Q1865.48 1615.01 1863.4 1616.49 Q1861.34 1617.97 1861.34 1620.7 Q1861.34 1622.99 1862.7 1624.17 Q1864.09 1625.33 1867.93 1626.05 L1870.76 1626.63 Q1875.99 1627.62 1878.47 1630.15 Q1880.97 1632.65 1880.97 1636.86 Q1880.97 1641.88 1877.59 1644.48 Q1874.23 1647.07 1867.73 1647.07 Q1865.27 1647.07 1862.49 1646.51 Q1859.74 1645.96 1856.78 1644.87 L1856.78 1640.05 Q1859.62 1641.65 1862.36 1642.46 Q1865.09 1643.27 1867.73 1643.27 Q1871.73 1643.27 1873.91 1641.7 Q1876.08 1640.12 1876.08 1637.21 Q1876.08 1634.66 1874.51 1633.23 Q1872.96 1631.79 1869.39 1631.07 L1866.54 1630.52 Q1861.31 1629.48 1858.98 1627.25 Q1856.64 1625.03 1856.64 1621.07 Q1856.64 1616.49 1859.86 1613.85 Q1863.1 1611.21 1868.77 1611.21 Q1871.2 1611.21 1873.72 1611.65 Q1876.24 1612.09 1878.88 1612.97 Z" fill="#000000" fill-rule="nonzero" fill-opacity="1" /><path clip-path="url(#clip350)" d="M1892.29 1613.11 L1892.29 1620.47 L1901.06 1620.47 L1901.06 1623.78 L1892.29 1623.78 L1892.29 1637.86 Q1892.29 1641.03 1893.14 1641.93 Q1894.02 1642.83 1896.68 1642.83 L1901.06 1642.83 L1901.06 1646.4 L1896.68 1646.4 Q1891.75 1646.4 1889.88 1644.57 Q1888 1642.72 1888 1637.86 L1888 1623.78 L1884.88 1623.78 L1884.88 1620.47 L1888 1620.47 L1888 1613.11 L1892.29 1613.11 Z" fill="#000000" fill-rule="nonzero" fill-opacity="1" /><path clip-path="url(#clip350)" d="M1921.68 1624.45 Q1920.97 1624.04 1920.11 1623.85 Q1919.28 1623.64 1918.26 1623.64 Q1914.65 1623.64 1912.7 1626 Q1910.78 1628.34 1910.78 1632.74 L1910.78 1646.4 L1906.5 1646.4 L1906.5 1620.47 L1910.78 1620.47 L1910.78 1624.5 Q1912.12 1622.14 1914.28 1621 Q1916.43 1619.85 1919.51 1619.85 Q1919.95 1619.85 1920.48 1619.92 Q1921.01 1619.96 1921.66 1620.08 L1921.68 1624.45 Z" fill="#000000" fill-rule="nonzero" fill-opacity="1" /><path clip-path="url(#clip350)" d="M1925.71 1636.17 L1925.71 1620.47 L1929.97 1620.47 L1929.97 1636 Q1929.97 1639.68 1931.41 1641.54 Q1932.84 1643.36 1935.71 1643.36 Q1939.16 1643.36 1941.15 1641.17 Q1943.16 1638.97 1943.16 1635.17 L1943.16 1620.47 L1947.42 1620.47 L1947.42 1646.4 L1943.16 1646.4 L1943.16 1642.42 Q1941.61 1644.78 1939.55 1645.93 Q1937.52 1647.07 1934.81 1647.07 Q1930.34 1647.07 1928.03 1644.29 Q1925.71 1641.51 1925.71 1636.17 M1936.43 1619.85 L1936.43 1619.85 Z" fill="#000000" fill-rule="nonzero" fill-opacity="1" /><path clip-path="url(#clip350)" d="M1974.85 1621.47 L1974.85 1625.45 Q1973.05 1624.45 1971.22 1623.97 Q1969.41 1623.46 1967.56 1623.46 Q1963.42 1623.46 1961.13 1626.1 Q1958.84 1628.71 1958.84 1633.46 Q1958.84 1638.2 1961.13 1640.84 Q1963.42 1643.46 1967.56 1643.46 Q1969.41 1643.46 1971.22 1642.97 Q1973.05 1642.46 1974.85 1641.47 L1974.85 1645.4 Q1973.07 1646.24 1971.15 1646.65 Q1969.25 1647.07 1967.1 1647.07 Q1961.24 1647.07 1957.79 1643.39 Q1954.35 1639.71 1954.35 1633.46 Q1954.35 1627.11 1957.82 1623.48 Q1961.31 1619.85 1967.38 1619.85 Q1969.35 1619.85 1971.22 1620.26 Q1973.1 1620.66 1974.85 1621.47 Z" fill="#000000" fill-rule="nonzero" fill-opacity="1" /><path clip-path="url(#clip350)" d="M1986.47 1613.11 L1986.47 1620.47 L1995.25 1620.47 L1995.25 1623.78 L1986.47 1623.78 L1986.47 1637.86 Q1986.47 1641.03 1987.33 1641.93 Q1988.21 1642.83 1990.87 1642.83 L1995.25 1642.83 L1995.25 1646.4 L1990.87 1646.4 Q1985.94 1646.4 1984.07 1644.57 Q1982.19 1642.72 1982.19 1637.86 L1982.19 1623.78 L1979.07 1623.78 L1979.07 1620.47 L1982.19 1620.47 L1982.19 1613.11 L1986.47 1613.11 Z" fill="#000000" fill-rule="nonzero" fill-opacity="1" /><path clip-path="url(#clip350)" d="M2000.41 1636.17 L2000.41 1620.47 L2004.67 1620.47 L2004.67 1636 Q2004.67 1639.68 2006.1 1641.54 Q2007.54 1643.36 2010.41 1643.36 Q2013.86 1643.36 2015.85 1641.17 Q2017.86 1638.97 2017.86 1635.17 L2017.86 1620.47 L2022.12 1620.47 L2022.12 1646.4 L2017.86 1646.4 L2017.86 1642.42 Q2016.31 1644.78 2014.25 1645.93 Q2012.22 1647.07 2009.51 1647.07 Q2005.04 1647.07 2002.72 1644.29 Q2000.41 1641.51 2000.41 1636.17 M2011.13 1619.85 L2011.13 1619.85 Z" fill="#000000" fill-rule="nonzero" fill-opacity="1" /><path clip-path="url(#clip350)" d="M2045.92 1624.45 Q2045.2 1624.04 2044.34 1623.85 Q2043.51 1623.64 2042.49 1623.64 Q2038.88 1623.64 2036.94 1626 Q2035.02 1628.34 2035.02 1632.74 L2035.02 1646.4 L2030.73 1646.4 L2030.73 1620.47 L2035.02 1620.47 L2035.02 1624.5 Q2036.36 1622.14 2038.51 1621 Q2040.66 1619.85 2043.74 1619.85 Q2044.18 1619.85 2044.72 1619.92 Q2045.25 1619.96 2045.9 1620.08 L2045.92 1624.45 Z" fill="#000000" fill-rule="nonzero" fill-opacity="1" /><path clip-path="url(#clip350)" d="M2071.52 1632.37 L2071.52 1634.45 L2051.94 1634.45 Q2052.22 1638.85 2054.58 1641.17 Q2056.96 1643.46 2061.2 1643.46 Q2063.65 1643.46 2065.94 1642.86 Q2068.26 1642.25 2070.53 1641.05 L2070.53 1645.08 Q2068.23 1646.05 2065.83 1646.56 Q2063.42 1647.07 2060.94 1647.07 Q2054.74 1647.07 2051.1 1643.46 Q2047.49 1639.85 2047.49 1633.69 Q2047.49 1627.32 2050.92 1623.6 Q2054.37 1619.85 2060.2 1619.85 Q2065.43 1619.85 2068.47 1623.23 Q2071.52 1626.58 2071.52 1632.37 M2067.26 1631.12 Q2067.22 1627.62 2065.29 1625.54 Q2063.4 1623.46 2060.25 1623.46 Q2056.68 1623.46 2054.53 1625.47 Q2052.4 1627.49 2052.08 1631.14 L2067.26 1631.12 Z" fill="#000000" fill-rule="nonzero" fill-opacity="1" /><path clip-path="url(#clip350)" d="M2103.81 1610.43 Q2100.71 1615.75 2099.21 1620.96 Q2097.7 1626.17 2097.7 1631.51 Q2097.7 1636.86 2099.21 1642.11 Q2100.73 1647.35 2103.81 1652.65 L2100.11 1652.65 Q2096.64 1647.21 2094.9 1641.95 Q2093.19 1636.7 2093.19 1631.51 Q2093.19 1626.35 2094.9 1621.12 Q2096.61 1615.89 2100.11 1610.43 L2103.81 1610.43 Z" fill="#000000" fill-rule="nonzero" fill-opacity="1" /><path clip-path="url(#clip350)" d="M2111.73 1611.84 L2116.43 1611.84 L2116.43 1632.83 Q2116.43 1638.39 2118.44 1640.84 Q2120.46 1643.27 2124.97 1643.27 Q2129.46 1643.27 2131.47 1640.84 Q2133.49 1638.39 2133.49 1632.83 L2133.49 1611.84 L2138.19 1611.84 L2138.19 1633.41 Q2138.19 1640.17 2134.83 1643.62 Q2131.5 1647.07 2124.97 1647.07 Q2118.42 1647.07 2115.06 1643.62 Q2111.73 1640.17 2111.73 1633.41 L2111.73 1611.84 Z" fill="#000000" fill-rule="nonzero" fill-opacity="1" /><path clip-path="url(#clip350)" d="M2167.68 1612.97 L2167.68 1617.53 Q2165.02 1616.26 2162.65 1615.63 Q2160.29 1615.01 2158.09 1615.01 Q2154.27 1615.01 2152.19 1616.49 Q2150.13 1617.97 2150.13 1620.7 Q2150.13 1622.99 2151.5 1624.17 Q2152.89 1625.33 2156.73 1626.05 L2159.55 1626.63 Q2164.78 1627.62 2167.26 1630.15 Q2169.76 1632.65 2169.76 1636.86 Q2169.76 1641.88 2166.38 1644.48 Q2163.02 1647.07 2156.52 1647.07 Q2154.07 1647.07 2151.29 1646.51 Q2148.53 1645.96 2145.57 1644.87 L2145.57 1640.05 Q2148.42 1641.65 2151.15 1642.46 Q2153.88 1643.27 2156.52 1643.27 Q2160.52 1643.27 2162.7 1641.7 Q2164.88 1640.12 2164.88 1637.21 Q2164.88 1634.66 2163.3 1633.23 Q2161.75 1631.79 2158.19 1631.07 L2155.34 1630.52 Q2150.11 1629.48 2147.77 1627.25 Q2145.43 1625.03 2145.43 1621.07 Q2145.43 1616.49 2148.65 1613.85 Q2151.89 1611.21 2157.56 1611.21 Q2159.99 1611.21 2162.52 1611.65 Q2165.04 1612.09 2167.68 1612.97 Z" fill="#000000" fill-rule="nonzero" fill-opacity="1" /><path clip-path="url(#clip350)" d="M2189.48 1616.44 L2183.14 1633.64 L2195.85 1633.64 L2189.48 1616.44 M2186.84 1611.84 L2192.15 1611.84 L2205.32 1646.4 L2200.46 1646.4 L2197.31 1637.53 L2181.73 1637.53 L2178.58 1646.4 L2173.65 1646.4 L2186.84 1611.84 Z" fill="#000000" fill-rule="nonzero" fill-opacity="1" /><path clip-path="url(#clip350)" d="M2235.41 1614.5 L2235.41 1619.43 Q2233.05 1617.23 2230.36 1616.14 Q2227.7 1615.05 2224.69 1615.05 Q2218.77 1615.05 2215.62 1618.69 Q2212.47 1622.3 2212.47 1629.15 Q2212.47 1635.98 2215.62 1639.61 Q2218.77 1643.23 2224.69 1643.23 Q2227.7 1643.23 2230.36 1642.14 Q2233.05 1641.05 2235.41 1638.85 L2235.41 1643.74 Q2232.96 1645.4 2230.2 1646.24 Q2227.47 1647.07 2224.41 1647.07 Q2216.57 1647.07 2212.05 1642.28 Q2207.54 1637.46 2207.54 1629.15 Q2207.54 1620.82 2212.05 1616.03 Q2216.57 1611.21 2224.41 1611.21 Q2227.52 1611.21 2230.25 1612.05 Q2233 1612.86 2235.41 1614.5 Z" fill="#000000" fill-rule="nonzero" fill-opacity="1" /><path clip-path="url(#clip350)" d="M2242.63 1611.84 L2264.48 1611.84 L2264.48 1615.77 L2247.31 1615.77 L2247.31 1626 L2263.77 1626 L2263.77 1629.94 L2247.31 1629.94 L2247.31 1642.46 L2264.9 1642.46 L2264.9 1646.4 L2242.63 1646.4 L2242.63 1611.84 Z" fill="#000000" fill-rule="nonzero" fill-opacity="1" /><path clip-path="url(#clip350)" d="M2285.32 1631.51 L2297.79 1631.51 L2297.79 1635.31 L2285.32 1635.31 L2285.32 1631.51 Z" fill="#000000" fill-rule="nonzero" fill-opacity="1" /><path clip-path="url(#clip350)" d="M2343.39 1641.47 L2343.39 1632.18 L2335.76 1632.18 L2335.76 1628.34 L2348.02 1628.34 L2348.02 1643.18 Q2345.32 1645.1 2342.05 1646.1 Q2338.79 1647.07 2335.08 1647.07 Q2326.98 1647.07 2322.4 1642.35 Q2317.84 1637.6 2317.84 1629.15 Q2317.84 1620.68 2322.4 1615.96 Q2326.98 1611.21 2335.08 1611.21 Q2338.46 1611.21 2341.5 1612.05 Q2344.55 1612.88 2347.12 1614.5 L2347.12 1619.48 Q2344.53 1617.28 2341.61 1616.17 Q2338.7 1615.05 2335.48 1615.05 Q2329.14 1615.05 2325.94 1618.6 Q2322.77 1622.14 2322.77 1629.15 Q2322.77 1636.14 2325.94 1639.68 Q2329.14 1643.23 2335.48 1643.23 Q2337.95 1643.23 2339.9 1642.81 Q2341.84 1642.37 2343.39 1641.47 Z" fill="#000000" fill-rule="nonzero" fill-opacity="1" /><path clip-path="url(#clip350)" d="M2368.16 1633.36 Q2363 1633.36 2361.01 1634.55 Q2359.02 1635.73 2359.02 1638.57 Q2359.02 1640.84 2360.5 1642.18 Q2362.01 1643.5 2364.57 1643.5 Q2368.12 1643.5 2370.25 1641 Q2372.4 1638.48 2372.4 1634.31 L2372.4 1633.36 L2368.16 1633.36 M2376.66 1631.61 L2376.66 1646.4 L2372.4 1646.4 L2372.4 1642.46 Q2370.94 1644.82 2368.76 1645.96 Q2366.59 1647.07 2363.44 1647.07 Q2359.46 1647.07 2357.1 1644.85 Q2354.76 1642.6 2354.76 1638.85 Q2354.76 1634.48 2357.68 1632.25 Q2360.62 1630.03 2366.43 1630.03 L2372.4 1630.03 L2372.4 1629.61 Q2372.4 1626.67 2370.45 1625.08 Q2368.53 1623.46 2365.04 1623.46 Q2362.82 1623.46 2360.71 1623.99 Q2358.6 1624.52 2356.66 1625.59 L2356.66 1621.65 Q2359 1620.75 2361.2 1620.31 Q2363.39 1619.85 2365.48 1619.85 Q2371.1 1619.85 2373.88 1622.76 Q2376.66 1625.68 2376.66 1631.61 Z" fill="#000000" fill-rule="nonzero" fill-opacity="1" /><path clip-path="url(#clip350)" d="M2385.43 1610.38 L2389.69 1610.38 L2389.69 1646.4 L2385.43 1646.4 L2385.43 1610.38 Z" fill="#000000" fill-rule="nonzero" fill-opacity="1" /><path clip-path="url(#clip350)" d="M2395.55 1620.47 L2400.06 1620.47 L2408.16 1642.23 L2416.26 1620.47 L2420.78 1620.47 L2411.06 1646.4 L2405.27 1646.4 L2395.55 1620.47 Z" fill="#000000" fill-rule="nonzero" fill-opacity="1" /><path clip-path="url(#clip350)" d="M2448.83 1632.37 L2448.83 1634.45 L2429.25 1634.45 Q2429.53 1638.85 2431.89 1641.17 Q2434.27 1643.46 2438.51 1643.46 Q2440.96 1643.46 2443.25 1642.86 Q2445.57 1642.25 2447.84 1641.05 L2447.84 1645.08 Q2445.55 1646.05 2443.14 1646.56 Q2440.73 1647.07 2438.25 1647.07 Q2432.05 1647.07 2428.42 1643.46 Q2424.81 1639.85 2424.81 1633.69 Q2424.81 1627.32 2428.23 1623.6 Q2431.68 1619.85 2437.51 1619.85 Q2442.75 1619.85 2445.78 1623.23 Q2448.83 1626.58 2448.83 1632.37 M2444.57 1631.12 Q2444.53 1627.62 2442.61 1625.54 Q2440.71 1623.46 2437.56 1623.46 Q2434 1623.46 2431.84 1625.47 Q2429.71 1627.49 2429.39 1631.14 L2444.57 1631.12 Z" fill="#000000" fill-rule="nonzero" fill-opacity="1" /><path clip-path="url(#clip350)" d="M2472.35 1621.24 L2472.35 1625.26 Q2470.55 1624.34 2468.6 1623.87 Q2466.66 1623.41 2464.57 1623.41 Q2461.4 1623.41 2459.81 1624.38 Q2458.23 1625.36 2458.23 1627.3 Q2458.23 1628.78 2459.37 1629.64 Q2460.5 1630.47 2463.93 1631.24 L2465.38 1631.56 Q2469.92 1632.53 2471.82 1634.31 Q2473.74 1636.07 2473.74 1639.24 Q2473.74 1642.86 2470.87 1644.96 Q2468.02 1647.07 2463.02 1647.07 Q2460.94 1647.07 2458.67 1646.65 Q2456.43 1646.26 2453.93 1645.45 L2453.93 1641.05 Q2456.29 1642.28 2458.58 1642.9 Q2460.87 1643.5 2463.12 1643.5 Q2466.13 1643.5 2467.75 1642.49 Q2469.37 1641.44 2469.37 1639.57 Q2469.37 1637.83 2468.19 1636.91 Q2467.03 1635.98 2463.07 1635.12 L2461.59 1634.78 Q2457.63 1633.94 2455.87 1632.23 Q2454.11 1630.49 2454.11 1627.49 Q2454.11 1623.83 2456.7 1621.84 Q2459.3 1619.85 2464.06 1619.85 Q2466.43 1619.85 2468.51 1620.19 Q2470.59 1620.54 2472.35 1621.24 Z" fill="#000000" fill-rule="nonzero" fill-opacity="1" /><path clip-path="url(#clip350)" d="M2484.74 1613.11 L2484.74 1620.47 L2493.51 1620.47 L2493.51 1623.78 L2484.74 1623.78 L2484.74 1637.86 Q2484.74 1641.03 2485.59 1641.93 Q2486.47 1642.83 2489.13 1642.83 L2493.51 1642.83 L2493.51 1646.4 L2489.13 1646.4 Q2484.2 1646.4 2482.33 1644.57 Q2480.45 1642.72 2480.45 1637.86 L2480.45 1623.78 L2477.33 1623.78 L2477.33 1620.47 L2480.45 1620.47 L2480.45 1613.11 L2484.74 1613.11 Z" fill="#000000" fill-rule="nonzero" fill-opacity="1" /><path clip-path="url(#clip350)" d="M2509.16 1623.46 Q2505.73 1623.46 2503.74 1626.14 Q2501.75 1628.8 2501.75 1633.46 Q2501.75 1638.11 2503.72 1640.8 Q2505.71 1643.46 2509.16 1643.46 Q2512.56 1643.46 2514.55 1640.77 Q2516.54 1638.09 2516.54 1633.46 Q2516.54 1628.85 2514.55 1626.17 Q2512.56 1623.46 2509.16 1623.46 M2509.16 1619.85 Q2514.71 1619.85 2517.88 1623.46 Q2521.06 1627.07 2521.06 1633.46 Q2521.06 1639.82 2517.88 1643.46 Q2514.71 1647.07 2509.16 1647.07 Q2503.58 1647.07 2500.41 1643.46 Q2497.26 1639.82 2497.26 1633.46 Q2497.26 1627.07 2500.41 1623.46 Q2503.58 1619.85 2509.16 1619.85 Z" fill="#000000" fill-rule="nonzero" fill-opacity="1" /><path clip-path="url(#clip350)" d="M2549.67 1630.75 L2549.67 1646.4 L2545.41 1646.4 L2545.41 1630.89 Q2545.41 1627.21 2543.97 1625.38 Q2542.54 1623.55 2539.67 1623.55 Q2536.22 1623.55 2534.23 1625.75 Q2532.24 1627.95 2532.24 1631.74 L2532.24 1646.4 L2527.95 1646.4 L2527.95 1620.47 L2532.24 1620.47 L2532.24 1624.5 Q2533.76 1622.16 2535.82 1621 Q2537.91 1619.85 2540.62 1619.85 Q2545.08 1619.85 2547.37 1622.62 Q2549.67 1625.38 2549.67 1630.75 Z" fill="#000000" fill-rule="nonzero" fill-opacity="1" /><path clip-path="url(#clip350)" d="M2557.49 1610.43 L2561.19 1610.43 Q2564.67 1615.89 2566.38 1621.12 Q2568.12 1626.35 2568.12 1631.51 Q2568.12 1636.7 2566.38 1641.95 Q2564.67 1647.21 2561.19 1652.65 L2557.49 1652.65 Q2560.57 1647.35 2562.07 1642.11 Q2563.6 1636.86 2563.6 1631.51 Q2563.6 1626.17 2562.07 1620.96 Q2560.57 1615.75 2557.49 1610.43 Z" fill="#000000" fill-rule="nonzero" fill-opacity="1" /></svg>
